<?xml version="1.0" encoding="utf-8"?>
<!-- Generator: Adobe Illustrator 26.2.1, SVG Export Plug-In . SVG Version: 6.00 Build 0)  -->
<svg version="1.1" id="Lager_1" xmlns="http://www.w3.org/2000/svg" xmlns:xlink="http://www.w3.org/1999/xlink" x="0px" y="0px"
	 viewBox="0 0 1085.6 407.7" style="enable-background:new 0 0 1085.6 407.7;" xml:space="preserve">
<style type="text/css">
	.st0{fill:#FFFFFF;}
</style>
<g>
	<path class="st0" d="M809.7,63.5c-0.1,0.6-0.3,1.2-0.4,1.8c-1.8,7.1-3.6,14.2-5.3,21.3c-1.8,7.1-3.6,14.2-5.4,21.4
		c-0.7,2.7-2,3.9-4.8,4.3c0,0-0.4,0-0.5,0c-3.7,0-6.5,2.4-7.3,6.3l0,0.2c-0.1,0.5-0.2,1-0.3,1.4c-1.1,5.1,0.4,8,5.2,10.1
		c2.7,1.2,5.5,1.9,8.3,1.9c1.2,0,2.4-0.1,3.5-0.3c2.4-0.4,4.8-1,7.1-1.6c5.6,6.1,11.5,9.4,17.4,9.5l1.7,0c0.7,0.7,1.6,1.4,2.7,2
		c3.6,2.1,7.4,3.2,11.2,3.2c2.1,0,4.3-0.3,6.4-1l0.1,0c0.2-0.1,0.4-0.1,0.5-0.2c0,0,0.2,0.2,0.2,0.2c4.1,5,9.9,8.4,17.1,10
		c0.8,0.2,1.7,0.3,2.5,0.3c0.1,0,0.2,0,0.4,0l2.3,1.8c4.1,3.2,8.7,4.9,13.7,4.9c2.1,0,4.4-0.3,6.8-0.9c1,1.3,2,2.5,3.2,3.8
		c6.9,7.2,16.1,11,27.4,11.2c0.4,2.9,2.4,4.7,6.5,6.2l0.2,0.1c0.2,0.1,0.4,0.1,0.5,0.2c0.4,0.2,0.7,0.3,1.1,0.4c1,0.4,2,0.6,3,0.6
		c2.1,0,3.9-0.8,5.4-2.4c-0.2,1.2-0.2,2.6,0.5,4.1c1.3,2.7,4.1,3.5,5.2,3.8c3.8,1,7.4,1.7,10.9,2.1c0.7,0.1,0.9,0.2,1,0.2
		c0,0,0.1,0.1,0.2,0.3c3.4,4.7,7.6,7.9,12.4,9.5c0.9,0.3,1.8,0.5,2.7,0.5c1.4,0,4.1-0.5,5.9-3.8c3.8-6.6,1.8-11-0.7-13.7
		c-0.2-0.3-0.4-0.7-0.8-1.1c-1.3-1.8-1.5-3.6-0.5-5.9l0.1-0.2c3-6.7,6-13.6,9-20.5c0.2,1.7,0.5,3.4,0.7,5.1
		c1.1,8.3,2.2,16.8,3.5,25.3l0.8,5.1l5-1c0.3-0.1,0.5-0.1,0.7-0.1c0.6-0.1,1.3-0.2,2.1-0.5l0.1-0.1c0.8-0.4,1.6-0.7,2.4-1
		c2.9-1.2,5.9-2.5,8.7-4c3.9-2,7.8-4.1,11.6-6.1c-2.8,5.5-5.6,11-8.4,16.4c-0.9,1.8-2.3,2.9-4.4,3.3c-2.1,0.5-4.4,0.6-5.9,0.7
		c-4.5,0-6.5,2.8-7.3,4.5c-0.1,0.2-0.3,0.5-0.4,0.7c-0.3,0.5-0.6,1.2-1,1.9c-1.8,4.1-0.7,7.3,3.3,9.5c5.8,3.3,12.2,4.9,19.2,5
		c3.1,6.9,8.2,11.9,15.2,14.7c1.1,0.4,2.1,0.7,3.1,0.7c1.4,0,4.1-0.5,5.9-3.6l0.1-0.1l0.1-0.1c0.1-0.2,0.2-0.4,0.3-0.7
		c0-0.1,0-0.1,0.1-0.2c2.3-3.2,3.9-8-0.9-13.4c-2-2.3-2.2-4.4-0.7-7.1c2.3-4.1,4.4-8.5,6.4-12.7c0.7-1.5,1.4-3,2.1-4.4
		c4.2-8.4,8.4-16.9,12.5-25.2c0,0,0,0,0,0c0,0,0,0,0.1,0c1.5,0,3,0.1,4.4,0.3l0.2,0c0.2,0,0.5,0,0.7,0c3,0,5.5-1.6,6.8-4.3
		c1-2,1.8-3.8,2.9-6l2.2-4.7l-3.4-2.3c-3.6-2.5-7.1-5-10.6-7.5c-3.2-2.3-6.3-4.5-9.5-6.7l-2.4-1.7l-2.6,1.4
		c-10.8,5.7-22.3,11.7-34.2,18c-0.8-7.8-1.7-15.6-2.6-23.1c0,0-0.5-4.2-0.6-5c-0.3-2.8-0.6-5.4-0.7-8c0-3.6-1.7-6.3-5.1-8.1
		l-0.1-0.1c-7.3-3.6-14.7-7.4-21.8-11l-0.2-0.1l-0.2-0.1c-0.7-0.3-1.4-0.5-2-0.6c-0.2-0.1-0.5-0.1-0.7-0.2l-4.2-1.4l-1.8,4
		c-0.3,0.6-0.5,1.1-0.7,1.7c-0.5,1.2-1,2.3-1.5,3.2c-1.1,2-2.4,5.9,1.7,9.7c3.3,3,3.5,4.1,1.7,8.5l-0.6,1.5c-1.9,4.4-3.8,8.7-5.7,13
		c-1.3,3-2.7,6.1-4,9.1l-2.1,4.7c-2.2,5.1-4.5,10.5-6.9,15.7c-1.1,2.5-2.6,2.8-3.6,2.8c-0.5,0-1-0.1-1.5-0.2
		c-0.8-0.2-1.5-0.4-2.2-0.6c-0.3-0.1-0.7-0.2-1.1-0.3l-1.3-0.3c2.5-3.8,5.2-7.8,8.3-12.4c2.5-3.9,2.3-6.6-0.6-10.1
		c-0.6-0.7-1.2-1.3-1.7-1.8c-0.3-0.3-0.5-0.5-0.8-0.8l-3.1-3.5l-3.6,2.9c-0.9,0.7-1.5,1.2-2.1,1.5l-0.6,0.4c-4,2.6-7.7,5.1-11.8,6.4
		c-2.4,0.7-4.6,1.1-6.7,1.1c-2.6,0-5-0.6-7.4-1.8c-1.7-0.9-1.8-1-1.1-3.1l0-0.1c0.1-0.3,0.2-0.7,0.4-1.1c0.2-0.5,0.5-1.1,0.7-1.8
		c1.6-4.8,3.1-9.5,4.7-14.3c2.7-8,5.5-16.3,8-24.6c1-3.1,5.1-6.2,8.5-6.4h7.5l1.2-5.2c0.4-1.6,0.7-3,1-4.5c0.9-4-1.1-7.5-5.2-8.7
		c-3.8-1.3-7.7-1.9-11.7-1.9c-1.9,0-3.9,0.1-5.8,0.4c-0.2,0-0.4,0.1-0.6,0.1c-3.8-5.7-9.2-9.7-15.9-12c-1-0.3-2-0.6-3.1-0.6
		c-4.1,0-5.6,3.4-6.2,4.7l0,0.1l-0.6,1.6c-1.9,4.9-1.4,7.1,2.6,10.8c3.3,3,3.5,4,2,8.2l0,0c0,0.1-0.1,0.2-0.1,0.4l-0.1,0.4
		c-1.9,5.1-3.8,10.3-5.7,15.4c-3.1,8.4-6.2,16.7-9.3,25l-0.1,0.2c-0.2,0.5-0.5,1.1-1.1,1.7c-2.3,2.8-5.1,4.4-8.6,4.6l-0.2,0l-0.2,0
		c-0.3,0-0.9,0.2-1.7,0.5c-0.5-0.9-1-1.7-1.6-2.4c-0.8-0.9-1.6-1.7-2.4-2.5c-0.5-0.5-1-1-1.5-1.5c-1.7-1.8-2.1-4.4-2.6-7.5
		c-0.1-0.7-0.2-1.3-0.3-1.9c-2.2-12.8-4.4-25.7-6.4-38.2c1.4-0.9,2.9-1.8,4.3-2.7c1.7-1,3.3-2.1,5-3.1c3-1.8,5-2.6,6.9-2.6
		c0.8,0,1.6,0.1,2.4,0.4l0.2,0.1l0.2,0.1c0.5,0.1,0.9,0.2,1.4,0.2c0.5,0,1-0.1,1.3-0.1l0.1,0l3.3,0l1.2-3.2c0.9-2.5,1.8-4.9,2.6-7.2
		l1.1-3.1l-2.5-2.2c-3.4-3-6.2-4.7-10.6-5c-1-0.1-2.1-0.2-3.1-0.2c-0.9,0-1.9,0-2.8,0.1c0,0-0.1-0.1-0.1-0.1
		c-4.5-3.6-10-5.9-16.4-6.7l-3.1-0.4l0.8-3l-5.8-1c-1.5-0.3-3-0.5-5-0.6c-0.8-0.1-1.7-0.1-2.5-0.1c-3.1,0-6.3,0.5-9.7,1.5
		c-3.1-3.6-7.3-6.2-12.8-7.8c-2.3-0.7-4-1.1-5.6-1.1c-6.8,0-7.4,6.8-7.6,10.1l0,0.2v0.2c0,1.2,0.4,2,0.6,2.5l0.4,1.3l1.4,0.9
		c0.2,0.1,0.4,0.3,0.7,0.4c0.2,0.1,0.5,0.3,0.5,0.3l0.1,0.1c2.5,2.3,2.2,3.1,2,3.8C810.4,60.5,810.1,62,809.7,63.5z M839.9,69
		c1.5-4.9,3.8-5.9,5.8-6.3c1.5-0.2,2.8-0.8,3.8-1.7c0.1,1.9,0.7,4,2.6,6.1c-1.1,0.9-2.4,1.8-3.7,2.7c-1.9,1.2-3.9,2.4-5.9,3.6
		c-1.3,0.8-2.6,1.6-3.9,2.4c-0.2,0.1-0.4,0.2-0.6,0.4C838.6,73.7,839.2,71.4,839.9,69z M828.7,115.7l0-0.2c0.1-0.4,0.2-0.8,0.2-1.2
		c0.2-0.8,0.4-1.7,0.5-2.8c0.4-4,1.8-5.8,3.7-6.9c0.2,2.5,0.5,5,0.8,7.5c0.5,3.4,1.1,6.7,1.7,9.9l0.2,0.8c0.1,0.3,0.1,0.6,0.1,0.8
		c-0.1,0-0.2,0.1-0.4,0.1l0,0c-0.3,0-0.7,0.1-1,0.1l-1.7-1.2c-0.2-0.1-0.3-0.2-0.4-0.3c-0.3-0.2-0.7-0.5-1.3-0.8
		C828.2,119.7,828,119.2,828.7,115.7z"/>
	<path class="st0" d="M125.6,348.9l-0.5-0.8L125,348c-13.1-17.7-24.8-33.5-36-48.2c-0.7-0.9-1.4-1.8-1.8-2.5
		c0.4-0.7,1.2-1.7,1.8-2.5l0.2-0.2c0.8-1.1,3.2-4.5,1-8.4c-0.8-1.5-1.9-3.2-3.2-5c-1.4-1.9-3.5-3-5.7-3c-1.6,0-3.2,0.6-4.6,1.7
		c-0.3,0.3-0.7,0.5-1,0.8c-2.5,1.9-5.5,4.3-7.3,7.9c-0.2,0-0.5,0-0.7,0c-1.9,0-3.4,0.4-4.7,1.2l-0.1,0.1c-2.9,1.8-5.5,3.9-8,5.9
		l-0.2,0.2l-0.2,0.2c-1.7,1.7-2.6,5-1.4,7.6c0.8,1.8,1.9,3.3,2.8,4.6c1.4,2.1,3.6,3.2,5.9,3.2c1.3,0,2.5-0.3,3.7-1
		c0.5-0.3,0.9-0.4,1.3-0.4c0.2,0,0.5,0,1,0.3c0.9,0.5,1.4,0.9,1.6,1.2l0.1,0.1c4,5.2,8.1,10.6,12,15.9c-1.5-0.3-3-0.6-4.5-0.9
		c-9-1.9-18.3-3.9-27.5-5.7c-3.4-0.7-6.9-1.2-10.2-1.8c-2.2-0.4-4.4-0.7-6.7-1.1c-0.8-0.1-1.6-0.2-2.4-0.2c-3.2,0-6,1.1-8.3,3.3
		c-2.3,2.1-4.8,4.2-7.4,6.3c-1.3,1.1-2.6,2.2-3.9,3.3c-0.8,0.7-1.5,1.5-2,2.1l-0.4,0.4l-2.7,3.1l2.7,3.2c0.9,1.1,1.7,2,2.5,3
		c1,1.2,1.9,2.3,2.7,3.3l2.3,2.7l3.3-1.3c1-0.4,1.9-0.8,2.6-1.2c1-0.5,2-0.9,2.7-1.1c0.6-0.1,1.1-0.2,1.6-0.2c1.4,0,3.7,0.4,6.6,4.1
		c2.4,3.1,4.9,6.4,7.6,9.7c7.1,8.7,14.5,17.8,21.9,26.8c1.5,1.8,1.7,3.4,0.8,5.4c-1.3,2.9-2,7.2,2.2,11.6c1.3,1.3,3.3,3.1,6.1,3.1
		c3.5,0,5.6-2.7,6.4-3.7c2.5-3.1,4.2-6,5.2-9.2c5.8-0.6,9.8-4.6,12-6.8l0.1-0.1c4.2-4.6,4.4-7.8,0.7-12.7l-0.2-0.2
		c-1.3-1.6-2.8-3.6-5.8-3.6c-2,0-3.4,0.9-4.8,1.8c-0.6,0.4-1.4,0.6-2.2,0.6c-1.4,0-2.5-0.5-2.9-1c-1.8-2.2-3.6-4.5-5.3-6.7
		c-1.9-2.4-3.9-4.8-5.8-7.3c6,1.3,12,2.5,18.1,3.8c5.8,1.2,11.7,2.4,17.6,3.7c1.8,0.4,3.7,0.8,5.5,1.2c1.8,0.4,3.7,0.8,5.5,1.2
		c1,0.2,1.9,0.4,2.8,0.4c2.2,0,4.2-0.8,5.8-2.2l0.8-0.8c1.2-1.1,2.4-2.2,3.8-3.5l3-2.9l-2.4-3.5
		C127.6,352.2,126.5,350.5,125.6,348.9z"/>
	<path class="st0" d="M586.7,74.5c0,3-2,4-3.8,4.3c-0.4,0.1-0.8,0.1-1.2,0.2c-5.7,1-7.3,3-7.5,8.9l0,1.1v1.2
		c-0.2,4.1,2.6,7.2,6.7,7.5c1.8,0.1,3.3,0.2,4.8,0.2c5.4,0,10-1,14.1-3.2c3.8,2.5,8.1,3.9,13.5,4.5c1.2,0.1,2.2,0.2,3,0.2
		c2.4,0,4.1-0.6,5.3-1.6c1.1,1.4,2.8,2.3,4.9,2.6c2.4,0.4,4.5,0.5,6.5,0.5c4.6,0,8.5-1,12-3c0.1-0.1,0.3-0.1,0.4-0.2
		c0,0,0.2,0.2,0.2,0.2c0.6,0.4,1.1,0.7,1.5,0.9c0.1,0.1,0.2,0.1,0.3,0.2l0.1,0.1c3.7,2.1,8,3.4,13.2,4c0.7,0.1,1.3,0.1,1.8,0.1
		c2.9,0,5-1.3,6.1-3.9c0,0.9,0.3,2.5,1.3,3.8c0.7,0.9,2.2,2.5,5.1,2.5c0.5,0,1,0,1.7-0.2c2.5-0.5,5.8-1.1,8.9-2.1
		c1.1-0.4,2.1-0.8,3.1-1.3c0,0,0.1,0.1,0.1,0.1c4.8,5.6,11.2,7,15.5,7.5c0.3,0,0.7,0.1,1,0.1c3,0,5.3-1.3,6.3-3.5
		c0.9-2,1.4-4.2,1.4-6.2c0-3.5-3.3-5.5-4.4-6.1c-2.2-1.3-2.4-2.6-2-4.3c0.1-0.5,0.1-1,0.2-1.3c0-0.1,0-0.2,0-0.3l0-0.1l0-0.1
		c0.7-5.2,1.5-11.3,2.3-17.2c1.3-10,2.7-21.6,4-33c0.2-1.1,0.6-1.7,1.6-2.2c0.9-0.4,2-0.7,3.2-1.1c0.4-0.1,0.8-0.2,1.1-0.3
		c3.6-1,5.6-3.1,5.8-6.1c0.2-2,0.3-3.9,0.4-6.2l0.2-4.2l-4.1-0.8c-2.2-0.4-4.4-0.7-6.5-0.7c-4.2,0-8.3,0.9-12.4,2.6
		c-0.4-0.2-0.7-0.4-1.1-0.6c-4.3-3.3-9.3-5-14.7-5c-0.6,0-1.3,0-1.9,0.1c-2,0.1-5.5,1-6.7,4.1c-0.6,1.3-1.4,3.8-1.2,6.5
		c0.1,3.4,3.1,5,4.6,5.8l0.1,0.1c3.1,1.9,3.5,3.7,3.1,5.9c-0.6,3.6-1.1,7.2-1.5,10.7c-0.1,1.1-0.3,2.1-0.4,3.2
		c-0.5,4.2-1.1,8.4-1.6,12.6c-0.8,6.2-1.5,12.6-2.4,18.9c-0.7,5.3-2.5,6.9-5,7.7l-0.1,0c-1.9,0.6-3.3,2.2-4.1,3.7c0-0.2,0-0.5,0-0.7
		l0.2-3.5l-3.2-1.4c-1.2-0.5-2.2-0.9-3.2-1.3c-2.9-1.2-4-2.9-3.8-6c0.9-17.2,1.7-34.5,2.5-51.3c0-1.3,0.4-1.9,1.4-2.6l0.1-0.1
		c0.8-0.6,1.8-1.1,2.8-1.4c3.9-1.3,6-4.6,5.6-8.7c0-0.2,0-0.7,0-1.2c0-0.4,0-0.9,0-1.3V8.8l-4.1-0.7c-0.4-0.1-0.8-0.2-1.2-0.2
		c-0.7-0.1-1.5-0.3-2.3-0.4c-0.8-0.1-1.7-0.1-2.5-0.1c-4.5,0-9,1.3-13.6,3.7c-0.1,0-0.1,0.1-0.2,0.1c-4.5-3.7-9.9-5.6-15.9-5.6
		c-0.5,0-1,0-1.5,0c-2.4,0.1-4.1,0.6-5.5,1.7c-1.6-1.6-3.9-2.1-5.8-2.4c-1.7-0.2-3.2-0.3-4.7-0.3c-4.6,0-8.7,0.9-12.3,2.8
		c-5.4-3.8-11.4-4.8-16.2-5.3c-0.3,0-0.6-0.1-1-0.1c-3.3,0-5.7,1.5-6.5,3.9c-0.8,2.3-1.2,4.7-1.2,6.9c0,4.8,4.2,6.1,6,6.4
		c0.1,0,0.2,0,0.3,0.1c2.9,0.9,3.4,1.6,3.4,4.6l-0.6,30.2C586.8,60.6,586.7,67.7,586.7,74.5z M616.2,27.1c0.1-2.5,0.9-3.6,3.2-4.5
		c1.3-0.5,2.8-0.9,4.4-1.4l1.3-0.4c0.9,0.8,2.1,1.4,3.5,1.7c1.6,0.4,3.3,1.3,4.3,5.3l0,0.1c0,0.2,0,0.9-0.1,1.4l0,0.2
		c-0.1,2.7-0.3,5.4-0.5,8.2c-0.4,0-0.7,0-1.1,0c-0.9,0-1.7,0-2.6,0c-4.3-0.1-8.6-0.3-12.8-0.5C615.9,33.7,616.1,30.3,616.2,27.1z
		 M614.7,66.1c0.1-2.7,0.2-5.3,0.3-8c5.6,0.3,11.1,0.5,16.6,0.8c0,0.4,0,0.7,0,1.1c-0.1,2.1-0.3,4.1-0.4,6.2
		c-0.2,4-0.5,8.2-0.8,12.3c-0.2,2.3-2,4.7-3.9,4.8l-0.1,0l-0.1,0c-1,0.1-1.8,0.4-2.5,0.7l-0.4,0.1c-0.9-1.2-2.2-2-3.9-2.5
		c-0.6-0.2-1.1-0.3-1.5-0.5c-2.7-1.1-3.7-2.6-3.5-5.3C614.5,72.6,614.6,69.3,614.7,66.1z"/>
	<path class="st0" d="M12.8,169.6l2.4,3.5l3.8-1.9c0.5-0.3,1-0.5,1.5-0.8c1-0.6,1.9-1,2.7-1.3l0.4-0.1l0.8-0.4
		c0.9-0.4,1.8-0.9,2.6-1.2c0,0.5,0.1,1,0.1,1.5c0.1,0.9,0.1,1.9,0.2,2.9c0.4,3.9,0.9,7.8,1.4,11.7c0.7,5.6,1.4,11.3,2,17
		c0.4,3.7,0.7,7.4,1,11c0.5,5.6,1,11.3,1.7,17l0,0.1c0.3,2-0.3,3.4-1.8,4.8l-0.5,0.5c-5,4.3-6,6.7-2.7,13c0.2,0.4,0.5,0.9,0.7,1.4
		l0.3,0.6c1.8,3.6,4.8,3.9,6,3.9c1,0,2.1-0.2,3.2-0.7l0.2-0.1c6.2-2.8,10.7-6.8,13.9-12.2c0.2-0.3,0.3-0.4,0.3-0.4
		c0,0,0.1,0,0.3-0.1c5.3-0.4,9.7-2.9,13.3-5.3l0.2-0.1c4.6-3.4,3.6-7.6,3-9.2l0-0.1c-0.8-2-1.9-4.8-4.3-7.1l-2.3-2.2l-3.9,1.7
		c-1.4,0.6-2.7,1.2-4,1.6c-0.5,0.2-1.1,0.3-1.6,0.3c-0.1-0.7-0.2-1.5-0.3-2.3c-0.1-0.8-0.2-1.6-0.3-2.4c6.8-3.7,13.8-7.6,20.8-11.5
		c2.3-1.3,4.8-2.6,7.2-4.1c1.5,1.1,3.1,2.1,4.6,3.1c0.2,0.1,0.3,0.2,0.4,0.3c0,0.1-0.1,0.2-0.1,0.4c-0.4,1.5-0.8,2-1.4,2.4
		c-1,0.6-1.8,1.2-2.5,1.9c-0.2,0.2-0.5,0.4-0.7,0.6l-3.1,2.5l1.9,3.5c0.5,1,1.1,2,1.6,2.9c0.4,0.8,0.9,1.5,1.3,2.3l1.3,2.5l2.8,0.1
		c0.3,0,0.6,0,0.8,0c2.7,0,5.1-0.7,7.2-2c5.4-3.2,9.7-8,12.5-13.8c1.1,0.1,2.1,0.2,3.2,0.2c4.1,0,8.1-1,11.9-2.9
		c2.3-1.2,3.8-2.7,4.4-4.4l0.9,1.6l4.1-1.7c0.8-0.4,1.3-0.5,1.7-0.6l0.7-0.2l0.6-0.4c5.5-3.3,9.3-7.3,11.9-11.9
		c1.5,0.1,2.7,0.2,3.9,0.2c1.3,0,2.5-0.1,3.6-0.2c7.6-1,14.8-4,22.1-9.2c6.4-4.6,10.9-10,13.5-16c4.8-11.1,3.1-22.4-4.8-32.7
		c-3.5-4.6-8.1-7.5-13.5-8.4c1.6-5.6,0.8-11.5-2.4-17.4c-2.8-5.1-7.6-12-17.2-13.6c-2.7-0.4-5.2-0.6-7.6-0.6c-2.8,0-5.5,0.3-8.1,0.9
		c-10.2,2.5-18.8,7.3-25.4,14.2c-1.5,1.6-2.7,2.2-4.7,2.2c-0.6,0-1.4,0-2.3,0.2c-6,0.9-12.3,2.3-17.9,7.1l-2.9,2.5l1.7,3.4
		c0.3,0.5,0.5,1.1,0.7,1.6c0.8,1.9,1.8,4.1,3.7,5.8l1.5,1.3l2-0.1c1.1-0.1,2-0.2,3-0.3c1.1-0.1,2.1-0.2,3-0.2c0.2,0,0.4,0,0.7,0
		c1,0.1,1.4,0.3,1.8,1.3c7.5,15.5,15.7,32.1,24.4,49.1c1.2,2.3,0.7,3.1-0.2,4.2l-0.1,0.1c-0.7,0.7-1.8,1.7-2.4,3.4
		c-0.4,0.8-0.6,1.6-0.7,2.3c-1-0.5-2.2-0.9-3.8-0.9c-0.4,0-0.8,0-1.1,0c-0.2,0-0.3,0-0.5,0c-1.9,0-3.9-0.7-6-2.1l-48.4-32
		c-0.4-0.3-0.7-0.7-1-1c-1-1.4-0.9-2.3,0.2-3.8c0.7-0.9,1.5-1.8,2.5-2.9c0.7-0.7,1.4-1.5,2.1-2.3l2.2-2.6l-1.6-3l-1-1.7
		c-0.8-1.4-1.6-2.9-2.4-4.5l-2.1-3.9l-4.1,1.6c-10.2,4.1-15.8,11.9-19.2,18.6c-1.3-0.2-2.5-0.2-3.7-0.2c-2,0-3.9,0.2-5.8,0.7
		c-3.9,0.9-7.9,2.5-12.3,5l-0.1,0.1l-0.1,0.1c-1.4,0.9-2.7,1.9-3.9,2.8c-0.4,0.3-0.8,0.6-1.2,0.9c-3,2.3-3.8,6.1-1.7,9.1
		C10.4,166,11.5,167.7,12.8,169.6z M157.2,140.7c0.9,0.1,2.4,0.3,3.7,1.5c3.2,2.8,5.1,6.2,5.4,10c0.3,3.8-1,6.8-4,9.3
		c-1.3,1-3,1.9-5.2,2.6c-0.5,0.2-1,0.3-1.4,0.3h0c-1.7,0-2.8-1.5-3.4-2.7c-3-6.1-5.6-11.2-8.1-16l0.2-0.2
		C148.3,142.2,152.3,140.7,157.2,140.7z M128.7,111.6c2.8-2.8,4.9-4,7.2-4c0.6,0,1.2,0.1,1.8,0.2c0.3,0.1,0.7,0.3,1.1,0.3
		c1.5,0.5,3.3,2.3,4.4,4.6c1.2,2.4,1.6,5,1,6.6c-1,2.5-2.4,4.4-4.4,5.9c-1.3,1-2.8,1.9-4.3,2.8c-0.4-0.9-0.9-1.8-1.3-2.7
		c-1.8-3.8-3.7-7.7-5.7-11.5C127.9,113.1,127.8,112.6,128.7,111.6z M60.4,185c-0.4,0.2-0.9,0.5-1.3,0.7c-2.8,1.5-5.6,3.1-8.5,4.6
		c0-0.4-0.1-0.7-0.1-1.1c-0.5-4-0.9-7.9-1.4-11.7C52.8,179.8,57.1,182.7,60.4,185z"/>
	<path class="st0" d="M176.9,263.2c-4.6-6.3-11.1-14.1-21.2-18.8c-5.2-2.3-10.4-3.5-15.5-3.5c-4.6,0-9.1,0.9-13.4,2.8
		c-6.4,2.7-12.3,7-18,13.1l-0.1,0.1c-2.7,3-4.9,6.4-6.6,9.7c-2.5,5.5-4.1,12-4,16.7c-0.1,12.7,2.7,22.6,9.2,32.4
		c8.1,11.9,18.8,19.7,31.9,23.1c3.8,1,7.4,1.5,10.8,1.5c6.5,0,12.5-1.8,17.8-5.2c5.4-3.4,10.9-7.3,14.8-13.4c5-7.9,6.9-17,5.9-27.9
		C187.4,282.5,183.5,272.2,176.9,263.2z M160.9,310.9c-0.1,1.2-0.2,2-0.4,2.5l0,0.1l0,0.1c-0.6,2.8-1.8,3.1-3.3,3.1
		c-0.3,0-0.7,0-1-0.1c-3.6-0.5-6.9-2.4-10.4-5.9c-6.3-6.4-11.4-13.6-15.4-21.9c-2.5-5.3-3.9-9.6-4.2-13.8c-0.1-1.7,0-3.7,0.3-5.9
		c0.4-2,2.5-3.6,4.7-3.6c1.2,0,2.3,0.4,3.3,1.3c3.1,2.5,5.6,4.8,7.6,7.2c8.4,9.6,14.5,20.7,18.5,34c0.2,0.8,0.3,1.8,0.4,2.6
		c0,0,0,0.1,0,0.1L160.9,310.9z"/>
	<path class="st0" d="M1067.2,325c-3.1-2.8-5.9-6.2-8.3-10c-0.6-0.9-1.1-1.8-1.7-2.8c-1.2-2-2.4-4.1-3.8-6c-2.1-2.9-4.4-5.5-6.8-7.6
		c-4.6-3.9-10-6.4-16.4-7.5c0.4-2.4-0.4-4.8-2.4-6.6l-0.1-0.1l-0.1-0.1c-1.5-1.2-3-2.4-4.8-3.6c-1.2-0.9-2.6-1.3-4-1.3
		c-2.4,0-4.6,1.4-5.9,3.7c-0.2,0.3-0.4,0.7-0.6,1c-0.3,0.6-0.6,1.1-1,1.6c-1.8,2.7-3.6,5.3-5.5,8c-1.8,2.7-3.7,5.4-5.5,8.1
		c-0.8,1.2-2.4,4.2-1.5,7.3c0.9,3.1,2.6,5.6,5.1,7.4l2.7,1.9l2.8-1.7c4.6-2.9,8.6-5.3,13.1-5.3c0.8,0,1.6,0.1,2.4,0.2
		c3,0.6,5.6,1.8,8.1,3.9c-1.9,0.4-3.8,0.8-5.7,1.3c-2.4,0.5-4.7,1-7.2,1.6c-3.1,0.7-6.2,1.5-9.4,2.3c-3.4,0.9-6.9,1.8-10.5,2.6
		c-10.4,2.5-20.9,5-31.2,7.5c-2.3,0.6-5.3,2.2-6.2,6.6c-0.3,1.8-0.7,3.6-1.1,5.3c-0.4,1.8-0.7,3.6-1.1,5.5c-0.9,4.9,1.1,7.8,6,8.6
		c4.1,0.8,7.5,2.7,10.2,6c2.4,2.9,4.5,5.2,6.5,7.3c6.8,7.1,13.6,11.3,21.3,13.1c3.9,0.9,4,2.4,4,3.4c0.3,4.6,3.3,7,5.3,8.6l0.4,0.3
		c1.5,1.2,3.3,2.4,5.6,2.4c3.1,0,5.1-2.2,6.1-3.3c5.4-6,10.8-12,16.3-18.4c0.8-0.9,1.4-1.8,2-2.6l2.5-3.6l-2.5-2.9
		c-1.7-2-3.4-3.9-5-5.7l-0.6-0.7l-0.1-0.1c-1.9-1.9-3.8-2.3-5.1-2.3c-1.2,0-2.4,0.3-3.6,1c-0.5,0.3-1.2,0.6-1.8,0.9
		c-0.8,0.4-1.6,0.8-2.4,1.2c-2.6,1.4-5.4,2.2-8.4,2.2c-1.9,0-3.9-0.3-6.1-0.8c-4.1-1-7.8-3.2-11.4-6.8c7.6-2.1,13.9-3.9,19.8-5.5
		c10.2-2.7,18.1-4.8,25.5-6.9l2.7-0.7c4.2-1.1,8.6-2.3,12.8-3.5c1.8-0.5,3.4-1.1,5.2-1.7c1.1-0.4,2.2-0.8,3.4-1.2l8.1-2.7l-6.4-5.6
		C1069.4,326.9,1068.3,326,1067.2,325z"/>
	<path class="st0" d="M477.7,164.9c0.5-0.2,1-0.4,1.4-0.5c0.2-0.1,0.4-0.2,0.7-0.3l2.9-1l0.5-3.2c0.1-0.8,0.3-1.8,0-3.1
		c-0.6-2.8-1.2-5.6-1.8-8.3l0-0.1c-1.1-4.9-2.2-10-3.3-15l0-0.1c-1.4-5.2-4.9-6.3-7.6-6.3c-0.5,0-1,0-1.6,0.1
		c-3.4,0.4-5.4,1.7-6.5,4.1c-4.1-1.2-8.4-1.8-12.7-1.8c-1.3,0-2.6,0.1-3.8,0.2c-11.2,0.9-19.8,4.7-26.3,11.7c-1.9,2.1-4.3,5-5.9,8.5
		c-5.9,13.2,0,26.7,8.5,34.2c1.7,1.5,3.6,2.9,5.6,3.9c-0.1,0-0.3,0.1-0.4,0.1c-7.2,1.6-9.1,4-7.9,11l-4-3.5l-2.6,6.4
		c-0.3,0.8-0.6,1.6-0.9,2.3c-0.5,1.2-0.8,2.2-1.3,3.1c-0.1,0.2-0.2,0.3-0.2,0.4c-0.1-0.1-0.2-0.2-0.4-0.3c-0.5-0.5-0.9-0.9-1.1-1.2
		l-0.1-0.2c-0.7-0.9-1.4-1.8-2.2-2.7c-1.1-1.3-2.1-2.6-3.1-3.9c-2.1-2.8-4.5-5-7.2-6.6c2-1.8,3.5-4.1,4.5-6.7
		c2.6-6.5,2.9-12.9,0.9-19.1c-1.7-5.2-4.5-9.9-8.2-14.1c-1.6-1.8-3.6-3.1-5.5-4.2c-5-2.8-10.2-4.2-15.8-4.2c-1.6,0-3.3,0.1-5.1,0.4
		c-10.4,1.5-18.4,5.5-24.3,12.4c-3.1-1.8-6.4-2.7-9.9-2.7c-3.8,0-7.9,1.1-12.5,3.4l-0.1,0.1l-0.1,0.1c-0.4,0.2-4.1,2.5-4.1,6.3
		l0,0.4c0,2.7,0,6.5,2.7,9.8l1.5,1.8h2.1c0.2,0,0.6,0.1,1,0.1h0.4c0,0,2-0.3,2.3-0.4c0.3-0.1,0.6-0.1,0.9-0.1c0.4,0,0.5,0.1,0.5,0.1
		c0,0,0,0,0,0c0.1,0.1,0.3,0.4,0.6,1.3c1,3.3,1.9,6.8,2.8,10.2c1.3,4.9,2.7,9.9,4,14.8c2.3,8.7,4.7,17.7,7.2,26.5
		c0.6,2,0,2.4-0.3,2.6c-3.7,2.4-4.8,5.2-4.9,7.7c-0.2-0.1-0.4-0.2-0.7-0.4l-0.5-0.2l-0.5-0.1c-0.8-0.2-1.4-0.2-1.8-0.2l-0.1,0
		l-3.5-0.6c1-4.4,1.2-8.8,1.3-12.6c0.5-17.9-5.7-33.1-18.5-45.1c-6.8-6.4-14.6-9.8-23.1-10.2c-0.5,0-1.1,0-1.6,0
		c-8.9,0-17.5,2.5-25.3,7.6c-3.6,2.3-8.1,5.2-10.9,9.8c-5.6,9-8.1,17.2-7.8,25.5c0.1,2.3,0.2,4.8,0.4,7.4
		c-5-8.9-13.5-15.2-24.3-17.6c-2.5-0.5-5.1-0.8-7.7-0.8c-14,0-25.9,7.1-32.6,19.2c-1.3-0.2-2.6-0.4-3.9-0.4c-5.4,0-10.1,2-14.5,4
		c-1.8,0.8-3.1,2.2-3.7,3.9c-0.6,1.7-0.5,3.7,0.4,5.3c0.9,1.9,1.8,3.8,2.8,5.8l0.1,0.2c1.4,2.4,3.7,3.8,6.2,3.8
		c0.8,0,1.7-0.1,2.5-0.4c0.4-0.1,0.8-0.2,1.1-0.4c0.2-0.1,0.5-0.2,0.7-0.3c0.2-0.1,0.4-0.1,0.5-0.1c0.1,0,0.3,0.2,0.5,0.7
		c0.4,1,0.9,2.1,1.6,3.2c0.8,1.5,1.7,3,2.5,4.5c1.6,2.9,3.3,6,4.8,8.9c2.6,5,5.3,10.1,7.9,15.2c2.6,5.1,5.3,10.2,7.9,15.2
		c1.7,3.3,1.7,3.8-0.7,6.4c-4,4.5-4.1,7.6-0.6,12.6l0.1,0.1c0.8,1.1,2.7,3.5,6,3.5c1.7,0,3.1-0.7,3.9-1.1c2.8-1.5,5.6-3.3,8.5-5.5
		c2.8-2.1,4.3-4.9,5.3-7.3c0.3,0.1,0.5,0.1,0.8,0.2c1.5,0.4,3.1,0.6,4.6,0.6c4.9,0,9.7-2,14.1-5.9c1.9-1.6,3.2-4.9,2.3-7.6l-0.1-0.2
		c-0.6-1.6-1.4-3.2-2.2-4.6c-0.3-0.7-0.7-1.4-1-2.1l-2-4.1l-4.3,1.7c-1.7,0.7-2.9,1.2-4,1.7c-0.9,0.4-1.4,0.5-1.5,0.5
		c-0.4,0-1-0.9-1.2-1.2c-0.8-1.2-1.5-2.5-2.2-3.7c2.3-0.4,4.6-1.1,7-2.5c4.6-2.9,7.9-5.8,10.3-9.1l0.1-0.1c2.4-3.5,4.6-7.3,6.4-11
		c1.8-3.8,2.3-7.7,2.4-10.9c1.6,3.3,3.6,6.4,6,9.4c1.1,1.4,2.3,2.6,3.5,3.7c0.7,0.7,1.4,1.4,2.1,2.1c7,7.9,15.6,12.4,25.6,13.5
		c1.4,0.2,2.7,0.2,4.1,0.2c5.1,0,10-1.2,14.9-3.5c0.2-0.1,0.4-0.2,0.7-0.3c4.6,4.2,10.2,6.9,16.2,7.9c1.6,0.3,3.2,0.4,4.8,0.4
		c5,0,9.5-1.6,13.2-4.6c4.6-3.9,6.9-9.9,6.2-16c-0.1-0.9-0.3-1.8-0.5-2.7c0.7-0.1,1.4-0.2,2-0.3c6.4-1.4,11.4-4.5,15-9.2
		c2.9,0.9,5.8,1.4,8.6,1.4c3.4,0,6.8-0.7,10.1-2l2.6-1.1l0.5-2.7c0.1-0.7,0.3-2-0.1-3.7c-0.1-0.7-0.2-1.6-0.4-2.5
		c-1.2-5.8-3.1-7.5-9.1-7.9c-1.1-0.1-2-0.4-2.8-2c-2.1-3.7-3-7.9-4-12.4l-0.2-0.8c0-0.2,0.4-0.7,1-0.8c0.5-0.1,1-0.2,1.5-0.2
		c1.1,0,2.6,0.2,4.2,2.2c1.9,2.4,3.8,5,5.6,7.4c1.4,1.9,2.8,3.7,4.2,5.6c3.2,4.2,7.8,9.2,14.8,11.2c2.8,0.8,5.3,1.2,7.7,1.2
		c6.5,0,11.8-3,16.1-9c0.4-0.5,0.7-1.1,1-1.6c0.3,1.1,0.5,2.3,0.8,3.4l1.1,4.4l4.5-0.7c1.7-0.3,3.4-0.5,4.9-0.7
		c1.2-0.2,2.3-0.3,3.4-0.5l3.7-0.6l0.3-2.5c0.5,0.1,1,0.2,1.5,0.3c2.8,0.5,5.6,0.7,8.3,0.7c5.2,0,10.2-0.9,15-2.6
		c8.3-3,15.2-8.7,19.4-15.9c4.7-7.9,5.8-17.2,3.1-26.2C487.7,174.8,483.5,168.9,477.7,164.9z M211.7,253.4c-1.3-2.3-2.6-4.7-4-7
		c-2.6-4.6-5.4-9.4-7.9-14.1c-0.7-1.3-0.8-2.9,1.2-6.5c0.5-0.9,1.5-2.5,2.9-2.8c0.6-0.2,1.2-0.2,1.8-0.2c1.2,0,2.3,0.3,3.5,0.9
		c6.9,5.8,10.3,11.9,10.6,19.2C220.2,246.9,216.7,252.2,211.7,253.4z M297.7,231.8l-1.8-1l-2,0.6c-2.6,0.8-4.4,2.5-5.8,3.8
		c-0.6,0.5-1.1,1-1.5,1.3l-2.4,1.7c-3.4-5.8-6-11.8-7.8-17.9c-2-7.2-3.6-14.9-2.5-22.5c0.3-2.1,1-4.1,1.9-5.7c1-1.7,2.9-2.3,4.5-2.3
		c1.3,0,2.6,0.4,3.5,1.2c4.2,3.3,7.4,7.5,9.5,12.4c4.2,9.5,6.7,19.8,7.6,30.7C300,233.3,299,232.4,297.7,231.8z M324.9,248.5
		C324.9,248.5,324.9,248.5,324.9,248.5c0.2-0.4,0.4-0.7,0.6-1.1C325.3,247.8,325.1,248.2,324.9,248.5z M374,178.7
		c-0.5,3.9-2.6,6.4-6.5,7.8c-1.4,0.5-2.9,1-4.4,1.5c-0.2-0.7-0.3-1.3-0.5-2c-1-3.7-1.9-7.3-2.7-10.9c-0.2-1.2,0-2.8,0.4-4.5
		c0.8-2.7,2.8-4.4,5.4-4.4c1.4,0,2.7,0.5,4,1.4C373.2,170.4,374.6,174,374,178.7z M463.6,200.3c-0.5,2.2-1.9,4.1-3.7,5.1
		c-1.4,0.8-2.8,1.2-4.2,1.2c-1.7,0-3.6-0.6-5.5-1.7c-5.4-3.3-10.1-7.7-13.7-13.2c-0.2-0.3-0.4-0.6-0.6-0.9c2.5,0.5,5.2,0.8,8.1,0.8
		c0.4,0,0.9,0,1.3,0l1.5,0c1.2,0,2.4-0.1,3.6-0.1c2.7,0,5.9,0.1,8.9,1c1.6,0.5,2.7,1.2,3.5,2.4l0.1,0.1
		C463.8,196.3,464.1,198.2,463.6,200.3z M461.1,159.5c-0.6-0.1-1.2-0.1-1.8-0.2c-2.9-0.3-5.7-0.6-8.5-0.8c-2-0.2-4.1-0.3-6.1-0.5
		l-0.1,0c-2.1-0.1-2.4-0.7-2.6-1.1c-1.1-2.1-0.2-5.1,1.7-6.3c2.2-1.4,4.6-2.3,7.8-3.1c0.8-0.2,1.5-0.3,2.1-0.3
		c1.5,0,3.5,0.4,6.3,3.2c2.7,2.8,5,6.1,6.7,9.7c0,0,0,0.1,0.1,0.1C464.9,159.9,463,159.7,461.1,159.5z"/>
	<path class="st0" d="M251.8,59.4L251.8,59.4l1.5,1.5h3.8l0.2,0c0.2,0,0.4,0,0.5,0c1.2,0,3.1,0,4.6,4.7c1.3,4,2.5,8.3,3.6,12.3
		c0.5,2,1.1,4,1.7,6c0.8,2.9,1.6,5.7,2.5,8.6c2.1,7.5,4.4,15.3,6.8,22.8c0.8,2.6,0.9,3.1-1.7,5.3l-0.4,0.4
		c-3.8,3.4-4.4,5.5-2.8,10.6l0.1,0.2l0.1,0.2c0.1,0.3,0.2,0.6,0.4,1c0.1,0.3,0.3,0.7,0.5,1.2l1.5,3.7l3.9-0.7c0.3,0,0.5-0.1,0.7-0.1
		c0.8-0.1,1.8-0.3,2.7-0.6c5.8-1.7,10.7-5,15.1-10.2c3.5,1.1,7,1.6,10.5,1.6c6.9,0,13.7-2.1,20.1-6.3c9.2-6,14.2-15.5,14.7-28.1
		c0.7-15.9-3.7-31.4-13-46.4c-4-6.4-9-10.7-15.4-13.1c-3.9-1.5-8-2.2-12.3-2.2c-4,0-8.3,0.6-13,1.9c-7,2-12.9,5.6-17.5,10.9
		c-2.4-1.2-5.1-1.8-8-1.8c-1.6,0-3.4,0.2-5.4,0.6c-0.4,0.1-0.9,0.1-1.3,0.2c-2.6,0.4-5.5,0.9-7.1,3.8c-1.7,3-0.6,6.3,0.7,9.7
		C250.6,58.3,251.4,59.1,251.8,59.4z M290.8,53.9c0.4-1.2,1.4-3.1,3.4-3.1c1,0,2.2,0.5,3.4,1.5c6.4,5.4,9.8,12.9,12.3,19.5
		c2.6,6.6,4.3,13.9,5.2,22.3c-0.2,1.3-0.3,2.6-0.5,3.8c-0.3,2.4-0.5,4.6-1,6.8c-0.6,2.5-2.4,4.1-4.7,4.1l-0.1,0
		c-0.9-0.1-1.6-0.4-2.2-1c-1.5-1.6-2.6-3.5-3.3-5.8c-1.7-5.7-3.5-11.8-5.7-19.3c-1.1-3.6-2.1-7.1-3.2-10.7
		c-1.1-3.5-2.1-7.1-3.2-10.7C290.3,58.3,290,56,290.8,53.9z"/>
	<path class="st0" d="M338.9,41.4c0.1,0,0.3,0,0.3,0l0.1,0c1.8,0.4,3.1,0.8,3.4,1.3c0.8,2.1,1.7,4.3,2.1,6.5
		c2.2,11.9,4.3,23.9,6.3,35.6c0.9,4.9,1.6,9.4,1.3,14c0,1.3-0.3,1.5-0.6,1.6c-3.7,1.7-5.2,5.3-3.9,9.3c0.1,0.2,0.2,0.5,0.2,0.7
		c0.2,0.6,0.4,1.5,0.8,2.3c1.2,2.9,3.7,4.6,6.7,4.6c0.4,0,0.8,0,1.2-0.1l0.2,0c4.2-0.8,9.6-2.3,13.9-6.8l0.1-0.1
		c0.7-0.8,1.5-1.6,2.2-2.3c1.3,0.6,2.7,1.2,4.1,1.5c2.8,0.7,5.6,1,8.3,1c6,0,11.9-1.6,17.7-4.8c1.9-1.1,3.8-2.2,5.6-3.4
		c0,0.1,0.1,0.1,0.1,0.1c1,1.8,2.9,3.8,6.6,3.8c0.3,0,0.6,0,0.9,0c6.1-0.5,8.5-3.2,8-9.4v-0.4l0-0.3c-0.8-7.5-1.7-15.3-2.6-21.9
		l0-0.1l0-0.1c-0.2-1-0.5-1.9-0.7-2.7c-0.1-0.3-0.2-0.6-0.3-0.9l-1.1-4.1l-4.2,0.5c-1.6,0.2-2.8,0.3-4.1,0.4l-0.2,0
		c-5.9,0.7-7.9,2.7-8.4,8.6c-0.6,6.1-3.3,10.6-8.4,13.8c-1.6,1-3.3,1.5-5,1.5c-3.4,0-6.1-2-7.3-5.4c-1.1-3.4-1.8-7-2.5-10.9
		c-0.1-0.7-0.2-1.3-0.3-2c0.8-0.1,1.7-0.1,2.5-0.2c0.1,0,0.2,0,0.3,0c0.9,0,1.6,0.2,2.5,1.4c1.2,1.5,2.9,3.8,6.2,3.8
		c1.4,0,2.5-0.4,3.8-0.9c0.8-0.3,1.6-0.7,2.3-1c0.3-0.1,0.6-0.3,0.9-0.4l4-1.8l-1.3-4.1c-1.6-5-3.7-8.6-7-11.6
		c-0.1-0.1-0.2-0.2-0.2-0.2c0-0.1,0.1-0.3,0.2-0.6c0.7-2.3,1.2-4.9,1.5-7.8c0.3-2.8,0.2-6.1-1.9-8.5c-1-1.1-2.8-2.4-5.8-2.4
		c-1.2,0-2.5,0.2-4.2,0.6l-0.2,0.1c-4.6,1.3-5.5,4.8-5.6,6.7c0,0.6-0.1,1.2-0.2,1.9c-0.1,0.8-0.2,1.6-0.3,2.4
		c-0.2,1.8-0.4,2.6-0.5,2.8c-0.2,0.1-0.6,0.3-1,0.4c-0.2-1.4-0.5-2.8-0.7-4.2c-0.4-2-0.7-4.1-1.1-6.1c-0.8-4.4,0.9-6.9,5.3-8.2
		c1.3-0.4,2.6-0.6,4-0.6c4.7,0,9.1,2.2,11.8,5.9c1.2,1.6,3.5,3.5,6.1,3.5l0.2,0c2.5-0.1,5-1.4,6.6-3.5c1.6-2,2.3-4.6,1.9-6.9
		c-0.5-3.4-1.2-6.7-1.9-9.9c-0.2-1.1-0.5-2.1-0.7-3.2l0-0.2c-0.9-3.6-3.3-5.3-5.1-6.1l-0.2-0.1c-1.6-0.6-3.1-1.2-4.8-1.2
		c-3.8,0-5.8,2.6-7,4.5c-0.5-0.1-1-0.2-1.5-0.3c-1.5-0.3-3.3-0.6-5.1-0.6c-0.5,0-1,0-1.5,0c-7.3,0-17.9,1-26.6,9
		c-3.5-1.8-7.3-2.7-11.6-2.7c-1.9,0-3.9,0.2-6.1,0.5c-2.2,0.4-5.8,2.3-5.8,5.9c0,2.2,0,4.7,0.7,7.1C333.2,39.4,335.3,41,338.9,41.4z
		"/>
	<path class="st0" d="M987.9,284.3c1.9,0,3.8,0.6,5.8,1.7c1.3,0.7,2.5,1.5,3.9,2.2c1,0.5,2,1.1,3,1.7l4.7,2.7l2.3-4.9
		c0.6-1.2,1.1-2.4,1.7-3.5c0.6-1.2,1.2-2.5,1.7-3.7c1.5-3.1,0.6-6.6-2.3-8.9c-5.5-4.7-11.3-7-17.6-7.3c-1.9-5-5.4-8.9-9.9-11.5
		c-0.6-0.4-1.2-0.7-1.7-1c-1.9-1.2-3.6-2.2-5.7-2.2c-4.3,0-6.2,3.6-8.2,7.5c-0.5,0.8-0.9,2-0.8,3.5v1.9l1.4,1.4
		c0.2,0.2,0.5,0.5,0.7,0.7c0.5,0.5,1,1,1.3,1.4c0.5,0.6,1,1.3,1.4,1.9c-0.2,0.1-0.4,0.2-0.5,0.3l-0.2,0.1c-3.9,1.9-7.9,3.9-12,5.8
		c-0.1-1.8-0.1-3.5-0.2-5.3c-0.1-3.4-0.2-6.7-0.3-10.1c0-0.6,0-1.2,0-1.8c1.2,0.5,2.2,0.9,3.5,0.9c3.6,0,5.1-2.7,6.1-4.5l0.1-0.2
		c0.1-0.2,0.2-0.5,0.4-0.7c0.2-0.3,0.3-0.6,0.6-1.1c2.7-5.7-0.3-8.9-3.3-10.5c-2.4-1.3-5.1-2.4-8-3.4c-1.5-0.5-3-0.8-4.6-0.8
		c-1.2,0-2.4,0.2-3.5,0.4c-2-6.2-6.5-10-10.4-12.7c-2-1.5-4-2.9-6.4-2.9c-0.6,0-1.1,0.1-1.6,0.2l-1.1-1.3c-3.3-3.8-7.3-4.7-10-5.1
		c-2.2-0.3-4.3-0.4-6.5-0.5c-2.2-3.4-5.2-5.6-8-7.3c-2.2-1.3-4-2.5-6.3-2.5c-1.3,0-2.3,0.3-3.2,0.8c-0.3-2.9-2.8-4.6-5.8-6.4
		l-0.2-0.1l-0.1-0.1c-0.5-0.2-1-0.5-1.3-0.7c-2.8-1.7-5.9-2.6-9-2.6c-2,0-4,0.3-6.1,1c-2.5-4.5-6.5-7.8-11.9-9.8
		c-2.2-0.9-3.7-1.4-5.4-1.4c-0.6,0-1.2,0.1-1.8,0.2c-0.5-1.2-1.6-2.6-3.7-3.6l-0.3-0.1c-3-1.4-6.5-3-10.6-3c-1.4,0-2.7,0.2-4,0.5
		c-3-4.2-7.3-6-11.5-7.4l-0.2-0.1c-0.7-0.2-1.4-0.3-2-0.3c-2.7,0-5.1,1.6-6.1,4.3c-0.2,0.4-0.3,0.8-0.5,1.2
		c-0.1,0.2-0.2,0.5-0.3,0.7c-1.7,3.7-0.8,7.3,2.5,9.9c0.9,0.8,1.7,1.8,2.7,2.9c-0.9,1.9-1.7,3.6-2.7,5.1c-2.4,3.6-4.8,7.1-7.2,10.7
		c0.3-3.9,0.5-7.9,0.7-11.9c0.3-7.1,0.3-14.1,0.3-21c0-5.2-2.2-7-6.2-8.4c-0.9-0.3-1.8-0.6-2.7-0.9c-0.9-0.3-1.8-0.6-2.7-0.9
		c-1.4-0.5-2.6-0.8-3.9-0.8c-3.7,0-5.5,2.7-6.6,4.5c0,0-0.5,0.8-0.8,1.2c0-0.1,0-0.2,0-0.3c0.5-5.3-1-7.7-5.9-9.6
		c-3.3-1.2-6.2-1.8-9-1.8c-2.8,0-5.4,0.6-7.8,1.7c-0.2,0.1-0.4,0.2-0.6,0.3c-0.8-1-1.5-2-2.3-2.9c-2.9-3.6-6.8-5.3-10.4-6.5l-0.2,0
		c-0.7-0.2-1.5-0.3-2.2-0.3c-1.1,0-2.1,0.3-3,0.8c-0.5-0.7-1.3-1.4-2.3-1.8c-1.4-0.7-3.5-1.5-5.7-1.5c-0.2,0-0.5,0-0.7,0
		c-2.4,0.2-5.7,0.5-8.9,1.2c-0.2,0-0.3,0-0.3,0c0,0-0.1,0-0.3-0.2c-2.6-1.6-5.9-3.6-9.6-4.5c-1.6-0.4-2.7-0.5-3.7-0.5
		c-6.3,0-6.9,6-7.1,8.6c-0.3,2.7,1.2,4.9,2.2,6.1c0.8,0.9,1.6,1.6,2.3,2.2c0.3,0.2,0.6,0.5,0.8,0.7c1.3,1.4,1.1,2.1,1,2.5l-0.1,0.3
		c-0.5,1.5-0.9,2.8-1.6,3.8l-0.1,0.1c-5.4,9.1-10.5,17.5-15.3,25.6c-1.2-8-2.4-16.1-3.6-24l-0.7-4.7c-0.3-1.8-0.4-3.8-0.2-5.6
		c0.1-1.2,0.4-2.3,2.8-2.4h8.2l0.6-5.8c0.1-1.4,0.3-2.8,0.4-4.1c0.3-3.8-2-6.8-5.7-7.6c-3-0.6-5.6-0.9-8.1-0.9c-4.5,0-8.4,1-12,2.9
		c-5-6.8-12.1-8-17.1-8.4c-0.4,0-0.8,0-1.2,0c-1.5,0-2.8,0.3-3.8,0.9l0-0.1l-2.1-0.7c-2-0.6-4-0.9-6.1-0.9c-4.3,0-8,1.3-11.1,2.9
		c-0.1-0.1-0.3-0.3-0.4-0.4c-2.6-2.6-5.9-4.3-9.7-5c-0.9-0.2-1.6-0.3-2.3-0.3c-2.9,0-4.6,1.6-5.3,2.5c-1,1.3-1.4,2.8-1.6,4.1l0,0.1
		c-0.2,1.5-0.3,3-0.4,4.8l-0.2,3l2.7,1.5c0.5,0.3,1,0.6,1.4,0.8c0.9,0.5,1.7,1,2.6,1.5c2.1,1.1,2.6,2.2,2.3,4.6
		c-1.1,8.5-2.1,17.2-3.1,25.5c-0.7,5.8-1.4,11.5-2.1,17.2c-0.1,0.8-0.3,2-0.7,2.9c-1.3,2.9-4.5,5.9-8.7,5.9c-2.2,0-4.4-0.8-6.6-2.5
		c-2.8-2.1-3.9-4.6-3.6-8c0.1-0.7,0.1-1.4,0.2-2.1c0.2-1.7,0.4-3.4,0.4-5.2c0-8.5,0.8-17.2,1.6-25.6c0.4-4.3,0.8-8.7,1.1-13
		c0.1-1.4,0.3-1.8,0.3-1.8c0,0,0.4-0.3,2-0.7l0.1,0c1.1-0.2,2.1-0.4,3.4-0.6l3.7-0.6l0.5-3.7c0.1-1.1,0.3-2.2,0.4-3.3
		c0.1-1.2,0.3-2.3,0.4-3.5l0.6-4.5l-4.4-0.9c-1.6-0.3-3.2-0.5-4.9-0.5c-2.9,0-5.5,0.5-7.7,1c-2.9,0.6-5.1,2.1-6.9,3.6
		c-4-4.4-9.6-6.5-16.9-6.5c-0.8,0-1.7,0-2.6,0.1l-4.1,0.3l0,0.3c-1.2-1.1-2.7-1.8-4.6-1.9l-0.2,0h-0.2c-3.3,0-5.8,1.2-7.3,3.7
		c0,0,0,0,0,0c-0.1,0-0.2-0.1-0.4-0.1c-0.4-0.2-0.9-0.4-1.3-0.5c-0.5-0.2-0.9-0.4-1.2-0.5l-0.2-0.1c-3.4-1.8-6.9-2.8-10.5-2.8
		c-3.5,0-7,0.9-10.4,2.7c-0.5,0.3-1,0.6-1.5,0.9c-2.4-2-5.4-3-8.7-3c-1.4,0-2.9,0.2-4.4,0.5l-0.2,0c-1.8,0.5-3.4,1.1-5,1.8l-0.1,0.1
		l-0.1,0.1c-1.1,0.5-2.1,1-3.2,1.6c-1,0.5-2,1-3,1.5c-1.2,0.6-1.9,0.7-2.4,0.7c-0.3,0-0.9,0-1.8-1.1l-0.1-0.1
		c-1.6-1.8-3.7-2.9-6-2.9c-1.1,0-2.3,0.2-3.4,0.7l-0.1,0.1c-1.9,0.9-4,2.8-3.8,6.9c0,0.1,0,0.2,0,0.2l0,0.2
		c0.3,8.9,0.7,18.1,1.1,25.5c0,3,1.4,5.4,3.7,6.3c0.5,0.2,1.1,0.5,1.7,0.9c1.8,1,4,2.2,6.9,2.5l4.8,0.5l0.6-4.8
		c0.1-0.6,0.2-1.1,0.2-1.6c0.4-1.5,0.7-3,1-4.5c0.5-2.5,1-4.9,1.7-7.1c1-3.1,3.4-4.8,5.3-5.7c0.1,3.7,0.3,7.3,0.5,11l0,0.6
		c0.4,7.5,1.2,24.2,1.2,24.2c0.1,2.8,0.3,5.6,0.4,8.4c0.1,2.8,0.2,5.7,0.4,8.5c0.1,1.5-0.3,2.8-2.2,4.4l-0.1,0.1
		c-0.1,0.1-0.3,0.2-0.5,0.3c-0.6,0.4-1.3,0.9-2.1,1.6c-1.7,1.7-2.6,3.6-2.6,5.5c0,1.9,0,5.4,2.9,8l1.4,1.3l2,0
		c6.6-0.1,12.4-2,17-5.8c3.7,2.6,7.7,3.9,12,3.9c0.8,0,1.5,0,2.4-0.1c1.6-0.2,5.4-1,6.3-4.6l0-0.2l0-0.2c0.4-2.5,0.5-4.8,0.1-6.9
		c-0.5-3.4-3.6-4.8-5.2-5.5l-0.1-0.1l-0.1,0c-2.6-1-2.8-1.2-2.9-4c-0.7-14.3-1.2-28.1-1.9-44.6l0-0.1c-0.1-1.5-0.2-2.8-0.1-4.2
		c0.1-1.9,0.7-3.1,3.6-3.9c0.4-0.1,0.7-0.2,0.9-0.2c0.2,0.2,0.7,0.7,1.7,2.1c0.3,0.5,0.5,0.8,0.7,1.1l0.1,0.1l0.1,0.1
		c2.1,3.6,2.9,7.8,3.5,11.8c0.1,1.1,0.3,2,0.5,2.8c0.1,0.4,0.2,0.7,0.2,1.1l0.9,5.5l5.3-1.6c6.7-2,10.5-6.8,10.4-13.3
		c-0.1-3.9-0.3-7.8-0.4-11.9c0.6,0.3,1.2,0.5,1.9,0.6c0.4,0.1,1.1,0.2,1.2,0.6c0.6,1.7,1.1,3.6,1,5c-0.4,10.8-1.1,22.2-2,36
		c-0.5,9.7,1.3,17.4,5.9,24c6.1,8.9,14.6,14,24.5,15c1.4,0.1,2.9,0.2,4.3,0.2c11.5,0,21.6-5,29-14.5c1.2-1.5,2.7-3.9,3.2-6.9l0-0.1
		c1.6-10.2,3.1-20.7,4.5-30.8l0.6-4.1c0.8-5.2,1.6-10.6,2.2-15.9c0.1-0.9,0.9-1.5,2-1.6l3.1-0.3l3-0.3c0.7,0.3,1.3,0.6,1.9,0.8
		c2.8,1.3,4.1,3.1,4.4,6c0.7,5.3,1.4,10.6,2.2,15.8c0.5,3.5,1,6.9,1.5,10.4c0.6,4.6,3.2,23.1,3.8,27.8c0.3,2.4,2.1,14.2,2.1,14.2
		l0,0.1c0.9,4.7,3.9,6.2,6.3,6.6c3.6,0.7,7,1.5,10.1,2.3l0.2,0c0.8,0.2,1.6,0.3,2.3,0.3c2.1,0,5-0.7,7.1-4.1c1.3-2,2.6-4.1,3.8-6.1
		c2.1-3.3,4.2-6.6,6.2-10c6.5-11.2,13-22.6,19.2-33.6l4.2-7.5c1.6-2.9,3.9-4.5,7.2-5c0,0,0.2,0,0.2,0c0.2,0,0.4,0,0.5,0
		c0.3,0,0.6,0,0.8,0c1.3,0,2.4-0.2,3.3-0.6c0.6,0.6,1.2,1.2,2,1.7c0.5,0.3,1.1,0.7,1,2.4c-0.1,0.5-0.1,1-0.1,1.6
		c0,0.4,0,0.8-0.1,1.2l0,0.2c-0.4,6.6-0.8,13.2-1.1,19.8c-0.4,6.6-0.7,13.2-1.1,19.7l0,0.2c-0.4,6-0.8,12.3-1.1,18.5
		c-0.1,2.4,0,4.9,0,7.3c0,1.2,0,2.4,0,3.7v3.7l3.6,1c1.9,0.5,3.8,1.1,5.6,1.6c1.5,0.5,3.1,0.9,4.7,1.4c1.1,0.3,2.1,0.6,3.2,0.6
		c3.6,0,5.3-2.7,6.2-4.3c3.5-5.7,7.1-11.4,10.6-17.1c0.9-1.4,1.7-2.8,2.6-4.2c0,1.3-0.1,2.6-0.1,3.9c-0.2,6.5-0.4,12.9-0.6,19.4
		c-0.3,7.1,1,9,7.7,11.5c1.7,0.6,3.4,1.2,5,1.8c0.8,0.3,1.6,0.6,2.5,0.8l3.6,1.2l2.1-3.1c1.9-2.8,3.9-5.7,5.8-8.4
		c3.2-4.6,6.2-9,9.2-13.6c4-6.3,8-12.9,11.8-19.2c2.6-4.3,5.2-8.5,7.8-12.8c1.3-2.2,2.6-4.3,4.1-6.2c0.9-1.2,1.6-1.3,2.4-1.3
		c0.3,0,0.5,0,0.8,0.1c0.3,0.1,0.5,0.1,0.8,0.2c1,0.3,2.2,0.6,3.6,0.6c0.5,0,1.1-0.1,1.6-0.2c0.6,1.1,1.6,2.2,3.3,3.3
		c2.9,2,4.4,4.6,4.8,8.2c0.4,4.3,1,8.6,1.5,12.8l0.2,1.3l2,16.5c-8.8,4.9-16,9.1-22.6,13c-1.8,1.1-3.3,1.6-5.1,1.6
		c-0.7,0-1.4-0.1-2.2-0.2c-1.8-0.4-3-0.6-4.2-0.6c-5.1,0-6.6,3.9-7.9,7.3l-0.4,0.9v0c-1.3,3.6,0.1,7.1,3.8,8.9
		c3.3,1.6,6.6,2.4,9.9,2.4c0.4,0,0.9,0,1.4,0l1.1-0.1c1.5,3.4,4,6.3,7.5,8.5c2.3,1.5,4.2,2.5,6.4,2.5h0c1.1,0,2.1-0.2,2.9-0.6
		c0.4,1.9,1.6,3.6,3.6,4.6c0.6,0.3,1.2,0.7,1.8,1c0.7,0.4,1.4,0.8,2,1.1c4.2,2.3,8.2,3.5,12,3.5c1.4,0,2.8-0.2,4.2-0.5
		c0.8,1.4,1.7,2.9,3.1,4.2c3.8,3.6,8.4,5.4,12.5,7l0.7,0.3c0.7,0.3,1.4,0.4,2.1,0.4c2,0,4.7-1,6-3.2c1-1.7,1.9-3.5,2.6-5.1
		c0.2-0.4,0.4-0.9,0.6-1.3l1.7-3.5l-3-2.4c-1.4-1.1-2.8-2.2-4.2-3.4c-1-0.8-1.5-1.6-1.7-2.7l0-0.1c-0.3-1.3-0.7-2.9-0.9-4.2
		c-0.3-3.2-0.7-6.4-1-9.6c-0.7-7-1.4-14.3-2.3-21.4c0,0,0,0,0-0.1c0.1,0,0.2-0.1,0.3-0.2c6.8-4,13.8-8.1,20.7-12.2
		c2.5-1.6,4.6-2.3,6.5-2.3c0.2,0,0.4,0,0.6,0c0.4,0,0.8,0,1.2,0c1.4,0,3.1-0.2,4.6-0.9c0.4,1.9,1.3,3.4,2.3,4.6
		c0.7,0.8,1.6,2.2,1.4,4.8c-0.3,4.2-0.1,8.2,0.1,12.2l1.2,27c0,0.4,0,0.6-0.1,0.7c-3.2,5.6-6.5,11.3-9.7,16.8l0,0.1
		c-0.5,0.8-1,0.9-1.4,0.9c-0.2,0-0.4,0-0.7-0.1l-0.2,0c-0.7-0.1-1.3-0.3-2-0.6c-1-0.4-2-0.7-3-0.7c-1.6,0-4.7,0.6-6.5,4.8
		c-0.3,0.7-0.6,1.4-0.8,1.9c-3,6.4-0.3,8.7,4.7,12.3l0.1,0.1c0.3,0.2,0.7,0.5,1.1,0.7c0.2,0.1,0.5,0.3,0.7,0.4
		c3.2,2.4,6.8,3.6,10.8,3.6c1.2,0,2.4-0.1,3.7-0.3c2.8,8.6,10.4,12.6,16.2,14.9l3.3,1.3l2.3-2.7c4.2-5,5.6-8.7,1.7-15
		c-1.9-3.2-2-5.7-0.4-8.6c1.3-2.1,2.3-4.2,3.3-6.2c0.3-0.5,0.5-1.1,0.8-1.6c0.8-1.5,1.4-2.7,1.9-3.7c0.7-1.5,1.1-2.2,1.4-2.4
		c0.6-0.5,2.3-1.3,4.8-2.5l1-0.5c7.7-3.7,15.4-7.4,22.9-11C984.5,284.7,986.2,284.3,987.9,284.3z M779.9,179.5
		c-2,3.4-4.1,6.8-6.2,10.1c-0.3,0.5-0.6,1-0.9,1.4l0.1-1.2c0.1-1.4,0.2-2.8,0.3-4.3c0.2-2.9,0.3-5.6,0.6-8.5c0-0.4,0.1-0.7,0.1-0.9
		c0.2,0,0.4-0.1,0.8-0.1c0.6,0,1.2,0,1.9,0c0.7,0,1.4,0,2.1,0c0.8,0,1.6,0,2.4,0h0.9C781.3,177.3,780.6,178.4,779.9,179.5z
		 M860.8,273.7c-1.1,0.8-1.7,0.8-2,0.8c-0.1,0-0.2,0-0.3,0c-0.8-0.1-1.5-0.2-2.1-0.2c-0.7,0-1.4,0.1-2,0.3c-0.2-1.5-1-3-2.7-4.8
		c0.1-0.1,0.3-0.2,0.4-0.3l7.9-4.4c0.3,2.8,0.6,5.7,0.9,8.5C860.9,273.6,860.9,273.6,860.8,273.7z M884.9,226.4
		c0-0.3-0.1-0.6-0.1-0.9c-0.1-1.1-0.3-2.1-0.4-3.2c-0.2-1.6-0.4-3.1-0.6-4.7c0.3,0.1,0.6,0.2,1,0.3l3.8,1.3c0.5,1.2,1.4,2.3,2.8,3.6
		C889.2,224,887.1,225.2,884.9,226.4z"/>
	<path class="st0" d="M422.8,26.7c1.2,0.5,1.8,1.2,2.3,2.2c1,2.4,1.6,5.2,1.9,9c0.5,5,1,10.2,1.6,15.4c0.5,4.3,1.1,8.5,1.7,12.8
		c0.6,4.3,1.1,8.5,1.7,12.8c0.3,2.3,0,4.6-0.9,6.9c-0.3,0.8-0.7,1.8-1.2,2c-4.7,2.5-5.2,5.4-4.4,9.3l0,0.2l0,0.2
		c0.3,1,0.6,2.1,0.8,3.2l0.9,3.6l3.7,0.1c0.2,0,0.5,0,0.7,0c0,0,0,0,0,0c7.2,0,13.5-2.6,19.4-7.9c3.9,2.6,8.7,4.1,14,4.5
		c0.7,0,1.5,0.1,2.2,0.1c1,0,3.8,0,5.8-2.1c2.1-2.2,1.9-5.2,1.8-7.8c-0.4-6.9-1.9-8.7-8.6-10.6l-0.2,0c-0.1,0-0.2,0-0.3-0.1
		l-0.2-0.1l-0.3-0.1c-3.5-1.3-3.8-3-3.9-3.7c-0.9-4.4-1.5-8.9-2.2-13.3c-0.1-0.7-0.2-1.5-0.3-2.2c2.6,0.2,3.6,1.2,4.5,2.7
		c0.8,1.5,3.1,3.9,6.1,3.9h0.2l0.2,0c0.3,0,0.7,0,1-0.1c2.1-0.1,5.3-0.3,8.1-2.8l1.9-1.7l-0.3-2.6c-0.6-4.4-2.3-8.3-5.2-12.1l0,0
		c0.3-0.6,0.8-1.3,1.1-2.2c0.8-2.3,1.8-5.1,1.7-8.4c1,0.6,2.2,1,3.7,1c2.4,0,4.5-0.9,6.1-1.6c0.6-0.2,1.1-0.5,1.6-0.6l1.1-0.4
		l0.5-0.5L493,35c-0.6,2.7-1,5.4-1.2,8.3c-0.9,13.7,1.6,25.4,7.8,35.8c4,6.7,9.5,11.9,16.3,15.5c4.3,2.3,9,3.4,14,3.4
		c3.3,0,6.7-0.5,10.3-1.4c2.4-0.6,4.6-1.5,6.8-2.3c0,0,0,0,0.1,0.1c1.2,1.6,3.4,3.3,6,3.3l0.1,0c2.4-0.1,4.8-0.3,7.3-0.5
		c1-0.1,2.1-0.2,3.2-0.3l4.5-0.4l0-8.4c-0.1-3.8-0.2-7.6-0.2-11.4c-0.1-3.8-0.1-7.7-0.2-11.5c-0.1-5.2,1.8-7,3.8-8.1l0.4-0.2
		l0.3-0.3c2.3-1.8,3.3-4,3-6.2c-0.1-0.5-0.1-1-0.1-1.4c-0.1-2-0.3-4.5-1.8-7l-1.4-2.3l-2.7-0.1c-0.2,0-0.4,0-0.5,0
		c-5.3,0-10.1,1.5-14.4,4.5c-3.5-2.5-7.4-3.5-11-4.5l-0.1,0c-1.7-0.5-3.2-0.6-4.6-0.6c-0.5,0-1.1-0.1-1.6-0.1l-4.7-0.5l-0.7,4.7
		c-0.2,1.7-0.3,2.8-0.3,3.9c0,0.2,0,0.5,0,0.8c0,1.7-0.1,4,1.1,6.1c1.3,2.5,3.8,3.2,5.1,3.6c0.2,0.1,0.4,0.1,0.6,0.2
		c2.1,1,3.2,1.8,3.2,2.3c0.4,5,0.7,10.1-0.4,14.8c-0.4,1.5-1.1,2.4-2.5,3.4c-0.9,0.5-2.1,0.8-3.5,0.8c-3.2,0-6.3-1.5-7.8-3.8
		c-1.3-2.1-2.4-4.5-3-7.1c-2.2-9.3-2.8-19.1-1.8-30c0.4-4,1.2-7.4,2.5-10.3c1.5-3.3,3-5.2,4.6-5.8c2.6-1.1,4.9-1.6,7-1.6
		c1.9,0,3.6,0.4,5.4,1.4c3,1.5,5.2,3.9,6.8,7.5c0.8,1.7,1.6,3.4,2.5,5.2l2,4l4.2-1.6c0.5-0.2,1.1-0.3,1.9-0.5c2-0.5,4.6-1.1,7-3.4
		l1.9-1.9l-0.6-2.7c-0.7-3.1-1.5-6.1-2.3-9.2c-0.8-3-1.5-6.1-2.2-9.1l-0.1-0.3c-0.3-1.3-1.3-4.7-5.4-5.7l-0.1,0
		c-2.5-0.5-4.9-1-7.5-1.5l-4.6-0.9l-0.6,2.7c-4-1.3-8.3-2-13.1-2c-0.7,0-1.3,0-2,0c-10.8,0.4-20,5-27.3,13.5
		c-4.4,5.2-7.4,10.9-9.1,17.4v-1.7l0-0.2c0.1-0.7,0.2-1.8-0.2-3.1c-1.4-5.7-2.8-11.6-4.3-17.4c-1-3.6-4.4-6.2-8.4-6.2
		c-2.4,0-4.6,0.9-6.2,2.6c-0.5,0.5-0.9,1-1.4,1.5c-0.4-0.2-0.7-0.3-1.1-0.5c-1.9-0.8-4-1.7-6.2-2.1c-2-0.4-4-0.7-5.9-0.7
		c-6.1,0-12.1,2.2-17.9,6.4c-0.3,0.3-0.6,0.4-0.6,0.4c-0.1,0-0.3-0.1-0.6-0.2c-4-1.7-8.5-2.5-13.3-2.5c-1.1,0-2.2,0-3.4,0.1
		c-2.8,0.1-6.6,1.9-6.9,5.5c-0.2,2.1,0,4.4,0.7,6.5C418.4,24,420.1,25.6,422.8,26.7z M461.9,24.2c1.8,0,3.4,0.4,4.5,1.2
		c2.1,1.5,3.9,3.4,5.8,5.4c-0.8,0.1-1.7,0.1-2.5,0.2c-0.7,0.1-1.5,0.1-2.3,0.2c-3.3,0.2-5.8,2.2-7,5.3c-0.6,1.5-1.2,2.8-1.9,4.1
		c-0.5,0.9-1.1,1.4-1.9,1.6c-0.3-2.4-0.5-4.7-0.7-7.1c-0.3-2.9-0.6-5.7-0.9-8.6C456.8,25,459.4,24.2,461.9,24.2z"/>
	<path class="st0" d="M207.4,149.9c6,3.5,12.2,5.3,18.6,5.3c3.1,0,6.2-0.4,9.3-1.2c11.1-2.8,19.9-9.2,26.2-19.1
		c4-6.2,5.8-13.4,5.4-22.1c-0.1-3.7-0.4-10-8-10c-0.9,0-2,0.1-3,0.2l-0.1,0c-4,0.5-6.3,1.6-7.1,6.6l0,0.3c-0.2,1.3-0.4,2.6-0.5,4
		c-0.3,2.5-0.6,4.9-1.2,7.1c-0.9,3.9-2.7,6.7-5.4,8.4c-2.2,1.3-4.7,2-7.3,2c-2.7,0-6.7-0.8-10.3-4.4c-2.4-2.4-4.1-4.5-5.5-6.7
		c-2.8-4.3-4.7-7.7-5.9-10.9c-1.6-4.3-2.5-9.3-2.7-15.3c-0.1-4.9,0-10,2.2-14.3c1.5-2.9,4.6-4.7,8.1-4.7c1.6,0,3.1,0.4,4.4,1.2
		c3.9,2.4,7.3,5.7,10.3,8.9c0.2,0.2,0.4,0.5,0.6,0.8c1,1.3,2.5,3.3,5.1,3.9c0.5,0.1,1,0.2,1.5,0.2c1.9,0,3.4-0.7,4.6-1.3
		c0.3-0.2,0.7-0.3,0.9-0.4c0.8-0.3,1.4-0.7,1.7-0.9c0.1,0,0.1-0.1,0.2-0.1l3-1.8l-0.8-3.4c-0.1-0.2-0.1-0.5-0.1-0.7
		c-0.1-0.7-0.3-1.5-0.6-2.5c-0.5-1.5-1.1-3.1-1.7-4.6c-0.6-1.5-1.1-3-1.6-4.5c-1.5-4.2-3.1-8.3-4.6-12.4c-0.5-1.4-1.9-5.3-6.4-5.3
		c-0.9,0-1.7,0.2-2.8,0.4c-2.7,0.6-6.9,2.2-8.4,6.3c-0.1,0-0.1,0-0.2,0c-1.6-0.2-3.3-0.3-5-0.3c-0.3,0-0.7,0-1,0
		c-13.2,0.5-23.8,6.2-30.7,16.7c-4.5,6.9-6.9,15.1-7,24.4c-0.1,13.6,3.8,25.9,11.8,36.8C196.9,141.1,201.3,146.4,207.4,149.9z"/>
	<path class="st0" d="M712.8,95.9c3.5,10.1,10.4,16.9,19.9,19.7c4.7,1.4,9.8,2.3,15.1,2.7c0.7,0,1.4,0.1,2,0.1
		c13.6,0,25.1-7.6,30-19.9c1.6-4,2.9-8.3,4.1-13.7c1.6-7.1,3-14.4,4.4-21.4c0.5-2.7,1.1-5.3,1.6-7.9c0.4-2,1-2.5,3.1-2.6
		c6.9-0.7,8.7-2.5,9.6-9.3l0-0.1c0.1-0.4,0.2-1,0.2-1.7c0.6-5.3-1.9-7.1-5.8-8.2l-0.2,0c-1.7-0.5-3.4-0.7-5.1-0.7
		c-3.4,0-6.8,0.9-10.3,2.7c-0.2,0.1-0.4,0.2-0.6,0.3c-0.1-0.1-0.6-0.6-0.6-0.6l-0.2-0.1c-0.1-0.1-0.2-0.2-0.3-0.3
		c-0.2-0.2-0.6-0.6-0.9-0.9c-5-4.5-11.2-7.1-19.1-7.8l-3.4-0.3l-1.5,3.1c-3.4,7.1-2.7,10.7,3.3,15.2l0.1,0.1l0.1,0.1
		c0.5,0.3,0.9,0.6,1.3,0.9l0.1,0.1c1.2,0.9,1.9,2,1.4,4.3c-1.5,7.1-2.9,14.3-4.4,21.4c-1.4,7.1-2.9,14.3-4.4,21.3
		c-1.1,5.1-4.7,8.6-9.5,9.2c-0.3,0-0.6,0.1-0.9,0.1c-1.2,0-2.3-0.4-3.3-1.1c0,0-0.1-0.1-0.2-0.2c0.2-0.1,0.3-0.2,0.5-0.4l0.3-0.3
		c6.6-5.2,8.2-13.5,4-20.6c-3.1-5.3-8.3-8.4-14.1-8.4c-2.4,0-4.7,0.5-6.8,1.5C714.4,75.9,709.8,87,712.8,95.9z"/>
</g>
<g id="Layer_2">
</g>
<path id="M" d="M947.8,174.1c1.2,0.3,2.2,0.5,3.1,0.8c4.8,1.3,8.9-0.6,11-5.4c3-6.8,6-13.6,8.9-20.4c3.2-7.4,6.6-14.7,9.8-22.2
	c0.2-0.5,0.4-1,0.6-1.5c2.6-6.2,2.1-9.5-2.8-14c-1.3-1.2-1.7-2.2-0.8-3.7c0.9-1.6,1.6-3.3,2.5-5.3c0.9,0.3,1.7,0.4,2.4,0.7
	c7.3,3.7,14.5,7.5,21.9,11.1c1.7,0.9,2.5,1.9,2.5,3.8c0.1,3.5,0.6,7.1,1,10.6c1.1,9.5,2.2,18.9,3.1,28.4c0.2,1.5,0.4,2.8,0.7,4.6
	c13.5-7.2,26.8-14.1,40.4-21.3c6.6,4.6,13.2,9.4,20.1,14.2c-1.2,2.5-2.2,4.7-3.2,6.9c-0.6,1.2-1.5,1.7-2.7,1.6
	c-1.7-0.2-3.3-0.3-5-0.3c-2.1,0-3.6,1-4.5,2.8c-4.1,8.3-8.2,16.7-12.5,25.1c-2.7,5.7-5.3,11.5-8.3,16.9c-2.6,4.8-2,9,1.3,12.7
	c2.4,2.6,2.5,4.8,0.5,7.5c-0.3,0.4-0.5,1-0.7,1.4c-0.7,1.2-1.5,1.5-2.8,0.9c-6.1-2.5-10.3-6.7-12.8-12.7c-1-2.5-1.1-2.4-3.6-2.4
	c-6.2,0-12.1-1.4-17.5-4.4c-1.8-1-2-1.5-1.2-3.2c0.4-0.9,0.9-1.7,1.3-2.5c0.6-1.3,1.6-1.8,3-1.8c2.3-0.1,4.6-0.3,6.9-0.8
	c3.4-0.8,6.1-2.6,7.7-5.9c4.5-8.7,9-17.6,13.4-26.3c0.5-0.9,0.9-1.9,1.6-3.3c-1.1,0.3-1.7,0.4-2.1,0.7c-7.6,4-15.1,8.1-22.8,12.1
	c-3.5,1.9-7.3,3.3-10.9,4.9c-0.5,0.2-1,0.2-2,0.4c-2.5-15.6-4.1-31.1-6.5-46.8c-0.9,1.7-1.8,3.3-2.5,5.1
	c-4.6,10.2-9.1,20.5-13.6,30.8c-1.7,3.8-1.5,7.6,1.2,11c0.3,0.3,0.4,0.8,0.7,1.1c2.7,2.6,2,5.4,0.3,8.2c-0.7,1.3-1.4,1.6-2.7,1.1
	c-4.2-1.4-7.5-4.2-10-7.7c-1.3-1.8-2.6-2.3-4.7-2.5c-3.4-0.4-6.8-1.1-10.1-2c-2.5-0.7-2.6-1.5-1.8-3.7
	C946.1,177.7,946.9,176.1,947.8,174.1z M1045.4,159.2c-2.3-0.2-3.1,0.6-3.8,2c-3.7,7.8-7.6,15.6-11.5,23.3
	c-2.6,5.2-5.5,10.3-8.3,15.4c-1.3,2.3-3.1,3.8-5.7,4.6c-0.7,0.2-1.3,0.8-2.3,1.4c4.8,0.8,8.7-1.3,10.8-5.3
	c5.9-11.6,11.8-23.1,17.6-34.7C1043.3,163.8,1044.3,161.6,1045.4,159.2z M993.2,126.3c0.1,2.8,0.2,5,0.4,7.2c1,10.6,2.1,21.3,3,31.9
	c0.3,2.6,0.4,5.2,0.7,7.8c0.1,1.1,0.3,2.1,0.7,3c0.2,0.4,0.9,0.8,1.5,0.8c0.2,0,0.8-0.7,0.8-1.1c0-1.2-0.2-2.3-0.3-3.4
	c-1-9.7-2-19.3-2.9-29c-0.4-4.3-0.8-8.5-1.3-12.8C995.6,129.2,995.6,127.5,993.2,126.3z"/>
<path id="W" d="M802.4,224.4c1.6-2.4,3-4.7,4.7-7c4.2-6.2,8.4-12.3,12.6-18.4c1.4-2.1,2.5-4.4,3.5-6.7c0.6-1.2,0.4-2.5-0.5-3.5
	c-1.3-1.6-2.5-3.1-4-4.4c-1.6-1.2-1.9-2.4-1.1-4c0.3-0.7,0.5-1.4,0.8-2.1c0.4-1.1,1.2-1.4,2.3-1.1c3.6,1.2,7.2,2.6,9.3,6
	c1.2,1.8,2.5,2.4,4.5,1.7c4.4-1.5,8.2,0.4,12.1,2.2c1.3,0.6,1.9,1.6,1.2,3c-0.1,0.2-0.1,0.4-0.2,0.6c-0.7,1.5-1.1,3.5-2.3,4.3
	c-1,0.6-2.9-0.2-4.4-0.5c-3.3-0.6-6.1,0.5-8,3.1c-1.6,2.1-2.9,4.3-4.3,6.6c-6.6,10.6-12.9,21.4-19.6,31.9
	c-4.7,7.4-9.8,14.3-14.9,21.9c-2.5-0.9-5-1.7-7.4-2.5c-4.7-1.8-4.7-1.8-4.5-6.8c0.4-13,0.9-26,1.3-39c0-0.4,0-0.8,0-1.9
	c-0.8,0.9-1.3,1.3-1.6,1.9c-7.1,11.4-14.1,22.8-21.2,34.2c-1.4,2.3-1.5,2.3-4,1.6c-3.4-1-6.8-2.1-10.3-3c0-3.7-0.1-7.3,0-10.8
	c0.3-6.2,0.7-12.4,1.1-18.5c0.8-13.1,1.5-26.4,2.3-39.5c0.1-1,0.1-1.9,0.2-2.8c0.2-2.9-0.8-5.4-3.3-7c-1.4-0.9-1.8-1.9-1.3-3.4
	c0.5-1.5,0.8-3,1.2-4.6c0.3-1.2,1.1-1.8,2.4-1.4c3.1,1.1,6.1,2.4,8.2,5c1.2,1.5,2.4,2.9,3.4,4.5c0.8,1.1,1.6,1.3,2.7,0.7
	c0.9-0.4,1.7-0.8,2.5-1.2c4.4-2.1,8.8-1.4,13.1,0.2c2.8,1.1,3,1.5,2.7,4.5c-0.1,1.1-0.4,2.2-0.6,3.2c-2.4,0-4.5-0.1-6.6,0
	c-3.7,0.2-5.3,1.8-5.6,5.5c-0.4,4.3-0.6,8.5-0.9,12.8c-0.4,6.1-0.8,12.2-1.2,18.2c0,0.4,0.1,0.8,0.6,1.4c1.4-2.3,2.7-4.5,4.2-6.8
	c4.1-6.8,8.3-13.6,12.5-20.4c2.5-3.9,4.8-7.8,7.3-11.8c1.7-2.5,2-2.6,4.9-1.7c1.8,0.6,3.6,1.2,5.4,1.8c2.5,0.9,2.8,1.1,2.8,3.7
	c0,7,0,13.8-0.3,20.8c-0.4,7.8-1,15.7-1.6,23.5c-0.1,1.9-0.3,3.7-0.4,5.6C801.9,224.2,802.2,224.3,802.4,224.4z M751.5,239.1
	c0.1-0.7,0.2-1.1,0.2-1.6c0.6-9.1,1.2-18.1,1.9-27.3c0.9-12.7,1.9-25.5,2.8-38.2c0.1-1.9-0.4-3.3-2.1-4.9c-0.2,0.8-0.4,1.2-0.4,1.6
	c-0.6,9.5-1.2,19-1.8,28.5c-0.5,8.1-1.1,16.3-1.7,24.4c-0.3,4.5-0.6,9-0.9,13.4C749.6,236.8,749.6,238.2,751.5,239.1z M791,185.6
	c-2,1.3-1.7,2.8-1.8,4.2c-0.5,11.1-0.9,22.2-1.3,33.2c-0.3,8-0.6,16.1-0.9,24.1c-0.1,1.5,0,2.8,2.2,3.5c0.8-21.2,1.5-42.2,2.2-63.2
	C791.5,187.1,791.2,186.5,791,185.6z"/>
<path id="Q" d="M306.1,259.4c-1.1,0.7-2.1,1.4-3.2,2c-5.1,2.5-10.5,3.4-16.2,2.7c-9.1-1-16.5-5-22.6-11.9c-1.8-2-3.7-3.6-5.4-5.7
	c-5.4-6.7-8.5-14.4-9.4-22.9c-0.4-3.7-0.7-7.6-0.8-11.3c-0.3-8.4,2.7-15.8,7.1-22.8c2.3-3.6,5.9-6,9.4-8.2
	c7.4-4.7,15.3-7.1,24.1-6.8c7.9,0.3,14.4,3.6,19.9,8.8c12,11.2,17.5,25.2,17,41.4c-0.2,6.4-0.5,12.8-3.8,18.6c-1,1.8-2,3.4-2.9,5.2
	c-0.6,1.1-1.3,2.1-1.9,3.1c4.9,4.1,10.5,2.9,12.7-2.5c0.9-2,1.6-4.1,2.4-6.2c0.6,0.1,1,0,1.4,0.1c8.5,4.2,10,16.3,2.8,22.3
	c-4.1,3.4-9,4-13.9,3.1c-5.8-1-10.9-3.7-15-7.9C307.2,260.3,306.7,260,306.1,259.4z M304.3,243.8c1.6-3.1,1.9-4.4,1.6-8.2
	c-0.8-11.9-3.4-23.2-8.1-34c-2.5-5.6-6.2-10.5-11-14.3c-4.8-3.8-12.4-2.6-15.3,2.5c-1.3,2.3-2.1,4.8-2.5,7.4
	c-1.2,8.3,0.5,16.6,2.6,24.5c2.5,9.1,6.8,17.6,12.3,25.3c1.3,1.9,3,3.4,4.8,4.9c2.8,2.3,7.2,2.5,9.9,0.5c-3.5-3.5-7.3-6.9-9.2-11.8
	c2.1-1.5,3.5-3.7,6-4.5C298.8,237.9,299.8,242.7,304.3,243.8z M293.1,185.1c-0.3,0.3-0.6,0.6-1,0.9c3.5,3.8,6.2,8,8.2,12.7
	c2.1,4.7,4.5,9.3,6,14.1c1.5,5,2.4,10.2,2.8,15.4c0.5,5,0.1,10.1,0.1,15.1c0.3,0.1,0.5,0.1,0.8,0.2c0.3-0.7,0.7-1.4,0.8-2.1
	c0.3-2.9,0.6-5.8,0.8-8.7c0.5-8.6-1.2-17-3.6-25.1c-2.3-7.7-6.1-14.7-12.1-20.4C295.1,186.4,294.1,185.9,293.1,185.1z M255.6,196.1
	c-0.3,0.4-0.6,0.8-0.8,1.2c-1.4,3.2-1.6,6.7-2,10.1c-1.1,9,0.5,17.5,4.4,25.6c3.9,8.1,8.8,15.5,16.2,20.9c0.9,0.6,1.7,1.5,2.9,1.4
	C260.7,238.5,251.4,219.8,255.6,196.1z M332.6,253.2c-0.9,1.3-3.1,1.7-2.5,4.2C331.7,256.3,333.5,255.7,332.6,253.2z"/>
<path id="K" d="M848.1,52c-0.4,1.5-0.7,2.5-0.8,3.3c-0.2,1.5-1.1,2.4-2.5,2.5c-5.5,1-8.2,4.9-9.7,9.7c-1.7,5.5-2.7,11.2-4.1,16.8
	c-0.1,0.5,0,1,0,1.8c3.5-2.2,6.8-4.1,10.1-6.2c3.3-2.1,6.7-4,9.9-6.1c1.5-1,2.9-2,4.3-3.1c2.5-2.1,2.9-4.3,0.7-6.6
	c-2.6-2.6-1.7-4.9-0.2-7.7c5.2,0.7,9.9,2.5,13.9,5.7c1.1,0.9,2,1.3,3.3,1.2c1.8-0.2,3.5-0.2,5.3,0c3,0.2,4.8,1.2,7.8,3.8
	c-0.8,2.3-1.7,4.7-2.5,7.2c-0.6,0-1.1,0.2-1.5,0.1c-5-1.8-9.2,0-13.4,2.5c-3.4,2.1-6.8,4.2-10.2,6.3c-2.1,1.3-2.1,1.2-1.6,3.7
	c2.2,13,4.3,26.1,6.6,39c0.8,4.2,1.1,8.6,4.2,12c1.2,1.3,2.6,2.5,3.7,3.7c0.6,0.7,1.4,1.9,1.3,2.6c-0.4,1.7-1.3,3.2-2.3,4.7
	c-0.3,0.4-1.6,0.3-2.4,0.1c-5.7-1.3-10.7-3.8-14.4-8.3c-1.9-2.4-3.5-2.5-6.1-1.6c-4.7,1.5-9.3,0.8-13.6-1.8c-2.3-1.3-2.4-1.6-1.7-4
	c0.2-0.8,0.6-1.6,0.7-2.5c0.3-1.6,1.3-2.4,2.8-2.5c0.1,0,0.2,0,0.3,0c4.2-0.9,5.3-2.5,4.5-6.7c-0.7-3.5-1.4-7-1.9-10.5
	c-0.6-4-0.9-8.1-1.3-12.2c-0.1-0.7-0.2-1.4-0.5-2.6c-1.7,1.1-2.9,2.3-4.4,2.8c-5.4,2.1-7.6,6.2-8.1,11.6c-0.1,1.3-0.5,2.5-0.7,3.7
	c-1.2,5.7,0,8.2,5,11.1c0.4,0.2,0.7,0.5,1.3,0.9c-0.5,1.4-0.9,2.7-1.4,4.1c-0.5,1.4-1.1,2.7-1.6,3.9c-5.1-0.1-10.6-3.7-15.7-10.1
	c-3.2,0.8-6.5,1.7-9.7,2.3c-3,0.6-6.1,0.1-8.9-1.2c-2.6-1.2-2.9-1.8-2.4-4.6c0.1-0.5,0.2-1,0.3-1.6c0.3-1.5,1.1-2.5,2.7-2.4
	c0.2,0,0.4,0,0.6,0c5-0.6,8-3.2,9.2-8c3.5-14.2,7.2-28.4,10.7-42.7c0.5-2,0.8-3.9,1.5-5.8c1.4-3.9-0.6-6.7-3.2-9.1
	c-0.6-0.6-1.4-1-2-1.4c-0.1-0.3-0.3-0.5-0.3-0.7c0.5-6.1,1.2-6.5,6.9-4.7c4.5,1.4,8.5,3.5,11.4,7.5c0.8,1.1,1.8,1.2,3,0.8
	c3.8-1.3,7.7-2,11.8-1.6C845.1,51.4,846.5,51.7,848.1,52z M821.6,54.9c-0.1,0.1-0.3,0.1-0.4,0.2c-0.2,1.9-0.3,3.7-0.7,5.5
	c-1.6,7-3.2,13.8-5,20.8c-2,8.1-4.1,16.3-6.1,24.4c-0.8,3.1-1.4,6.4-3.7,8.8c-0.1,0.2,0,0.5,0,1.1c2.4-1.2,3.6-2.9,4.3-5
	c0.9-2.6,1.8-5.4,2.5-8.1c3.1-12.4,6.4-24.7,9.4-37.2c0.6-2.5,0.7-5,0.8-7.5C822.6,56.9,821.9,55.9,821.6,54.9z M844.1,131.3
	c0.4-0.3,0.9-0.5,1.2-0.9c1.8-2,2.2-4.3,1.9-6.8c-0.8-8-1.7-16-2.6-24c-0.2-1.5-0.6-2.8-1-4.2c-0.1-0.3-0.7-0.8-0.9-0.7
	c-0.4,0.1-1,0.6-1,0.9c-0.1,1.1,0,2.1,0.1,3.1c0.8,6.1,1.6,12.3,2.5,18.3C845,121.7,845.4,126.4,844.1,131.3z"/>
<path id="N" d="M124.7,356.8c-1.8,1.7-3.1,2.9-4.6,4.3c-1.2,1.1-2.6,1.1-4.1,0.7c-3.7-0.8-7.4-1.6-11.1-2.4
	C92,356.7,79,354,66.2,351.3c-2.9-0.6-5.9-1.4-9.6-2.2c0.9,1.5,1.3,2.3,1.8,2.9c5.7,7.3,11.5,14.4,17.3,21.7c2.5,3,7.8,3.8,11.5,1.6
	c2.5-1.6,2.5-1.5,4.2,0.8c2.3,3,2.3,3.6-0.4,6.5c-2.8,2.8-5.9,5.5-10.2,5.4c-1.8,0-2.4,1-2.7,2.5c-0.9,3.2-2.5,6-4.6,8.5
	c-1.9,2.4-3,2.5-5.1,0.3c-1.7-1.8-2.5-3.6-1.3-6.2c1.7-3.7,1.2-7.4-1.5-10.6c-7.4-8.9-14.6-17.8-21.9-26.8c-2.5-3.1-5.1-6.4-7.6-9.6
	c-3.3-4.2-7.5-6.9-13-5.7c-2,0.4-3.8,1.6-6.1,2.5c-1.6-1.9-3.2-3.9-5.2-6.3c0.6-0.7,1.2-1.5,1.9-2.1c3.8-3.2,7.8-6.4,11.5-9.7
	c2-1.9,4.1-2.3,6.6-1.9c5.6,1,11.2,1.8,16.8,2.8c12.7,2.5,25.5,5.3,38.1,7.9c1.8,0.4,3.4,0.6,5.8,0.9c-0.8-1.3-1.3-2.1-1.8-2.7
	c-5.8-7.7-11.5-15.5-17.4-23.1c-0.8-1.1-2-1.9-3.1-2.5c-2.4-1.4-4.8-1.3-7.2,0c-1.4,0.8-2.5,0.4-3.2-0.8c-0.9-1.2-1.8-2.4-2.4-3.7
	c-0.3-0.6,0-1.8,0.4-2.2c2.5-2,4.9-3.9,7.6-5.6c1-0.6,2.5-0.5,3.6-0.4c1.6,0.1,2.6-0.1,3.2-1.7c1.4-3.7,4.6-5.9,7.6-8.2
	c1.2-1,2.4-0.8,3.2,0.4c1.1,1.5,2,2.9,2.8,4.5c0.8,1.4-0.2,2.5-0.9,3.4c-3.9,5.4-3.8,5.5,0.2,10.8c12.1,16,24,32.1,35.9,48.1
	C122.1,352.7,123.3,354.6,124.7,356.8z M112.5,355.4c-0.5-0.4-0.9-1-1.4-1.1c-21.7-5-43.3-10-65.3-15c0.8,1.9,0.8,2,1.9,2.3
	c2.5,0.7,5,1.5,7.6,2.1c8.6,2,17.2,3.7,25.8,5.7c9.6,2.2,19.2,4.4,28.8,6.7C110.7,356.2,111.6,356.6,112.5,355.4z"/>
<path id="R" d="M379.4,235.7c-6.4,2.5-12.5,2.1-18.7-0.8c-0.6,0.8-1.1,1.4-1.5,2.1c-3.1,4.6-7.6,7.2-12.8,8.3
	c-2.8,0.7-2.9,0.2-4-2.5c-1.2-3-1.5-5.2,1.9-7.4c2.6-1.7,3.3-4.6,2.4-8c-3.8-13.7-7.5-27.6-11.2-41.3c-0.9-3.4-1.9-6.9-2.8-10.3
	c-1.1-3.9-3.5-5.5-7.6-4.8c-0.6,0.1-1.3,0.2-1.9,0.3c-0.2,0-0.4-0.1-0.8-0.1c-1.7-2.1-1.6-4.6-1.6-7.1c0-0.7,1-1.7,1.7-2.1
	c6.3-3.1,12.6-4.4,19,0c2.1,1.5,2.3,1.4,3.8-0.6c5.7-7.3,13.2-10.8,22.4-12.1c6.5-0.9,12.3,0.1,17.8,3.2c1.6,0.9,3.1,1.9,4.2,3.1
	c3.2,3.6,5.7,7.7,7.3,12.5c1.8,5.4,1.3,10.6-0.8,15.7c-1.2,3-3.2,5.4-6.2,7c-1.3,0.7-2.5,1.5-4.3,2.5c1.2,0.6,1.9,1,2.5,1.2
	c4.7,1.1,8.4,3.6,11.3,7.5c1.7,2.3,3.5,4.4,5.3,6.7c0.5,0.7,1.1,1.3,1.7,1.9c3,3,6.5,2.5,8.4-1.3c0.9-1.8,1.5-3.6,2.4-5.8
	c0.8,0.7,1.4,1.1,1.8,1.6c3.6,5.2,3.6,11.6-0.1,16.8c-4.8,6.8-10.4,8.2-18.5,6c-5.3-1.5-9-5.2-12.3-9.4c-3.3-4.3-6.5-8.7-9.9-13
	c-2.7-3.4-6.4-4.7-10.6-3.8c-3.1,0.7-5.5,3.6-4.8,6.7c1.1,5,2.1,10,4.7,14.6c1.5,2.6,3.6,4.2,6.8,4.4c3.8,0.3,3.8,0.4,4.6,4.1
	c0.2,0.8,0.3,1.7,0.4,2.5C379.6,234.6,379.5,235.1,379.4,235.7z M359.5,194.3c3.5-1.2,6.7-2.1,9.6-3.1c5.5-2.1,8.9-6,9.7-11.8
	c0.9-6.2-1.1-11.7-6.3-15.6c-6.5-4.8-14.9-2.1-17.1,5.6c-0.6,2.2-0.9,4.6-0.5,6.8C356.4,182.1,357.9,187.9,359.5,194.3z
	 M334.6,169.4c-0.2,0.2-0.4,0.4-0.7,0.6c0.8,1.7,1.9,3.2,2.4,5c1.6,5.1,2.9,10.2,4.3,15.4c2.1,7.7,4.1,15.6,6.2,23.3
	c1.4,5.3,2.7,10.5,4.2,15.7c0.1,0.3,0.4,0.5,0.8,1c1-2.2,0.9-4.1,0.4-6.2c-2.7-10.6-5.5-21.3-8.2-32c-1.5-5.8-3-11.6-4.5-17.4
	C338.6,172.3,336.9,170.6,334.6,169.4z M406.6,223.7c-3.8-0.6-6.1-2.5-8-4.9c-1.3-1.6-2.2-3.3-3.3-5c-2.8-3.9-5.8-7.8-9.9-10.8
	c-1.3-0.9-2.6-1.9-4.9-1.6c1.4,1.7,2.5,2.9,3.6,4.2c3.6,4.3,7.3,8.6,10.9,12.9c2,2.4,4.6,4,7.4,5.3
	C403.4,224.6,404.6,225.1,406.6,223.7z M375.5,159.9c7.6,6.2,8.5,14.1,6.3,23.3c4.2-5,4.7-10.2,2.6-15.6
	C382.9,163.5,380.1,160.7,375.5,159.9z"/>
<path id="H" d="M622.4,16.5c-1.7,0.5-3.3,1-4.8,1.6c-4.1,1.6-6.1,4.4-6.3,8.8c-0.1,3.5-0.3,7.2-0.5,10.7c-0.2,3.8,0.2,4.3,4.1,4.5
	c4.5,0.2,9,0.4,13.5,0.5c2.7,0.1,5.4,0,8.4,0c0.3-4.4,0.6-8.6,0.8-12.8c0.1-1.1,0.2-2.2-0.1-3.1c-1.1-4.2-3.2-7.7-7.9-8.8
	c-1.6-0.4-2.1-1.2-2-2.6c0.1-0.5,0-1.1,0.1-1.6c0.4-2.5,0.9-2.9,3.4-3c5.7-0.3,10.8,1.4,15,5.3c0.4,0.4,0.8,0.7,1.5,1.3
	c1.1-0.6,2.2-1.1,3.2-1.7c4.1-2.3,8.5-3.5,13.2-3c1,0.1,2,0.4,3.1,0.6c0,1.2-0.1,2.2,0,3c0.2,1.9-0.6,2.9-2.4,3.5
	c-1.4,0.5-2.7,1.2-3.9,2c-2.4,1.5-3.6,3.6-3.7,6.6c-0.8,17.1-1.6,34.1-2.5,51.2c-0.3,5.2,2.1,8.8,6.9,10.8c1,0.4,2,0.8,3.1,1.3
	c-0.1,1.5-0.1,2.9-0.3,4.4c-0.4,2.5-0.8,2.8-3.3,2.5c-4-0.5-7.8-1.5-11.4-3.4c-0.5-0.3-1-0.5-1.4-0.8c-2-1.6-3.6-1.7-6-0.3
	c-4.7,2.7-10,2.6-15.3,1.9c-1.4-0.2-2.4-0.9-2.4-2.5c0-1.5,0-2.8,0-4.4c0.9-0.3,1.4-0.5,2.1-0.6c4.5-0.4,8-4.9,8.3-9.4
	c0.5-6.2,0.8-12.4,1.2-18.5c0.1-1.9,0-3.7,0-6.1c-8.5-0.4-17.1-0.8-25.9-1.2c-0.1,1.2-0.3,2.2-0.4,3.1c-0.2,6.5-0.5,13-0.7,19.5
	c-0.2,4.8,2.1,8.1,6.6,10c0.7,0.3,1.4,0.5,2.1,0.7c1.4,0.4,1.9,1.3,1.8,2.5c0,0.1,0,0.2,0,0.3c-0.7,4.5,0.1,5.9-6.1,5.2
	c-4.4-0.5-8.4-1.7-12.1-4.2c-1.3-0.9-2.4-0.8-3.7,0c-5.3,2.9-11,3.1-16.8,2.6c-1.6-0.1-2.3-0.9-2.2-2.5c0-0.4,0-0.9,0-1.3
	c0.2-5.2-0.2-4.6,4.7-5.5c4.6-0.8,7.8-4.1,7.8-9.1c0-6.7,0.1-13.4,0.2-20.1c0.2-10.1,0.4-20.1,0.6-30.2c0.1-5.3-2-7.9-7-9.4
	c-1.1-0.3-2.6-0.2-2.6-1.8c0-1.9,0.4-3.7,1-5.4c0.1-0.4,1.5-0.6,2.3-0.5c5.1,0.5,10,1.6,14.1,4.6c1.6,1.2,2.9,1.3,4.6,0.3
	c4.5-2.5,9.4-2.7,14.4-2.2c3.1,0.4,3.8,1.1,3.6,4.2C622.9,14.8,622.6,15.7,622.4,16.5z M635.5,86.8c3.4-0.7,5.6-3.4,5.8-7.2
	c0.8-12.1,1.6-24.2,2.2-36.3c0.3-4.7,0.3-9.4,0.4-14.1c0-3.5-1.7-6.8-4.4-8.3c2.8,4.5,2.1,9,2,13.4c-0.1,3.8-0.4,7.7-0.6,11.6
	c-0.4,9-0.8,17.9-1.3,27C639.3,77.8,638.8,82.7,635.5,86.8z M594.8,17.4c0.5,3.1,1.3,6,1.3,8.8c-0.2,15.3-0.6,30.6-1,45.9
	c-0.1,3.2,0,6.6-2.1,9.6c0.5,0,0.6,0,0.7-0.1c0.3-0.2,0.5-0.3,0.8-0.6c2.4-2.2,2.9-5,3-8c0.3-9,0.6-18,0.8-27.1
	c0.2-6.5,0.2-13,0.2-19.5c0-2.8-0.9-5.6-2.4-8C595.8,18.2,595.3,17.9,594.8,17.4z"/>
<path id="B" d="M130.1,193.8c-1.1-2-2.2-3.8-2.9-5.7c-0.3-0.6,0-1.6,0.3-2.3c0.3-0.8,1-1.4,1.6-2c2.7-3,2.8-6.2,1-9.8
	c-8.2-16.3-16.4-32.7-24.3-49c-1.3-2.6-3.2-3.8-5.9-4c-2.3-0.2-4.5,0.3-7.4,0.5c-1.5-1.3-2.2-3.7-3.2-5.9c4.6-3.9,10-5.2,15.5-6
	c0.5-0.1,1.1-0.1,1.6-0.1c3.2-0.1,5.7-1.2,8.1-3.7c6.3-6.6,14.1-10.7,23-12.8c4.6-1.1,9.2-0.9,13.7-0.2c6.7,1.1,10.6,5.6,13.6,11.1
	c3,5.5,3.7,11.3,0.6,17.2c-0.2,0.4-0.4,0.8-0.5,1.2c-0.1,0.2,0,0.4,0.1,0.9c0.6,0.1,1.3,0.3,2,0.3c5.9-0.1,10.7,2.3,14.2,6.9
	c6.5,8.4,8.5,17.7,4.2,27.8c-2.5,5.7-6.8,10.3-11.9,14c-6,4.3-12.5,7.4-19.8,8.3c-2.2,0.3-4.4,0.2-6.6,0c-2.9-0.2-2.9-0.3-4.4,2.3
	c-2.4,4.5-6,7.7-10.3,10.4C132.1,193.1,131.3,193.3,130.1,193.8z M157.3,135.8c-6.5,0-11.6,2.2-16,6c-3.4,2.8-3.2,2.5-1.4,6.1
	c2.7,5.3,5.4,10.6,8,16c2.2,4.4,6.2,6.5,10.8,4.9c2.4-0.8,4.7-1.9,6.7-3.4c4.2-3.4,6.3-8,5.8-13.5c-0.5-5.3-3-9.7-7.1-13.2
	C162.1,136.6,159.6,135.8,157.3,135.8z M133.7,135c3.1-2.1,6.2-3.7,8.9-5.7c2.8-2.1,4.9-4.8,6.2-8.1c2.5-6.1-2.5-16.1-8.9-17.7
	c-0.1,0-0.2,0-0.3-0.1c-6-1.8-10.4,1-14.3,4.9c-2.1,2.2-2.8,4.9-1.2,8c2.8,5.3,5.4,10.9,8,16.3C132.6,133.2,133,133.8,133.7,135z
	 M135.6,178c1.1-2.8,1.3-3.6,0.6-5.6c-1.1-3-2.2-6.1-3.5-9c-5.1-10.8-10.3-21.6-15.5-32.3c-1.9-3.8-3.9-7.6-7.4-10.5
	c-1.1-0.9-2.1-2.1-4.2-1.3c3.8,2.9,5.9,6.9,7.7,10.8c4.1,8.2,8.4,16.5,12.2,24.8C129.1,162.5,133.4,169.6,135.6,178z M173.5,159.9
	c6.7-10.9,0.9-25.8-9.9-26.4c4.1,2.8,7.4,6.5,9.2,11.2C174.7,149.4,174.2,154.4,173.5,159.9z M153.6,119.7c1.4-1.3,1.4-2.9,1.4-4.6
	c-0.2-6-3.3-10.2-8-13.4c-0.9-0.6-2.1-1.4-3.3-0.3C149.5,106.1,153.4,111.8,153.6,119.7z"/>
<path id="A" d="M16.9,166.8c-1.3-1.9-2.4-3.5-3.4-5.2c-0.7-1-0.2-1.9,0.6-2.5c1.6-1.2,3.1-2.5,4.8-3.5c3.4-2,7.1-3.6,11-4.5
	c2.7-0.7,5.4-0.7,8.1-0.3c0.9,0.2,1.9,0.3,3,0.5c3.7-8.4,8.8-15.7,18.1-19.4c1.2,2.3,2.4,4.3,3.4,6.3c-1.8,2.1-3.4,3.6-4.8,5.5
	c-2.4,3.1-2.5,6.4-0.2,9.6c0.6,0.8,1.4,1.6,2.2,2.2c16.2,10.7,32.4,21.4,48.5,32.1c2.8,1.9,6,3,9.4,2.8c1.3-0.1,2.6-0.1,3.2,1.4
	c0.7,1.6,1.3,3.3,1.6,5c0.1,0.5-1.2,1.4-2,1.8c-3.9,2-8.1,2.7-12.6,2.2c-2.4-0.3-3.6,0.4-4.6,2.5c-2.4,5-6,9.1-10.8,12
	c-1.6,1-3.2,1.4-5.3,1.3c-0.9-1.7-1.9-3.3-2.8-5.2c1.1-0.9,1.8-1.6,2.6-2.1c2.1-1.3,3-3.1,3.6-5.3c0.8-2.8,0.1-4.5-2.4-6.1
	c-1.7-1.1-3.3-2.2-4.9-3.3c-1.3-1.1-2.5-1.3-4-0.4c-2.6,1.6-5.3,3-7.9,4.5c-7.2,4-14.3,7.9-21.5,11.9c-1.5,0.8-2.3,1.6-2,3.4
	c0.4,2.3,0.5,4.6,0.9,6.9c0.4,2.4,1.5,3.3,3.8,3.3c1.4,0,2.7-0.2,4-0.6c1.8-0.6,3.5-1.4,5.4-2.2c1.6,1.5,2.4,3.3,3.1,5.3
	c0.6,1.6-0.2,2.6-1.4,3.5c-3.3,2.3-6.9,4.2-10.9,4.5c-2.2,0.2-3.4,1.2-4.4,2.8c-2.7,4.7-6.7,7.9-11.7,10.2c-1.5,0.6-2.4,0.5-3-0.9
	c-0.1-0.2-0.2-0.4-0.3-0.6c-2.9-5.7-3.3-5,1.3-9c2.5-2.3,4-5.3,3.4-9.2c-1.2-9.2-1.8-18.5-2.7-27.8c-1-9.6-2.3-19.1-3.3-28.7
	c-0.2-1.8-0.2-3.5-0.4-5.3c-0.3-3.1-1.8-4.4-4.8-3.7c-1.8,0.4-3.5,1.3-5.2,2.1C20.2,165,18.6,166,16.9,166.8z M46.6,198.1
	c7.8-4.3,15.3-8.3,22.8-12.5c-2.5-2.5-23.7-16.6-26.3-17.3C44.2,178.3,45.4,188,46.6,198.1z M95.6,196.9c0.1-2.5-1.1-3.6-2.6-4.7
	c-8.3-5.4-16.7-10.8-25-16.3c-5.3-3.5-10.5-7.3-15.8-10.9c-1.5-1-2.9-2.1-4.4-2.9c-1-0.6-2.1-1-3.1,0.5
	C61.6,174.1,78.5,185.4,95.6,196.9z"/>
<path id="O" d="M103,283.2c-0.1-3.5,1.1-9.3,3.5-14.6c1.5-3,3.5-6,5.8-8.5c4.7-5,10.1-9.3,16.4-12c8.3-3.5,16.8-3,25,0.7
	c8.1,3.8,14,10.1,19.2,17.3c6.2,8.4,9.7,17.8,10.7,28.1c0.8,8.8-0.4,17.2-5.2,24.8c-3.2,5.2-8.1,8.6-13.2,11.9
	c-7.7,5-16.1,5.4-24.8,3.1c-12.5-3.2-21.9-10.5-29-21.1C105.8,304.6,102.9,295.6,103,283.2z M165.8,310.7c-0.1-0.9-0.2-2.5-0.6-4
	c-4-13.3-10.3-25.4-19.5-35.9c-2.5-2.8-5.3-5.4-8.2-7.7c-6.3-5.1-14.6-1.3-15.9,5.3c-0.4,2.4-0.6,4.8-0.4,7.2
	c0.5,5.5,2.4,10.6,4.7,15.5c4.2,8.6,9.6,16.4,16.4,23.2c3.6,3.7,7.8,6.6,13.1,7.4c5.3,0.7,8.7-1.7,9.8-6.9
	C165.5,313.6,165.6,312.5,165.8,310.7z M108.6,276.4c-3.7,7.6,0,21.6,8.8,35.1c6.3,9.6,21.2,19.1,28.9,19.2
	c-1.2-0.9-2.5-1.8-3.8-2.5c-2.9-1.6-6.2-2.8-8.8-4.8c-9.8-7.6-17.3-17-21.8-28.6C109.6,288.9,108.4,282.8,108.6,276.4z M136,257
	c1.8,1.2,3.2,1.9,4.4,2.9c7.9,6.7,14.4,14.6,19.3,23.7c3.9,7.3,7.9,14.5,8.9,22.9c0.2,1.9,1,3.6,1.5,5.6c0.5-0.3,0.6-0.3,0.6-0.4
	c0.1-0.3,0.2-0.6,0.2-0.9c-0.7-9-2.9-17.7-7.2-25.8c-2.5-4.7-4.8-9.6-8.5-13.4c-3.8-3.9-7.6-7.6-11.7-11.4
	C141.7,258.4,139.3,257.2,136,257z"/>
<path id="Z" d="M1042.2,318.5c-4.3-6.2-9.1-10.6-16.4-12c-7.5-1.4-13.1,2.2-19,5.8c-1.8-1.3-2.7-3-3.2-4.8c-0.3-0.9,0.3-2.3,0.9-3.1
	c3.6-5.4,7.4-10.7,11-16.1c0.7-1,1.2-2,1.8-2.9c0.7-1.3,1.8-1.6,2.8-0.8c1.6,1.1,3,2.3,4.5,3.4c1,0.9,1.2,2,0.4,3
	c-0.7,1.1-1.5,2.3-2.5,3.8c1.3,0.2,2.2,0.5,3,0.5c6.7,0.5,12.7,2.5,17.8,6.9c2.3,2,4.3,4.3,6.1,6.8c2,2.6,3.5,5.7,5.3,8.5
	c2.5,4.1,5.6,7.8,9.2,11.1c1.1,1,2.2,2,3.7,3.3c-3.2,1.1-5.8,2.1-8.4,2.8c-5.1,1.5-10.3,2.8-15.4,4.2c-8.5,2.4-17,4.6-25.5,6.9
	c-7.9,2.2-16,4.4-23.9,6.7c-0.8,0.2-1.6,0.6-2.5,0.9c0.3,0.8,0.4,1.6,0.8,2.1c4.6,5.7,10.1,10.4,17.5,12.2c6.2,1.5,12.3,1.4,18-1.9
	c1.4-0.8,2.8-1.4,4.2-2.2c1.1-0.6,2-0.4,2.8,0.5c1.8,2,3.6,4,5.5,6.2c-0.7,1-1.3,1.9-2,2.6c-5.4,6.2-10.8,12.3-16.3,18.3
	c-2,2.2-2.6,2.2-5,0.3c-1.8-1.5-3.6-2.8-3.8-5.5c-0.3-4.8-3.7-6.9-7.7-7.8c-7.6-1.9-13.6-6.3-18.9-11.8c-2.2-2.3-4.2-4.6-6.3-7.1
	c-3.4-4.1-7.7-6.7-13-7.6c-2.3-0.4-2.5-0.7-2.1-2.9c0.7-3.6,1.5-7.2,2.2-10.8c0.3-1.5,1-2.4,2.5-2.7c10.4-2.5,20.8-4.9,31.2-7.5
	c6.7-1.6,13.2-3.3,19.8-4.9c4.7-1.1,9.4-2.1,14.1-3.1C1037.6,319.6,1039.6,319.1,1042.2,318.5z M1049,323.5c-0.9-1.8-1.8-2-3-1.7
	c-6.2,1.6-12.4,3-18.6,4.5c-15,3.5-30,7-45,10.5c-2.2,0.5-4.2,1.2-6.3,2c-0.7,0.3-1.7,0.6-1.1,2.2
	C999.4,335.2,1024.1,329.4,1049,323.5z"/>
<path id="X" d="M924.2,223.6c-0.3,0.8-0.6,1.5-0.9,2.2c-1.1,3.4-3,5.1-6.9,4.8c-3.6-0.3-7,1.1-10.1,3c-6.9,4.1-13.7,8.1-20.6,12.2
	c-2.1,1.2-2.9,2.5-2.6,5c1.2,10.3,2.2,20.6,3.2,31c0.2,1.7,0.6,3.3,1,4.9c0.5,2.3,1.7,4,3.4,5.5c1.3,1,2.6,2.1,4.2,3.3
	c-1,2.1-1.9,4.1-3,6.1c-0.3,0.5-1.6,1-2.1,0.8c-4.1-1.6-8.3-3-11.6-6.2c-1.3-1.3-2.2-3-3.1-4.6c-0.7-1.1-1.3-2-2.7-1.4
	c-5.2,1.8-9.9,0.5-14.5-2.1c-1.3-0.7-2.5-1.5-3.8-2.2c-1.1-0.6-1.4-1.5-0.9-2.6c0.3-0.7,0.5-1.4,0.8-2.1c1-2,1.5-2.4,3.6-2
	c2.3,0.4,4.1-0.4,5.9-1.6c1.6-1.1,2.5-2.6,2.4-4.5c-0.5-5-1.1-10-1.7-15c0-0.2-0.2-0.3-0.5-0.6c-0.4,0.1-1,0.2-1.4,0.5
	c-4.2,2.4-8.4,4.7-12.6,7.1c-1,0.6-1.9,1.4-2.6,2.2c-1.6,1.8-1.4,3.2,0.4,4.9c2.5,2.5,2.6,2.5,1.2,5.5c-2.1,4.3-3,4.6-7.1,2
	c-2.9-1.9-5.1-4.3-6.2-7.6c-0.2-0.6-0.4-1.2-0.7-1.9c-1.7,0.1-3.1,0.2-4.7,0.3c-3.1,0.2-6-0.5-8.8-1.9c-1.4-0.7-1.9-1.6-1.2-3
	c0.1-0.2,0.2-0.4,0.2-0.6c1.8-4.6,1.8-4.7,6.6-3.7c3.9,0.8,7.3,0.2,10.8-2c7.6-4.6,15.4-9,23.1-13.3c1.8-1,2.1-2.1,1.9-3.8
	c-0.7-5.7-1.4-11.5-2.1-17.2c-0.6-4.7-1.2-9.3-1.7-14c-0.5-5-2.7-8.9-6.9-11.8c-2.3-1.6-2.3-1.8-1-4.4c2.2-4.6,2.2-4.6,6.8-2.8
	c4.5,1.7,8,4.5,10,8.9c0.3,0.8,0.8,1.5,1.3,2.4c0.9-0.3,1.7-0.5,2.4-0.8c4.3-1.9,8.5-2,12.6,0.5c0.5,0.3,1.1,0.6,1.7,0.9
	c4.7,2.7,3.7,2.6,2.1,6.2c-0.5,1-0.9,2.1-1.5,3.3c-0.9-0.3-1.6-0.6-2.4-0.8c-3.2-1.1-5.5,0.6-5.2,3.9c0.3,3.2,0.8,6.5,1.2,9.7
	c0.3,2.1,0.4,4.2,0.7,6.3c0.1,0.5,0.3,0.9,0.6,1.6c4.6-2.5,9-4.9,13.3-7.4c0.7-0.4,1.4-1.1,1.9-1.7c1.2-1.5,1.2-2.8-0.1-4.2
	c-0.3-0.3-0.6-0.6-0.9-0.9c-2.9-2.5-2.9-2.5-1.2-6.2c2.2-4.5,2.4-4.6,6.7-2c2.7,1.7,5.4,3.6,7,6.7c0.6,1.1,1.5,1.3,2.5,1.3
	c2.3,0.1,4.6,0.2,6.9,0.5C920.1,220.6,922.4,221.5,924.2,223.6z M861.6,202.2c-0.2,0.7-0.3,0.9-0.3,1.1c1.2,7.5,2.5,14.8,3.6,22.3
	c1,6.8,1.7,13.5,2.5,20.3c1,8.5,2.1,17.1,2.7,25.6c0.2,2.4-0.4,4.7-0.7,7.2c-0.1,0.5-0.3,1-0.4,1.5c0.2,0.1,0.4,0.2,0.6,0.2
	c0.6-1.3,1.5-2.5,1.6-3.9c0.4-3.5,0.8-7.2,0.5-10.6c-1.3-12.3-2.8-24.5-4.3-36.8c-0.7-5.9-1.3-11.9-2-17.7
	C865.1,207.9,863.7,205.2,861.6,202.2z"/>
<path id="P" d="M182.3,226c7.6-17.2,24.1-21.4,36.4-18.8c14.2,3,24.3,14.3,25.3,30.2c0.2,4-0.1,8-1.9,11.8c-1.7,3.5-3.7,7.1-6,10.3
	c-2.4,3.2-5.5,5.7-8.9,7.8c-3.5,2.2-7.6,2-11.6,2.8c0.2,0.8,0.2,1.4,0.5,1.8c1.6,2.8,3,5.7,4.8,8.4c2.3,3.5,5.1,4.3,8.9,2.5
	c1.1-0.5,2.3-1,3.7-1.6c1.1,2.3,2.3,4.3,3,6.4c0.2,0.6-0.3,1.9-0.9,2.4c-4.1,3.6-8.8,5.6-14.4,4.2c-0.5-0.1-1-0.3-1.6-0.4
	c-2.6-0.6-3.2-0.5-4.4,2.2c-1.1,2.4-2.2,4.6-4.2,6.2c-2.5,1.9-5.1,3.6-7.8,5.1c-1.8,1-2.5,0.6-3.7-1.1c-2.2-3-2.2-3.7,0.3-6.5
	c3.7-4.2,4-6.9,1.4-12c-5.3-10.1-10.5-20.3-15.8-30.4c-2.4-4.5-4.9-9-7.4-13.5c-0.5-0.9-1-1.9-1.4-2.8c-1.4-2.9-3.8-4.2-6.9-3.3
	c-0.7,0.2-1.4,0.5-2.1,0.7c-1.3,0.5-2.3,0-2.9-1.2c-1-1.9-1.9-3.7-2.7-5.6c-0.6-1.2-0.2-2.2,0.9-2.6c5.3-2.5,10.6-4.6,16.7-3
	c0.6,0.2,1.3,0.2,1.9,0.3C181.7,226.2,181.9,226.1,182.3,226z M224.8,242.4c-0.5-9.7-5.5-16.9-12.6-22.8c-0.1-0.1-0.2-0.1-0.3-0.2
	c-2.9-1.6-6.1-2-9.1-1.2c-2.7,0.7-4.7,2.8-6,5.3c-1.9,3.4-3.2,7.3-1.2,11.1c4,7.5,8.3,14.8,12.5,22.2c0.9,1.6,1.9,2,3.5,1.7
	C219.5,257.3,225.3,249.4,224.8,242.4z M174.9,233.6c0.1,0.4,0.1,0.7,0.2,0.8c0.3,0.3,0.6,0.6,1,0.8c2.7,1.8,4.6,4.1,6.2,7
	c6.8,12.8,13.5,25.7,20.3,38.6c1.7,3.2,3.2,6.6,3.5,10.3c0,0.5,0.4,0.9,0.9,1.9c0.4-1.4,0.6-2.2,0.8-2.8c0.6-3.1-1.1-5.8-2.5-8.2
	c-5.6-10.8-11.4-21.5-17.2-32.2c-2.1-3.9-4.2-7.7-6.3-11.7C180.4,235.3,178.1,234,174.9,233.6z M227.5,251.9
	c2.6-3.1,3.3-6.4,3.2-9.5c-0.6-11.1-5.4-19.8-15.1-25.6c-1.4-0.8-2.7-2-4.9-1.6c0.6,0.5,0.9,0.9,1.3,1.1c6.5,3.9,11.1,9.5,14,16.5
	c1.5,3.4,3.1,6.9,2.7,10.9C228.5,246.1,228,248.6,227.5,251.9z"/>
<path id="S" d="M438.6,219.5c-0.3,1.8-0.5,3-0.7,4.7c-2.6,0.4-5.4,0.7-8.4,1.2c-0.7-2.8-1.3-5.6-1.9-8.3c-1.2-6.1-2.3-12.2-3.3-18.2
	c-1-5.1-0.9-5.1,4-6.2c2.5-0.6,2.5-0.6,4,1.7c4,6,9.1,11,15.3,14.7c4.8,2.8,9.7,3.3,14.6,0.7c6.2-3.3,8.4-12.2,4.5-17.7
	c-1.5-2.2-3.5-3.5-6.1-4.3c-5.1-1.6-10.4-1.3-15.6-1.2c-7.4,0.2-14.2-1.4-19.8-6.4c-7.1-6.3-12.2-17.6-7.3-28.5c1.2-2.6,3-5,5-7.2
	c6.2-6.7,14.2-9.4,23-10.1c6.1-0.5,12,0.3,17.7,2.5c0.7,0.3,1.4,0.3,2.3,0.5c0.1-0.9,0.3-1.6,0.4-2.3c0.2-2.5,0.5-2.8,2.9-3.1
	c2.5-0.3,3.3,0.3,3.9,2.5c1.2,5,2.3,10,3.3,15c0.6,2.7,1.2,5.5,1.8,8.3c0.1,0.5,0,1-0.1,1.7c-0.9,0.3-1.6,0.7-2.4,0.9
	c-3.2,0.9-3.2,0.9-4.7-2.3c-2-4.1-4.5-7.8-7.6-11.1c-3.5-3.7-7.6-5.6-13-4.3c-3.3,0.8-6.4,1.9-9.3,3.7c-4.1,2.6-5.7,8.4-3.4,12.7
	c1.4,2.6,3.8,3.5,6.6,3.7c4.8,0.5,9.6,0.7,14.4,1.3c3.3,0.4,6.8,0.6,9.9,1.7c8.6,2.9,14,9.3,16.7,17.9c5,16.5-5.4,30.8-19.5,36
	c-6.8,2.5-13.7,2.8-20.8,1.7C443,221.2,441.1,220.3,438.6,219.5z M471.7,201.4c4-7.7-0.4-15.7-6.6-18.1c-4.4-1.8-8.9-2.9-13.7-2.8
	c-5.6,0.1-11.1-0.6-16.3-2.9c-8.3-3.8-12.6-10.3-13.3-19.3c-0.1-0.8-0.2-1.5-0.2-2.3c-0.4,0.1-0.5,0-0.6,0.1
	c-0.1,0.2-0.3,0.4-0.3,0.6c-0.4,5,0.2,9.8,2.5,14.4c4,7.8,10.9,11.3,19.3,12.1c5.7,0.6,11.5,1,17.2,1.6c6.2,0.6,12.6,5.8,12.1,14
	C471.7,199.3,471.7,200.1,471.7,201.4z"/>
<path id="D" d="M277.6,132.3c-0.4-1-0.6-1.6-0.9-2.3c-1.1-3.4-1-3.3,1.7-5.7c4.3-3.6,4.5-6.3,3.2-10.5c-3.3-10.4-6.2-20.9-9.2-31.4
	c-1.8-6.2-3.3-12.4-5.3-18.4c-1.8-5.3-4.8-8.4-10.2-8c-0.5,0-1.1,0-1.6,0c-0.3-0.3-0.6-0.5-0.7-0.8c-2.6-6.7-1.1-6.2,3.9-7.1
	c4.7-0.9,9.2-0.9,13,2.7c1.2-1.1,2.3-2,3.1-2.9c4.1-4.8,9.2-7.8,15.2-9.5c7.5-2.1,14.8-2.6,22.3,0.1c5.7,2.2,9.8,6.1,12.9,11.1
	c8.3,13.3,12.9,27.8,12.3,43.5c-0.4,9.8-3.7,18.5-12.5,24.2c-8.4,5.5-17.7,7.1-27.4,3.8c-1.6-0.5-2.5-0.4-3.7,1.1
	c-3.5,4.4-7.8,7.8-13.4,9.4C279.7,132,278.7,132.1,277.6,132.3z M320,94.2c-0.9-8.4-2.5-16.5-5.6-24.2c-3-8-6.9-15.7-13.7-21.5
	c-5.5-4.6-12.1-3-14.5,3.7c-1.3,3.5-0.7,7,0.3,10.5c2.2,7.2,4.2,14.2,6.4,21.4c1.9,6.5,3.7,12.8,5.7,19.3c0.9,2.9,2.4,5.6,4.5,7.8
	c1.6,1.6,3.4,2.4,5.6,2.5c4.6,0.1,8.5-2.8,9.7-7.8C319.2,101.8,319.4,98,320,94.2z M319.9,109.3c3.4-3.5,4.9-7.8,5.1-12.7
	c0.2-9.1-1.3-17.9-4.3-26.5c-2.6-7.5-5.8-14.6-11.1-20.6c-1.4-1.6-2.6-3.3-5.6-4.1c0.8,1.2,1.2,1.9,1.7,2.5c1.4,1.9,2.9,3.6,4,5.6
	c3.8,6.5,7.4,13.1,9,20.6c1.3,5.8,2.7,11.6,3.8,17.5c1,5.7,0.5,11.3-2.3,16.6C320.3,108.4,320.1,108.9,319.9,109.3z M286.2,119.6
	c1.6-2.2,2.5-4.4,1.7-7.1c-0.6-2.2-1.3-4.2-1.9-6.4c-3.8-13.4-7.6-26.8-11.6-40.2c-0.7-2.3-2-4.4-3.1-6.5c-0.6-1.1-1.6-2.1-2.8-2.5
	c1.4,3.3,2.6,6.4,3.7,9.4c1.4,3.9,2.5,8,3.5,12.1c2.2,7.6,4.4,15.3,6.5,22.9C283.8,107.5,286.6,113.2,286.2,119.6z"/>
<path id="E" d="M396.1,71.3c-1.1,0.5-2,1-2.8,1.3c-2.5,1-2.8,0.9-4.5-1.3c-1.9-2.4-4.1-3.4-7.1-3.2c-1.6,0.1-3.1,0.2-4.7,0.5
	c-2.4,0.5-3,1.5-2.6,3.7c1,5.1,1.7,10.4,3.3,15.3c2.8,8.3,12,11.2,19.5,6.5c6.5-4.1,10-10,10.7-17.6c0.3-3.7,0.5-3.8,4-4.2
	c1.4-0.1,2.6-0.2,4.3-0.4c0.3,1.1,0.7,2.2,0.9,3.2c0.9,7.3,1.8,14.6,2.5,21.9c0,0.1,0,0.2,0,0.3c0.3,3.6-0.1,4-3.5,4.3
	c-1.3,0.1-2.2-0.1-2.8-1.4c-0.9-1.5-2.2-2.8-3.2-4.2c-3.1,2-6,3.9-9,5.6c-7.1,3.9-14.5,5.3-22.5,3.3c-1.3-0.3-2.5-0.9-3.8-1.5
	c-2.6-1.3-2.6-1.3-4.7,1c-0.9,0.9-1.8,1.8-2.6,2.7c-3,3.2-7,4.5-11.2,5.3c-1.4,0.2-2.3-0.4-2.7-1.6c-0.4-0.9-0.6-1.8-0.9-2.6
	c-0.5-1.5-0.3-2.6,1.3-3.3c2.5-1.2,3.3-3.3,3.4-5.9c0.3-5.1-0.5-10-1.4-15c-2.1-11.9-4.1-23.7-6.3-35.6c-0.5-2.5-1.4-5-2.4-7.5
	c-1.2-2.9-4.1-3.6-6.9-4.3c-1.2-0.3-2.8,0-3.2-1.5c-0.5-1.9-0.5-3.9-0.5-5.9c0-0.4,1.1-1,1.7-1.1c5.4-0.9,10.7-0.7,15.5,2.2
	c1.5,0.9,2.5,1.1,3.8-0.3c7.1-7.3,16.2-8.8,25.7-8.6c2.2,0,4.3,0.6,6.5,0.9c2.6,0.5,2.6,0.5,4-1.7c2.1-3.3,2.7-3.4,6.3-2.1
	c1.4,0.6,2,1.6,2.3,2.7c0.9,4.3,1.9,8.6,2.5,12.9c0.4,2.3-1.7,4.6-3.9,4.7c-0.7,0-1.7-0.8-2.2-1.5c-4.8-6.5-13.3-9.4-21.2-7.2
	c-6.9,2-10,6.9-8.8,13.7c0.7,4.1,1.5,8.2,2.2,12.4c0.5,2.7,1.5,3.5,4.1,2.5c4.5-1.7,6.1-1.7,6.8-8.1c0.1-1.5,0.4-2.9,0.5-4.4
	c0.1-1.4,0.7-2,2.1-2.4c5-1.2,6.4-0.2,5.9,5c-0.2,2.3-0.6,4.6-1.3,6.8c-0.8,2.4-0.5,4.1,1.4,5.9C393.3,64.6,394.9,67.6,396.1,71.3z
	 M351.5,37.8c1,2.9,2.1,5.3,2.6,7.7c0.9,3.9,1.3,7.8,2,11.8c1.9,10.8,3.8,21.7,5.6,32.6c0.4,2.5,0,5-0.1,7.5
	c-0.1,1.2-0.4,2.4-0.6,3.5c0.2,0,0.4,0.1,0.7,0.1c1.5-2.5,2.8-5,2.5-7.9c-0.4-4.9-0.9-9.8-1.6-14.6c-1-6.9-2.2-13.6-3.3-20.4
	c-0.8-4.5-1.9-9-2.9-13.5C355.7,41.7,354.1,39.5,351.5,37.8z"/>
<path id="Y" d="M952.3,281.3c2-0.8,3.7-1.4,5.4-2.2c4.5-2.1,8.9-4.2,13.3-6.4c0.7-0.3,1.3-0.7,1.9-1.1c2.2-1.7,2.5-3.4,1.2-5.8
	c-0.6-1-1.3-2-2-2.8s-1.6-1.7-2.5-2.5c0-0.2-0.1-0.6,0.1-0.8c3.5-7,3.4-5.8,8.9-2.6c3.8,2.2,6.6,5.5,8,9.7c0.7,1.9,1.8,2.5,3.7,2.5
	c5.8,0.1,10.7,2.5,15.1,6.2c1,0.8,1.6,1.9,1,3c-1.1,2.4-2.3,4.7-3.4,7.3c-2.5-1.5-4.7-2.6-6.9-3.9c-5.1-2.9-10.3-3.1-15.6-0.6
	c-7.6,3.6-15.3,7.3-22.9,11c-9,4.3-6.9,3-11.3,11.3c-1.3,2.5-2.5,5.1-3.9,7.6c-2.7,4.7-2.4,9.1,0.4,13.6c2.4,3.8,2.2,5.2-1.3,9.3
	c-7.3-2.8-13.3-7-14.1-15.9c-1,0.1-1.8,0.1-2.5,0.3c-4.7,1.2-9.1,1.1-13.1-2c-0.6-0.4-1.3-0.8-1.9-1.2c-5.3-3.7-4.3-3-2.2-8.2
	c0.7-1.6,1.6-2.2,3.1-1.5c1,0.4,2,0.7,3,0.9c3,0.7,5.7-0.4,7.4-3c3.3-5.7,6.7-11.4,9.9-17.2c0.5-0.9,0.6-2.1,0.6-3
	c-0.4-9-0.8-18-1.2-27.1c-0.2-3.9-0.4-7.7-0.1-11.7c0.2-3.2-0.6-6.1-2.6-8.4c-1.7-2-1.7-3.7-0.4-6c2.5-4.3,2.6-4.5,6.7-1.6
	c4.4,3,8.1,6.7,9.1,12.4c0.1,0.7,0.5,1.4,0.9,2.4c1-0.2,2-0.3,2.7-0.7c2.4-1.1,4.8-1.2,7.1-0.4c2.5,0.8,4.9,1.8,7.3,3
	c2.2,1.2,2.2,2.1,1.2,4.1c-0.3,0.6-0.6,1.1-0.9,1.7c-1.4,2.5-1.4,2.5-4.1,1.2c-3.2-1.6-5.3-0.6-5.9,3c-0.2,1.3-0.2,2.5-0.2,3.7
	c0.2,6.8,0.5,13.6,0.7,20.4C952,279.8,952.2,280.4,952.3,281.3z M934.2,238.6c-0.2,0.5-0.4,0.8-0.3,1.1c0.3,2.9,0.7,5.8,0.8,8.7
	c0.4,11.8,0.6,23.4,1,35.2c0.1,2.5-0.4,4.7-1.9,6.8c-1.6,2.4-2.6,5-4.1,7.4c-2.5,3.9-4.1,8.5-8.6,10.9c-0.1,0,0,0.4,0,0.6
	c1.6,0.7,2.8,0.1,3.9-1.1c1.8-2.1,3.5-4.2,4.9-6.5c2.4-3.8,4.4-7.8,6.7-11.8c1.2-1.9,1.5-3.8,1.4-6c-0.4-8.3-0.7-16.8-1-25.1
	c-0.2-5.2-0.4-10.5-0.6-15.7C936.2,241.6,936.1,239.8,934.2,238.6z"/>
<path id="G" d="M548.4,11.2c0.3-1.4,0.5-2.5,0.8-3.7c2.5,0.5,5,1,7.5,1.5c1.3,0.3,1.5,1.3,1.8,2.4c1.5,6.1,3,12.2,4.5,18.2
	c-2.1,2.1-4.6,1.9-7.2,2.8c-0.9-1.8-1.7-3.4-2.5-5.1c-2-4.2-4.8-7.6-9-9.7c-5.5-2.9-11.1-2.2-16.5,0c-3.5,1.4-5.7,4.9-7.3,8.3
	c-1.7,3.7-2.5,7.7-2.9,11.9c-1,10.6-0.6,21.2,1.9,31.6c0.7,3,2,6.1,3.6,8.6c3.8,5.8,12.7,7.6,17.9,4.4c2.5-1.6,4-3.5,4.7-6.4
	c1.3-5.4,0.9-10.9,0.5-16.3c-0.2-3.3-3.1-5-6-6.4c-1.2-0.6-3-0.7-3.5-1.7c-0.7-1.3-0.5-3-0.5-4.6c0-0.9,0.1-1.9,0.3-3.2
	c2,0.2,3.7,0.1,5.4,0.6c3.7,1,7.6,2,10.6,4.6c1.2,1,2.1,1.1,3.3,0.1c3.8-3,8.1-4.6,13.2-4.5c1.2,2,1,4.3,1.3,6.6
	c0.1,0.5-0.7,1.3-1.2,1.7c-4.9,2.7-6.4,7.2-6.3,12.5c0.2,7.6,0.3,15.3,0.5,22.9c0,1.2,0,2.3,0,3.7c-3.6,0.3-7,0.7-10.2,0.8
	c-0.7,0-1.7-0.8-2.2-1.5c-0.8-0.9-1.4-2.1-2-2.9c-3.5,1.3-6.7,2.6-10,3.5c-7.1,1.9-14.1,2-20.8-1.6c-6.1-3.2-10.9-7.8-14.4-13.7
	c-6.1-10.2-7.9-21.3-7.2-32.9c0.6-9.2,3.5-17.4,9.5-24.4c6.3-7.4,14-11.4,23.7-11.8c5.7-0.2,11.1,0.5,16.3,2.8
	C546.7,10.6,547.4,10.8,548.4,11.2z M509.3,20.1c-0.7,0.5-1,0.6-1.2,0.9c-3.9,5.4-6,11.5-7.1,17.9c-1,6.1-0.6,12.1,0,18.1
	c0.8,9.3,4.4,17.4,10.5,24.4c1.8,2.1,3.7,3.8,6.9,4.9c-0.5-0.8-0.6-1.1-0.9-1.3c-4.8-3.6-7.3-8.8-9.8-14c-1-2.1-1.7-4.3-2.3-6.5
	c-1.8-6.5-2-13-2-19.6C503.5,36.4,504.9,28.3,509.3,20.1z M552.1,86c0.3-0.8,0.5-1.1,0.5-1.4c0-7.9,0.1-15.9,0-23.8
	c0-3.2-1.6-5.7-4.6-7.2c-0.1,0.2-0.3,0.3-0.2,0.4c0.1,0.5,0.2,1,0.5,1.5c1.5,2.7,2,5.7,2,8.7c-0.1,5.2,0.1,10.5,0.1,15.7
	C550.2,82,550.6,83.9,552.1,86z"/>
<path id="U" d="M571.6,129.8c7.8-0.5,14.3,1.3,18.2,8.6c3.1-2.1,5.3-5.1,8.9-5.9c3.4-0.8,6.8-1.3,10.5-0.5c-0.3,2.3-0.5,4.4-0.8,6.8
	c-1.3,0.2-2.5,0.4-3.7,0.7c-4.3,0.9-6,2.5-6.3,7c-0.9,12.9-2.6,25.9-2.6,38.9c0,2.3-0.4,4.6-0.6,6.9c-0.5,5.2,1.5,9.3,5.5,12.4
	c9.4,7.2,19.4,2.2,22.8-5.3c0.6-1.3,0.9-2.7,1.1-4.2c1.8-14.2,3.3-28.5,5.2-42.8c0.6-4.5-1-7.6-4.9-9.6c-1.3-0.7-2.5-1.5-3.9-2.3
	c0.1-1.6,0.2-3,0.4-4.4c0.4-2.4,1-2.8,3.4-2.4c2.7,0.5,5.2,1.7,7.2,3.6c1,1,2,1.9,3.1,2.9c5.1-3.1,10.4-5.2,16.5-3.3
	c1.1,2.5,0.1,4.6-0.6,7.2c-1.1,0.1-2.1,0.2-3.1,0.3c-3.4,0.3-6,2.7-6.4,5.9c-0.6,5.3-1.4,10.6-2.2,15.9c-1.7,11.6-3.3,23.2-5.1,34.8
	c-0.3,1.7-1.2,3.3-2.3,4.7c-7.4,9.4-17.2,13.6-28.9,12.5c-8.9-0.9-15.9-5.6-21-12.9c-4.3-6.4-5.4-13.4-5-21c0.8-12.1,1.5-24,2-36.1
	c0.1-2.3-0.6-4.6-1.3-6.8c-0.8-2.3-2.7-3.4-5-3.8c-1.6-0.3-2.2-1.1-2.1-2.5C571.2,133.3,571.4,131.6,571.6,129.8z M582.5,139.6
	c0.4,2.5,1.1,4.4,1.1,6.3c0,4.9-0.3,9.8-0.6,14.7c-0.2,5.1-0.4,10.3-0.9,15.4c-0.6,6.3-0.7,12.6,0.4,18.7c0.4,2.3,0.6,4.7,2.8,6.7
	c0-0.8,0-1.3,0-1.8c-0.3-3.2-1.1-6.5-1-9.6c0.3-9.5,1-19,1.4-28.5c0.2-4.9,0.3-9.8,0.3-14.7C586,144.1,585.3,141.6,582.5,139.6z"/>
<path id="L" d="M922.6,85.1c1.4-0.2,2.6-0.4,4-0.6c5.2-0.8,10.2-0.4,15.2,1.3c1.6,0.5,2.4,1.4,2,3c-0.4,1.9-0.9,3.8-1.4,5.9
	c-1.5,0-2.5,0-3.7,0c-5.6,0.2-11.5,4.8-13,9.8c-4,13-8.5,25.9-12.7,38.8c-0.3,1-0.8,2-1.1,2.9c-1.4,4.2-0.4,6.9,3.5,8.9
	c5.7,3,11.7,2.9,17.7,1.1c5-1.6,9.2-4.4,13.5-7.3c0.8-0.5,1.6-1.1,2.5-1.9c0.8,0.9,1.7,1.6,2.4,2.5c1.7,2,1.7,2.3,0.3,4.4
	c-3.4,5.2-7,10.5-10.5,15.7c-1.5,2.2-3,4.3-4.4,6.5c-0.9,1.4-2.1,1.7-3.5,1.1c-0.6-0.2-1.2-0.5-1.8-0.7c-3.8-1.5-3.9-1.9-3.1-5.6
	c0-0.2,0-0.4-0.1-1c-1,0-2,0-2.9,0c-9.9,0.2-18.9-2.4-26-9.7c-1.8-1.8-3.1-3.9-4.9-6c-6.6,2.3-13,2.7-19.2-2.2c0.8-2,1.5-4,2.4-6
	c0.2-0.5,1.2-0.9,1.8-1c5-0.4,9-2.6,12.1-6.5c0.8-1,1.5-2.1,1.9-3.2c5.1-13.6,10.1-27.3,15.2-41c0-0.1,0.1-0.2,0.1-0.3
	c2.2-6,1.4-9.1-3.3-13.4c-2.5-2.4-2.5-2.4-1.4-5.4c0.2-0.5,0.4-1,0.6-1.5c0.9-2,1.3-2.2,3.3-1.5c5.9,2,10.5,5.5,13.8,10.8
	C921.8,83.8,922.2,84.4,922.6,85.1z M913.6,86.2c-0.2,2.5,0,5.3-0.7,7.7c-1.2,4.6-2.8,9.2-4.4,13.7c-2.5,7.2-5.1,14.2-7.6,21.3
	c-1.7,4.6-3.6,9.1-7,12.9c-1.1,1.2-2.2,2.3-3.2,3.4c0.1,0.2,0.2,0.3,0.4,0.5c1.3-0.8,2.8-1.3,3.9-2.3c3.6-3.4,6.4-7.4,7.8-12.3
	c1.8-5.8,4-11.5,6.1-17.2c2.2-6.1,4.4-12.2,6.4-18.4C916.2,92.4,915.7,89.1,913.6,86.2z"/>
<path id="V" d="M656.1,144.1c0.1-1.6,0.2-2.7,0.4-4c0.3-2.6,0.7-3.2,3.2-3c5.8,0.4,10.9,2.1,14.2,7.4c0.5,0.9,1.2,1.7,1.9,2.6
	c0.8-0.5,1.5-0.8,2.1-1.2c5.7-3.9,12-3.9,18.4-2.5c1.4,0.3,2,1.1,1.9,2.5c-0.1,1.7-0.3,3.3-0.5,5.3c-1.5,0-2.6,0-3.9,0
	c-4.3,0.2-7.2,2.5-7.6,6.9c-0.2,2.3-0.1,4.6,0.3,6.9c2,13.2,3.9,26.6,6,39.8c0.1,0.4,0.2,0.8,0.4,1.7c0.8-1.1,1.3-1.8,1.8-2.5
	c6.9-11.4,13.7-22.8,20.5-34.2c1-1.6,1.6-3.4,2.2-5.2c0.9-2.9-0.2-5.4-2.2-7.5c-0.9-0.9-2-1.6-2.7-2.5c-0.6-0.7-1.2-1.7-1.1-2.5
	c0.4-4.2,0.7-4.8,4.8-3.8c2.8,0.7,5.6,2.4,8.1,3.9c1.4,0.9,2.5,1.1,4.1,0.8c2.7-0.6,5.6-0.9,8.3-1.1c1.3-0.1,2.7,0.4,3.9,1
	c0.7,0.3,1,1.4,1.5,2.2c0,0.1,0,0.2,0,0.3c-0.3,1.9-0.1,3.9-0.9,5.5c-0.9,1.9-3.2,1-4.9,1.3c-4.8,0.7-8.3,3.2-10.7,7.5
	c-7.7,13.6-15.5,27.4-23.4,41c-3.1,5.4-6.7,10.6-10,16c-1.1,1.8-2.4,2.1-4.2,1.7c-3.4-0.9-7-1.7-10.4-2.4c-1.7-0.3-2.2-1.3-2.5-2.7
	c-0.7-4.7-1.4-9.3-2.1-14c-1.3-9.2-2.5-18.5-3.8-27.8c-1.2-8.7-2.5-17.5-3.6-26.2c-0.6-4.9-3.2-8-7.6-10
	C657.4,144.7,656.9,144.5,656.1,144.1z M680.4,218.2c0-0.9,0.1-1.7,0-2.4c-0.9-7.3-1.8-14.5-2.8-21.8c-1.5-9.8-3.1-19.6-4.4-29.5
	c-0.6-4.8-2.1-9.1-3.8-13.5c-0.2-0.6-0.7-1-1.1-1.5c0.8,8.3,2,16.4,3.1,24.4c1,6.1,2.1,12.2,3,18.2c1,6.4,1.8,12.8,2.6,19.3
	c0.2,1.7,0.5,3.3,0.7,5C678,217.7,678.7,218.3,680.4,218.2z"/>
<path id="F" d="M475.8,61.2c-1.9,1.7-4.1,1.5-6.3,1.7c-0.6,0-1.5-0.8-1.9-1.5c-2.8-5.1-7.5-5.6-12.5-5.1c-1.4,0.1-1.9,0.8-1.7,2.1
	c1,6.4,1.8,12.8,3,19.2c0.7,3.8,3.5,6.1,7.1,7.4c0.4,0.2,0.8,0.3,1.2,0.4c4.8,1.4,4.8,1.4,5.1,6.2c0.3,4.6,0,4.9-4.5,4.6
	c-5.1-0.3-9.7-1.8-13.5-5.1c-0.3-0.3-0.7-0.4-1.4-0.9c-5.1,5.7-11.2,9.6-19.4,9.4c-0.3-1.2-0.6-2.3-0.9-3.3c-0.5-2.5-0.4-2.8,1.9-4
	c2-1,2.8-2.8,3.5-4.6c1.1-2.9,1.6-6.1,1.2-9.3c-1.1-8.5-2.3-17.1-3.3-25.6c-0.6-5.1-1.1-10.2-1.6-15.3c-0.3-3.5-0.9-7.1-2.3-10.4
	c-1-2.4-2.6-3.9-5-4.9c-0.8-0.3-2-0.9-2.2-1.6c-0.5-1.5-0.7-3.1-0.5-4.6c0-0.5,1.5-1.1,2.3-1.1c5-0.4,9.9,0.1,14.5,2.1
	c2.3,0.9,3.8,0.8,6-0.8c5.9-4.3,12.5-6.6,19.8-4.9c2.8,0.6,5.5,2.1,8.2,3c0.5,0.2,1,0.4,1.7,0.6c1.2-1.4,2.3-2.7,3.4-4
	c1.9-2,5.6-1.1,6.3,1.5c1.6,5.8,2.9,11.6,4.3,17.4c0.2,0.7,0,1.5,0,2.1c-0.2,0.1-0.2,0.2-0.3,0.3c-2.1,0.7-4.1,2-6.2,2
	c-2.4,0-2.7-2.8-4.1-4.4c-2.7-2.9-5.3-5.9-8.6-8.2c-4.9-3.4-13.3-2.4-17.8,1.7c-1,0.9-1.4,1.8-1.3,3c0.7,6.3,1.3,12.5,2,18.7
	c0.2,1.6,1.1,2.2,2.5,2.3c3.5,0.3,6.4-1.1,8.2-4.1c0.9-1.6,1.6-3.1,2.3-4.8c0.5-1.4,1.4-2.1,2.7-2.2c1.7-0.1,3.3-0.3,5.2-0.4
	c0.8,3.4-0.2,6.3-1.2,9.1c-0.2,0.6-0.6,1.2-0.9,1.7c-1.1,1.9-0.9,3.4,0.6,5.1C473.8,54.4,475.3,57.5,475.8,61.2z M439,89.5
	c0.4-0.4,0.8-0.7,1-1.1c2.5-3.8,2.8-8,2.3-12.4c-0.7-5.2-1.6-10.3-2.2-15.5c-1-8.2-1.8-16.5-2.6-24.6c-0.3-2.6-0.7-5.4-1.3-8
	c-0.5-2.1-1.6-3.7-3.9-4.6c0.8,2.4,1.8,4.4,2,6.5c1.9,14.8,3.7,29.7,5.5,44.5c0.6,4.9,1.3,9.8-1,14.5
	C438.6,88.9,438.8,89.1,439,89.5z"/>
<path id="T" d="M528.9,133.4c1.6-1.3,2.7-2.5,4.2-3.2c5.4-2.7,10.9-2.8,16.3,0.1c1,0.6,2.1,0.9,3.1,1.4c2.5,1,4.8,0.6,6.4-1.8
	c0.8-1.3,2-1.5,3.2-1.5c1.4,0.1,2.2,0.8,2.3,2.2c0.1,1,0.1,1.9,0.2,2.8c0.3,6.8,0.6,13.6,0.8,20.4c0.1,4.1-2.3,7.1-6.9,8.4
	c-0.2-1.2-0.6-2.4-0.7-3.6c-0.7-4.8-1.7-9.5-4.1-13.7c-0.3-0.6-0.6-1.1-1-1.7c-2.7-4-4.4-4.9-7.9-3.9c-4.6,1.3-7,4.1-7.2,8.4
	c-0.1,1.6,0,3.1,0.1,4.7c0.6,14.9,1.2,29.7,1.9,44.6c0.2,4.7,1.7,6.7,6.1,8.3c0.9,0.4,2.3,1,2.4,1.8c0.3,1.7,0.2,3.5-0.1,5.3
	c-0.1,0.4-1.4,0.8-2.2,0.9c-4.4,0.5-8.2-0.9-11.7-3.5c-0.7-0.6-1.5-1.2-2.4-1.9c-4.5,5.1-10.2,7.3-16.8,7.4
	c-1.3-1.2-1.3-2.8-1.3-4.4c0-0.7,0.6-1.5,1.2-2.1c0.7-0.7,1.6-1.1,2.3-1.7c2.6-2.2,4.2-4.8,4-8.4c-0.3-5.7-0.5-11.3-0.8-17
	c-0.4-8-0.8-16.1-1.2-24.2c-0.2-4-0.4-7.9-0.5-12c-0.2-4.1-2.5-5.7-6.4-4.1c-4,1.7-7.1,4.7-8.4,8.8c-1.3,3.9-1.9,8.1-2.8,12.2
	c-0.1,0.6-0.2,1.2-0.3,2c-2.7-0.3-4.9-2.1-7.2-3c-0.5-0.2-0.7-1.3-0.7-2c-0.4-8.4-0.8-17-1.1-25.5c0-1-0.3-2.2,1-2.7
	c1.4-0.6,2.6-0.5,3.7,0.8c2.8,3.5,6.3,3.6,10.1,1.8c2.1-1,4.1-2.1,6.2-3c1.5-0.6,2.9-1.2,4.4-1.6c3.9-0.9,7.6-0.5,10.3,2.7
	C528,132.7,528.4,133,528.9,133.4z M524.4,202.7c0.2,0.1,0.5,0.2,0.7,0.3c0.6-0.8,1.4-1.6,1.6-2.5c0.6-1.9,1.2-3.8,1.2-5.8
	c-0.2-7.9-0.7-15.9-1.1-23.8c-0.4-7.8-0.8-15.7-1.4-23.5c-0.1-1.9-0.9-3.6-1.7-5.3c-0.5-1-1.3-2-2.6-2.3c0.6,2.3,1.4,4.2,1.6,6.3
	c0.8,15,1.5,30.1,2.2,45.1C525,195.1,525.6,198.9,524.4,202.7z"/>
<path id="C" d="M229.4,64.1c0.2-0.4,0.4-0.7,0.4-1c-0.3-3.8,2.2-5.1,5.2-5.8c2.4-0.5,2.7-0.5,3.5,1.8c1.6,4.1,3.1,8.2,4.6,12.4
	c1.1,3,2.3,6.1,3.3,9.1c0.3,0.9,0.4,1.8,0.6,2.6c-0.5,0.3-0.7,0.5-1,0.6c-1.5,0.5-3.1,1.7-4.4,1.4c-1.3-0.3-2.2-2.1-3.2-3.2
	c-3.4-3.6-7.1-7.2-11.4-9.8c-6.7-4-15.9-1.5-19.4,5.5c-2.6,5.2-2.8,10.9-2.7,16.6c0.2,5.8,1,11.6,3,17c1.6,4.1,3.9,8.1,6.4,11.9
	c1.8,2.7,3.9,5.2,6.2,7.5c7.1,7.1,16.8,7.3,23.6,3.1c4.2-2.5,6.6-6.8,7.6-11.5c0.9-3.7,1.2-7.6,1.8-11.5c0.4-2.5,0.3-2.5,2.8-2.7
	c5.2-0.5,5.4-0.1,5.6,5.1c0.3,6.9-0.9,13.4-4.6,19.2c-5.5,8.6-13.1,14.4-23.2,17c-8.6,2.3-16.7,0.9-24.2-3.5
	c-5.1-2.9-9-7.5-12.6-12.2c-7.4-10.1-10.9-21.5-10.8-33.8c0.1-7.7,2-15.3,6.2-21.8c6.3-9.5,15.5-14.1,26.8-14.5
	c2.5-0.1,5,0.3,7.6,0.5C227.9,64,228.7,64,229.4,64.1z M193.9,84.6c-0.2,0-0.3-0.1-0.5-0.1c-0.3,0.5-0.6,1.1-0.8,1.6
	c-3.6,10.1-2.9,20.3,0.6,30.1c2.9,8.3,7.1,16,13.8,22.1c5.6,4.9,11.6,8.5,19.3,8.1c-0.2-0.2-0.3-0.4-0.5-0.4
	c-7.9-2.3-14.5-6.6-19.3-13.1c-3.2-4.5-6.1-9.3-8.5-14.2c-5-9.9-6.3-20.5-4.5-31.5C193.7,86.2,193.8,85.4,193.9,84.6z"/>
<path id="J" d="M759.2,31c6.2,0.6,11.8,2.5,16.4,6.7c0.5,0.4,0.9,0.9,1.4,1.3c3.7,3.6,2.5,3.1,6.8,1c3.7-2,7.6-2.8,11.9-1.7
	c2.5,0.7,2.6,0.7,2.4,3.1c0,0.4-0.1,0.8-0.2,1.3c-0.6,4.7-0.6,4.7-5.3,5.2c-4.2,0.4-6.5,2.5-7.4,6.5c-2,9.7-3.8,19.5-6,29.2
	c-1,4.4-2.2,8.7-3.8,12.9c-4.4,10.9-14.8,17.5-27.3,16.8c-4.7-0.3-9.4-1.1-13.9-2.5c-8.4-2.5-13.8-8.3-16.7-16.6
	c-2.2-6.5,1.3-14.9,7.3-17.7c5.4-2.5,11.5-0.5,14.6,4.9c2.9,5,1.9,10.6-2.8,14.3c-0.2,0.1-0.4,0.2-0.5,0.4c-1,0.9-2.8,1.2-2.6,2.8
	c0.2,2,0.8,3.9,2.5,5.3c2.4,1.9,5.1,2.5,7.9,2.2c7-0.9,12.2-6.1,13.6-13c2.9-14.2,5.8-28.5,8.7-42.8c0.8-3.7-0.2-6.9-3.2-9.2
	c-0.6-0.5-1.2-0.9-1.8-1.3C756.9,37.1,756.7,36.1,759.2,31z M769.6,43c0.7,2.5,0.9,5,0.3,7.5c-1.7,7.6-3.2,15.3-4.9,23
	c-1.4,6.8-2.8,13.5-4.2,20.3c-0.6,2.9-1.3,6-3.2,8.4c-0.1,0.2,0,0.6,0,1.1c2.9-1.8,4.5-4.3,5.3-7.4c0.9-3.2,1.4-6.6,2.1-9.8
	c1.5-6.7,2.9-13.2,4.3-19.9c1.1-5.4,2.2-10.9,2.9-16.4C772.4,47.3,771.9,44.7,769.6,43z M731,79.9c-2.6-1.9-4.4-1.1-6,0.1
	c-3.4,2.5-5,5.9-4.8,10c0.1,2.7,1.1,5.2,3.6,7c-0.5-2.5-1.1-4.7-1.2-6.9c-0.1-2.4,0.4-4.8,2-6.9C726.1,81.2,728,80.1,731,79.9z"/>
<path id="I" d="M702.1,24.4c5.7-3,11.6-4.2,18.3-2.8c-0.1,2.1-0.2,4-0.4,6c-0.1,1.3-1.2,1.6-2.3,1.9c-1.7,0.5-3.4,0.9-5.1,1.7
	c-2.5,1.2-4,3.1-4.4,6c-1.3,11-2.6,22.1-4,33c-0.7,5.7-1.5,11.5-2.3,17.2c-0.1,0.5-0.1,1.1-0.2,1.6c-0.9,4.2,0.8,7.4,4.4,9.5
	c0.8,0.4,1.9,1.3,1.9,1.9c0,1.4-0.4,2.9-1,4.2c-0.2,0.5-1.5,0.7-2.3,0.6c-4.8-0.6-9.2-2.1-12.5-5.9c-0.9-1-1.8-2-2.7-2.9
	c-2.1,1-3.7,2.1-5.6,2.6c-2.6,0.9-5.5,1.5-8.2,2c-1.8,0.3-2.4-0.2-2.4-2c0-1.3,0.1-2.5,0.4-3.7c0.2-0.7,0.9-1.6,1.5-1.8
	c5.8-1.8,7.7-6.5,8.4-11.8c1.5-10.5,2.6-21,4-31.5c0.6-4.6,1.1-9.1,1.9-13.7c0.8-5-1.4-8.4-5.5-11c-0.9-0.5-2.3-1.2-2.3-1.9
	c-0.1-1.5,0.3-3.1,0.9-4.5c0.2-0.6,1.6-1,2.4-1c5.1-0.4,9.7,1,13.7,4.2C700.1,22.8,701,23.5,702.1,24.4z M685.4,90.5
	c2.5-1.8,3.5-3.6,4-5.8c1.6-7.1,3-14.1,3.7-21.3c0.7-6.8,1.5-13.5,2.3-20.3c0.3-2.7,0.8-5.4,1-8.1c0.3-3.1-0.9-5.6-3-6.7
	c0.3,2,0.9,3.9,0.8,5.8c-0.2,3.8-0.8,7.7-1.3,11.6c-0.8,5.9-1.7,11.8-2.3,17.7C689.7,72.4,688.7,81.3,685.4,90.5z"/>
</svg>
