<?xml version="1.0" encoding="UTF-8"?><svg id="a" xmlns="http://www.w3.org/2000/svg" viewBox="0 0 595.28 841.89"><path d="M142.84,11.08h-.07l-3.84,2.07-.58-2.28,4.83-2.58h2.55V30.39h-2.89V11.08Z" fill="#1d1d1b"/><g><path d="M215.62,60.62h-.07l-3.84,2.07-.58-2.28,4.83-2.58h2.55v22.1h-2.89v-19.31Z" fill="#1d1d1b"/><path d="M241.25,68.65c0,7.51-2.79,11.66-7.68,11.66-4.32,0-7.24-4.05-7.31-11.35,0-7.41,3.2-11.49,7.68-11.49s7.31,4.15,7.31,11.18Zm-12,.34c0,5.75,1.77,9.01,4.49,9.01,3.06,0,4.52-3.57,4.52-9.21s-1.39-9.01-4.49-9.01c-2.62,0-4.52,3.2-4.52,9.21Z" fill="#1d1d1b"/></g><g><path d="M248.05,149.3h-.07l-3.84,2.07-.58-2.28,4.83-2.58h2.55v22.1h-2.89v-19.31Z" fill="#1d1d1b"/><path d="M271.61,148.62c-.61-.03-1.39,0-2.24,.14-4.69,.78-7.17,4.22-7.68,7.85h.1c1.05-1.39,2.89-2.55,5.34-2.55,3.91,0,6.66,2.82,6.66,7.14,0,4.05-2.75,7.79-7.34,7.79s-7.82-3.67-7.82-9.42c0-4.35,1.56-7.79,3.74-9.96,1.84-1.8,4.28-2.92,7.07-3.26,.88-.14,1.63-.17,2.18-.17v2.45Zm-.85,12.75c0-3.16-1.8-5.07-4.56-5.07-1.8,0-3.47,1.12-4.28,2.72-.2,.34-.34,.78-.34,1.33,.07,3.64,1.73,6.32,4.86,6.32,2.58,0,4.32-2.14,4.32-5.3Z" fill="#1d1d1b"/></g><path d="M217.86,254.6v-6.02h-10.27v-1.97l9.86-14.11h3.23v13.73h3.09v2.35h-3.09v6.02h-2.82Zm0-8.36v-7.38c0-1.16,.03-2.31,.1-3.47h-.1c-.68,1.29-1.22,2.24-1.84,3.26l-5.41,7.51v.07h7.24Z" fill="#1d1d1b"/><path d="M136.69,305.25c.65,.07,1.39,0,2.41-.1,1.73-.24,3.37-.95,4.62-2.14,1.46-1.33,2.52-3.26,2.92-5.88h-.1c-1.22,1.5-2.99,2.38-5.2,2.38-3.98,0-6.53-2.99-6.53-6.77,0-4.18,3.03-7.85,7.55-7.85s7.31,3.67,7.31,9.31c0,4.86-1.63,8.26-3.81,10.37-1.7,1.67-4.05,2.69-6.43,2.96-1.09,.17-2.04,.2-2.75,.17v-2.45Zm1.09-12.71c0,2.75,1.67,4.69,4.25,4.69,2.01,0,3.57-.99,4.35-2.31,.17-.27,.27-.61,.27-1.09,0-3.77-1.39-6.66-4.52-6.66-2.55,0-4.35,2.24-4.35,5.37Z" fill="#1d1d1b"/><path d="M50.86,254.6v-1.84l2.35-2.28c5.64-5.37,8.19-8.23,8.23-11.56,0-2.24-1.09-4.32-4.39-4.32-2.01,0-3.67,1.02-4.69,1.87l-.95-2.11c1.53-1.29,3.71-2.24,6.26-2.24,4.76,0,6.77,3.26,6.77,6.43,0,4.08-2.96,7.38-7.62,11.86l-1.77,1.63v.07h9.93v2.48h-14.11Z" fill="#1d1d1b"/><path d="M8.71,163.01c0-2.79,1.67-4.76,4.39-5.92l-.03-.1c-2.45-1.16-3.5-3.06-3.5-4.96,0-3.5,2.96-5.88,6.83-5.88,4.28,0,6.43,2.69,6.43,5.44,0,1.87-.92,3.88-3.64,5.17v.1c2.75,1.09,4.45,3.03,4.45,5.71,0,3.84-3.3,6.43-7.51,6.43-4.62,0-7.41-2.75-7.41-5.98Zm11.9-.14c0-2.69-1.87-3.98-4.86-4.83-2.58,.75-3.98,2.45-3.98,4.56-.1,2.24,1.6,4.22,4.42,4.22s4.42-1.67,4.42-3.94Zm-8.23-11.05c0,2.21,1.67,3.4,4.22,4.08,1.9-.65,3.37-2.01,3.37-4.01,0-1.77-1.05-3.6-3.74-3.6-2.48,0-3.84,1.63-3.84,3.54Z" fill="#1d1d1b"/><g><path d="M35.58,61h-.07l-3.84,2.07-.58-2.28,4.83-2.58h2.55v22.1h-2.89v-19.31Z" fill="#1d1d1b"/><path d="M46.53,80.31v-1.84l2.35-2.28c5.64-5.37,8.19-8.23,8.23-11.56,0-2.24-1.09-4.32-4.39-4.32-2.01,0-3.67,1.02-4.69,1.87l-.95-2.11c1.53-1.29,3.71-2.24,6.26-2.24,4.76,0,6.77,3.26,6.77,6.43,0,4.08-2.96,7.38-7.62,11.86l-1.77,1.63v.07h9.93v2.48h-14.11Z" fill="#1d1d1b"/></g><g><line x1="67.88" y1="84.58" x2="198.97" y2="226.48" fill="#1d1d1b"/><g><path d="M200.61,224.66c.17,.23,.4-.13,.49-.14-.39-.29-.56,.23-.49,.14Z" fill="#1d1d1b"/><polygon points="196.71 221.85 196.9 221.8 196.12 221.57 196.71 221.85" fill="#1d1d1b"/><path d="M193.73,218.61c-.24,.79,1.17,1.09,1.51,1.84l-.03,.21,.66-.13c-.71-.64-1.83-1.29-2.14-1.92Z" fill="#1d1d1b"/><path d="M193.27,215.84c-.11,.3-.52-.21,.31,.46-.01-.06-.01-.08-.02-.12-.07-.07-.16-.16-.29-.34Z" fill="#1d1d1b"/><path d="M193.57,216.18c.33,.33-.03-.38,0,0h0Z" fill="#1d1d1b"/><path d="M192,214.72l.6,.28c.03-.21-.31-.63-.08-.56-.52-.37-.56-.16-.51,.28Z" fill="#1d1d1b"/><path d="M191.22,214.64l.29,.16c.01-.09-.03-.17-.29-.16Z" fill="#1d1d1b"/><path d="M192.13,215.15l-.62-.34c-.02,.14-.19,.31,.27,.17-.19,.1,.05,.06,.35,.17Z" fill="#1d1d1b"/><path d="M192.31,215.5c.12,.36,.35,.75-.25,.47,.86,.79,1.12,.32,.25-.47Z" fill="#1d1d1b"/><path d="M193.04,218.95l.16,.48,.44,.13c-.22-.06-.46-.78-.6-.61Z" fill="#1d1d1b"/><path d="M189.69,211.67c-.14,.08-.16,.43-.27,.59l.43,.21c-.08-.24-.31-.63-.16-.8Z" fill="#1d1d1b"/><path d="M189.42,212.26l-.65-.32c.39,.46,.55,.46,.65,.32Z" fill="#1d1d1b"/><polygon points="190.56 215.1 191.72 215.54 190.41 214.95 190.56 215.1" fill="#1d1d1b"/><polygon points="187.95 209.76 188.47 209.81 187.62 209.67 187.95 209.76" fill="#1d1d1b"/><path d="M186.74,208.55c.41,.01,.1-.62,.43-.52-.35-.31-.81-.43-1.21-.54,.35,.19,.6,.51,.78,1.06Z" fill="#1d1d1b"/><path d="M185.32,207.27c.18,.09,.4,.15,.65,.22-.19-.1-.39-.18-.65-.22Z" fill="#1d1d1b"/><path d="M188.04,211.05c.03-.1,.14-.34-.04-.68l-.13,.48c.05,.06,.11,.13,.18,.2Z" fill="#1d1d1b"/><path d="M187.86,210.86v-.02c-.18-.22-.31-.37-.37-.44,.05,.06,.16,.19,.37,.45Z" fill="#1d1d1b"/><path d="M188.08,211.1s-.03-.03-.04-.05c-.01,.05-.01,.07,.04,.05Z" fill="#1d1d1b"/><path d="M189.65,213.54c-.44-.13-1.19-.56-.92,.27,.41,.01,.25-.47,.92-.27Z" fill="#1d1d1b"/><path d="M187.92,211.7l.41,.59c.07-.09,.11-.29,.33-.23l-.74-.36Z" fill="#1d1d1b"/><polygon points="187.58 211.54 187.92 211.7 187.76 211.48 187.58 211.54" fill="#1d1d1b"/><path d="M185.86,208.45c-.35-.1-.59-.34-.87-.6,.22,.36,.47,.7,.74,1,.14-.05,.43-.08,.12-.4Z" fill="#1d1d1b"/><path d="M186.8,209.65s-.04-.03-.06-.03c0,.06,.02,.09,.06,.03Z" fill="#1d1d1b"/><path d="M182.43,205.08s-.01,.06-.02,.1c.02-.01,.04-.03,.06-.04l-.05-.06Z" fill="#1d1d1b"/><path d="M185.72,208.95c.15,.28,.35,.35,.57,.39-.19-.14-.37-.3-.55-.49-.06,.02-.09,.05-.01,.1Z" fill="#1d1d1b"/><path d="M184.46,206.64c.04,.18,.11,.36,.19,.55,0-.21-.07-.59-.19-.55Z" fill="#1d1d1b"/><path d="M186.75,209.46s.03,.01,.05,.02c0-.14-.03-.1-.05-.02Z" fill="#1d1d1b"/><path d="M186.75,209.46c-.15-.07-.31-.09-.47-.12,.15,.12,.3,.21,.45,.28,0-.05,0-.11,.02-.16Z" fill="#1d1d1b"/><path d="M179.64,206.1c.33-.23,1.15,.12,1.31,.92,.69,.3,1.34-.91,1.46-1.85-.14,.1-.26,.21-.91-.15,0,.33,.7,1.5,.03,1.3-.79-.55-.42-.66-.57-1.14-.1,.62-1.34-.39-1.73,.25l.75,.43c-.07,.09-.41,0-.33,.23Z" fill="#1d1d1b"/><path d="M183.3,206.19l.23,.18c-.17-.29-.22-.57-.29-1.11-.47-.23-.65-.2-.77-.13l.93,1.09-.11-.03Z" fill="#1d1d1b"/><path d="M184.43,207.33c-.47,.13-1.08-.26-1.13,.37,.6,.61,.67,.2,1.16,.44-1.02-.94,.45,.13-.05-.77,.24,.15,.42,.31,.59,.47-.13-.22-.25-.44-.34-.66,0,.02,0,.03,0,.04h0c0,.09,0,.12-.03,.05,0,0-.02-.01-.03-.02-.05,.03-.11,.05-.16,.06-.21-.35,.04-.12,.16-.06,.02-.01,.04-.02,.06-.03h0l-1.11-.86c.15,.26,.41,.52,.89,.96Z" fill="#1d1d1b"/><path d="M187.55,213.9c0-.06,.02-.08,.04-.1-.1-.03-.15-.03-.04,.1Z" fill="#1d1d1b"/><path d="M187.35,213.3c.11,.03,.3-.02,.48,.25,.1,.3-.15,.14-.25,.25,.22,.07,.69,.3,.43-.3l-.11-.03c-.27-.51-.36-1.4-.25-1.37-.17,.38-.28,.68-.31,1.21Z" fill="#1d1d1b"/><path d="M185.78,210.36l-.94-.7,.12,.68,.14-.17c.38,.54,.49,.25,.67,.19Z" fill="#1d1d1b"/><polygon points="182.5 204.83 182.94 204.64 182.01 204.59 182.5 204.83" fill="#1d1d1b"/><polygon points="181.44 203.77 181.77 203.54 181.33 203.42 181.44 203.77" fill="#1d1d1b"/><path d="M120.53,145.07l-.31-.17c.13,.09,.23,.14,.31,.17Z" fill="#1d1d1b"/><path d="M122.17,146.89l.18-.09c-.16-.01-.25,0-.18,.09Z" fill="#1d1d1b"/><path d="M156.47,176.8c-.06-.61-.02-1.41-.3-1.06l-.22,.41c.29,.2,.43,.43,.52,.66Z" fill="#1d1d1b"/><path d="M137.48,160.07c0,.06,0,.13,0,.2,.19-.01,.37-.02,.53-.04-.16-.04-.34-.1-.53-.16Z" fill="#1d1d1b"/><path d="M135.93,161.03l-.24-.67c.03,.17,.1,.39,.24,.67Z" fill="#1d1d1b"/><path d="M111.11,135.55h-.59c.42,.46,.4,.11,.59,0Z" fill="#1d1d1b"/><path d="M170.93,192.62c-.16-.43-.34-.72-.53-.96,.16,.55,.17,1.1,.53,.96Z" fill="#1d1d1b"/><path d="M124.56,142.65c-.2-.1-.32-.1-.39-.03,.2,.11,.34,.14,.39,.03Z" fill="#1d1d1b"/><path d="M169.56,190.76c.02,.08,.05,.15,.08,.23,.26,.18,.52,.37,.76,.67-.12-.4-.33-.8-.83-.9Z" fill="#1d1d1b"/><path d="M78.44,99.66s-.03-.08-.04-.12c-.05,.03-.02,.07,.04,.12Z" fill="#1d1d1b"/><path d="M72.07,86.31c.11,.08,.27,.25,.42,.4-.05-.1-.17-.22-.42-.4Z" fill="#1d1d1b"/><path d="M177.5,199.22c.24,.21,.07,0,0,0h0Z" fill="#1d1d1b"/><path d="M177.28,201.52c-.08-.02-.16-.01-.24,.05,.09-.05,.17-.06,.24-.05Z" fill="#1d1d1b"/><path d="M165.43,190.27l-.02-.02c0,.13,0,.1,.02,.02Z" fill="#1d1d1b"/><path d="M177.68,199.71c-.04-.12-.1-.25-.18-.39,.02,.07,.07,.19,.18,.39Z" fill="#1d1d1b"/><path d="M177.78,199.52c.06,.09,.11,.16,.16,.23,.08-.02,.09-.08-.16-.23Z" fill="#1d1d1b"/><path d="M177.18,198.91c.13,.13,.23,.27,.32,.41-.02-.07-.02-.1,0-.1-.07-.06-.16-.15-.32-.31Z" fill="#1d1d1b"/><path d="M96.94,117.98s-.01-.05-.02-.08c-.35-.11-.23-.03,.02,.08Z" fill="#1d1d1b"/><path d="M147.55,173.79s.03,0,.04,.01c0-.01-.02-.03-.02-.04l-.02,.03Z" fill="#1d1d1b"/><path d="M146.54,173.17c.73,0,.86,.24,1.03,.59l.66-1.13-1.69,.54Z" fill="#1d1d1b"/><path d="M116.46,140.85l.26,.85c-1.13-.27-1.44-.94-1.33-.01,1.07-.84,2.21,2.19,3.29,1.35l.15,.58c-.09-.12-.17-.08-.26-.2,.22,1.2,1.24-.11,1.99,1,.24,.41,.31,.78-.02,.66l.94,.53c.18,.24-.04,.34-.22,.11l1.14,1.08-.04,.02c.31,.02,.89,.17,1.16,.25,.13,.42-.24-.05-.3,.14l.83,.41c-.02,.5-.76,.2-1.13-.27-.45,1.52,.74,.3,1.34,2.12l-.68-.48c-.21,.91,.43,1.19,.71,2.2,.04-.33-.37-2.18,.52-1.72,.1,.26,.31,.55,.85,.74-.35,.33,.07,.61,.51,1.05l-.5,.4c.59,.37,.79,.11,1.27,.2,.46,.59,.2,1.04,.01,1.45,.74,.95,.02-1.15,1.07-.19,.5,.9,1.16,1.23,2.25,1.85,.31,.66-.37,.18-.33,.48l.79,.11c.09,.12-.05,.19-.13,.23,.5,.25,.5-.4,1.18,.08,.67-.32,.38,1.93,1.66,2.13,.04,.31-.37,.18-.5,.4,1.33,.66,1.09,.62,2.38,.97l.35,1c-.13-.85,.9-.57,1.79-.3,0-.34,0-.64-.03-.81l1.12,.7c.03,.18-.22,.24-.56,.27,.1,.03,.19,.05,.27,.07,.14,.5-.3,.57-.78,.57-.01-.2-.02-.4-.02-.61-.5,.03-1.02,.11-1.25,.41,.11,.01,.27,.09,.41,.19-.13,.01-.24,.04-.26,.11-.02,.08,.17,.08,.44,.12l-.33,.7,.26-.14,.8,1.53c1.34,.39,2.82,.44,4.32,1.63-.7,0-.7,.51-1.17,.91,.13-.82-1.2-.89-1.77-1.7,.3,.42,0,.54-.16,.51l1.63,.88c-.4,.31-.03,.53,.13,1.01,.5-.93,1.38,.51,2.09,.82-.22,.26-.59,.37-1.12-.33,.1,1.22,1.71,.11,1.87,1.24-.15-.15-.19-.27-.37-.22,.56,.16,1.2,1.21,.8,1.2l-.15-.15c.87,1.12,2.91,3.16,3.67,2.73-.07,.08-.88,.56-1.06,.61l3.81-.09c-.69,.33-1.39,2.14-2.48,1.56,.15,.32,.34,.7,1.01,1.05-.08-.24,.39-1.14,.65-.95-.01,1.18,.09,.73,.29,1.98-.12-.36,.98-.86,1.32-.43-.18,.05-.8,.8-1.02,.74l1.74,.23c-.38-.11-.74,.6-.77,1.04,.07-.25,.78,.87,1.1,1.06l-.2-.6c.91,1.23,2.18,.03,3.17,1.18-.29,.02-1.36,.64-.94,1.3,.66-.13,3.09-.73,4.33-.05l-.07,.41,.97,.5c-1.07,.12-3.63,.04-4.81-.2,.2,.6-.18,.38,.42,.99-.02,.43-.66-.02-.84-.2l1.2,1.6c.43-.52,1.53,.66,1.89,.22l-1.98-1.11c.43-.52,2.25-.38,3.12,.74,.05,.44-1.06,.62-1.21,.79,.29-.02,1.23,.68,1.2,.89l-.67-.2c.35,.75,1.52,.34,1.69,1.46,.19,.27,.02,1.3,.35,1.07,.2-.91,1.88-2.6,2.54-2.73,.04,.12,.62,1.75,.59,2.28-.08,.8-1.6,.38-1.67,1.07,.15-.11,.52-.05,.65,0,.12,.36-.51,.28,.05,.77,.58-.37,.98,1.15,.66-.13,.64,.4,.42,.66,1.02,1.27,.14-.5,1.62-.45,2.26-.05-.16,.09-.21,.36-.23,.49,.97,1.14,1.28,1.93,2.22,2.96-.03,.21,.27,.83-.14,.82,.22,.06,.52,.04,.82,.35,.13,1.01-.72-.64-.81,.31,.33-.23,1.15,.44,1.75,.72,.32-.55-.87-1.11-1.47-1.4,.62-.57,1.99-.39,3.26,.41,.94,.7-.06,.74,.16,.8,1.36,1.69,2.33,.36,3.11,2.09,.09,.89-.76,.75-.94,1.13-.79-.55-.73-1.29-1.18-1.74l.35,.75c-.33-.1-.86-.47-.98-.82,.05,.77,2.42,2.75,3.22,4.28,.33,.1,.82,.35,.81,.02l-.41-.34c-.01-.65,1.12,.32,.81-.31,.71,.31,1.6,.57,2.09,1.47l-.32,.55c.12-.14-.17-.73-.5-.81,.48,.12,.43,1.69,1.33,1.48l-.16-.8c.71,.31,1.79,.52,2.24,1.3,.17-.71-.19-.1-.1-1.05-.28,1-1.51-1.69-1.6-.42,.17-1.03-.5-1.06-.56-2.15-.13,.16-.08,.48-.51-.13-.07,.02-.18,0-.24,0-.01-.02-.01-.03-.02-.05,0,.02,0,.03,.01,.05-.04,0-.05,0,0,.02,.06,.19,.07,.37,.03,.49-.59,.04-1.38-.83-1.83-.96-.23-.39,.3-.02,.29-.35l-.67-.19c.29-.35-.25-1.37,.65-.78l-.62-.7c-.19-.58-.63-1.2-1.08-1.41-.23-.39-1.12-.48-.6-.44l-1.2-.89,.07-.09c-.94-1.1-2.57-1.68-3.09-3.45-.41-.28-.86-.56-1.32-1.24l.18-.38c-.52-.37-.99-1.64-1.47-1.57,.31-1.2-1.89-2.38-2.5-3.32l-.4,.31c-.49-.58-1.09-1.01-1.88-1.56l-.29,.35c-.82-.35-1.18-1.75-2.08-2.66,.19-.05,.37,.22,.45,.46-.29-1.81-2.73-1.87-3.13-3.39-.35-.14-.48-.37-.57-.62,.02,.02,.05,.04,.08,.05-.02-.03-.06-.07-.09-.11-.05-.16-.09-.34-.15-.51,.02,.18,.05,.34,.1,.46-.19-.19-.5-.45-.85-.66l.24-.45s-.04-.04-.07-.06c-.13-.41-.38-.08-.51,.32-.19-.09-.39-.16-.57-.19,.36-.76-.9-.59-.58-1.47-.48,.08-1.58-1.26-2.34-.84,.07-.09,.03-.21,.18-.05-.23-.39-.46-.78-.9-.91l.32-.55-1.26-.15c-.12-.68-.13-1.01,.61-.9-1.49-.54-.97-.65-2.31-1.04l.33-.23c-.3-.3-1.15-.45-1.09-.86-.1-1.21-3.13-3.55-4.29-5.82-.53,1.14-.39-1.19-1.12-.65,.11-.29-.01-.65,.43-.52-1.05-.74-.96-1.68-2.1-1.8,.11-.29,.48-.08,.51-.28-.11-.03-.45-.13-.41-.34,.03-.21,.29-.02,.52,.04-.9-.91-1.61-.43-2.26,.05-.16-.73-.42-.93-1.12-.92,.04-.34-.02-.8,.59-.28-.28-.35-1.57-2.27-2.07-1.87,.02-.21-.39-.49-.52-.53-.65-.76-.67-.87-1.38-1.55l.11,.27c-.83,.24-.68-.49-1.29-1.01l.07-.04c-.83-1.72-.73-.4-1.48-2.15l-.29,.4c-.87,.58-.63-1.58-1.63-2.08l.05,.46c-.65-.18-.05-2.12-.34-2.63-.02-.15,.24,.05,.41,.13-.57-1.51-.59,.28-1.46-.44,.11-.38,.81-.39,.35-.98-.05-.46-2.29-.85-2.51-2.05-.04,.34-.08,.68-.57,.44-.61-.52-.73-2.25-1.82-2.22-.02-.12,0-.2,.05-.24-.57-.3-1.6-1.21-2.18-1.18,.84-1.54-3.15-2.23-2.02-3.25l-1.33-1.32,.15-.07c-.74-.95-1.29-1.01-1.85-1.07-.11-.27,.13-.22,.2-.26-.96-1.49-1.12-1.57-2.68-2.13l.26-.45c-.48-.1-1.14-2.38-2.73-3.25,.05-.03,.15-.06,.29-.01-1.73-1.02-2.12-4.32-3.92-3.61l-1.19-.63c1.01,1.3-.74,.35-.5,1.05-.52-.4-.73-1.6-.13-1.08l.02,.15c.89-.42-1.14-1.73-.64-2.13-2.23-2.35-3.99-5.01-6.01-7.27l-.3,.75-.69-.8c-.06-.32,.17-.66,.66-.09,.04-.57-1.11-.69-1.24-.6-.78-1.29,1.02-.16,.72-.5l-.46-.41,.03,.16c-.56-.16-.82,.02-1.41-.67-.28-.52,.13-.52,0-.71,.04-.03,0-.11-.22-.27l-.86-1.02-.06,.78c-.61-.24-.83-.94-.89-.05,.13-1.35-3.11-3.89-3.25-4.51-.87-.32-1.42-.93-2.07-1.7,.08,.27-.29,.82-.83,.12,1.2-.68-.66-1.57-.43-2.74-.04,.9-1.8-1.71-1.79-.37-.41-.61,.34-.37,.2-.99-1.56-.92-2.34-3.03-3.92-4.49-.15,.09-.11,.54-.61,.38l-.12-1.43c-.35-.25-1.01,.4-1.09-.58-.03,.18-.09,.45-.32,.28-2.22-3.66-6.33-5.82-8.04-10.04,.14,.65-.14,.4-.45,.08,.13,.27-.32,.29-.46,.49l-.72-1.76c-.71,.21-1.33-1.37-1.92-1.08l.47,.34c-1.06-.04-.51,1.9-1.28,2.47,1.19,.04,.58,2.48,2.41,2.67,.06,.36-.4,.02-.46,.29,.54-.02,.89,.23,1.28,.93h-.13c1.57,1.55,1.91,2.52,3.39,4.51l.22-.46c.31,.43,.28,.62,.36,.88,.94-.04-.98-1.12-.02-1.25-.23,1.17,2.53,2.76,2.05,3.85,.55,.6,.24-.55,.79,.06l-.07,.36,.42-.11c.32,.44,.23,.89,.06,1.07-.07-.12-.3-.22-.41-.31,.21,.75,1.42,1.36,1.49,1.61l-.4-.7c1.72,1.45,3.28,3.71,5.18,4.88l.05-.27c1.42,.93,.71,1.13,2.08,2.33h-.08c.41,.1,.82,.38,1.13,.76-.5-.16,.21,.98-.41,.73,1.54,1.01,.85,.41,2.26,.71l-.09,.45c.52,.07,.67-.03,1.35,.57-.74-.33-.02,.81-.9,.48,.69,1.94,2.51,1.51,2.22,2.95,1.34-.06-.69-1.59-.2-1.38-.03-.53,1.05,0,1.38,.51,.39,.46-.27,1.65,.78,2.75-.1-.11-.16-.07-.26-.18,.19,.6,1.02,.58,1.18,1.38,.72-.13,.59,.69,1.25,.24l-1.08-.9c.69,.44,1.87,.36,2.43,1.62-.19,.03-.6-.11-.87-.22,.09,.44,.61,.43,.7,.89-.66,.46-1.28-1.13-2.29-1.34,.03,.53,1.51,.79,.59,1.06,1.22-.29,.92,1.19,2.23,1.38l-.39,.27c.17,.07,.56,.16,.75,.39l-.82,.02c.95,.26,.75,1.49,1.51,1.88-1.15-1.22,.17-.66-.06-1.42,1.87,1.09-.11,1.71,1.63,3.26-.26-.18-.59-1.06-.09-.85,.23,.39,.49,.94,.49,1.31,1.11,1.06,.2-.5,.86-.22-.07,.78,.68,.39,1.27,.76l-.35,.33c.96,1.49,1.05-.34,1.84,1.07l-.94-.03,.68,.48-.52,.25c.9,.38,1.01,.65,1.49,1.4,.11-.38,.72-.51,1.26,.05,.15,.58-.54,.09,.26,.85-.39,.02-.85,.08-.85-.57-.15,.07-.39,.03-.54,.09,.14,.64,.91,1.1,1.19,1.39-.09-.12-.2-.28-.21-.39l1.57,.71c.04,.31-.2,.26-.44,.21,.26,.2,.57,.21,.92,.53-.37,.18-.65,.47-1.24,.11l1.35,.82c-.06,.19,.18,.89-.06,.84,.4,.77,1.96,1,2.49,2.02,.1,0,.23,.03,.43,.16,.64,.83,.92,1.83,2.15,2.38l-.04,.99c.78,.6,0-1.3,1.3-.29,.94,.69-.15,.72-.02,1.15,.65,.18,1.85,.41,2.14,1.57-.33-.17-.44-.44-.7-.64Zm8.35,8.58c-.23-.1-.77-.23-.68-.55,.59-.18,.53,.15,.68,.55Zm13.2,12.57c-.23-.02-.36-.27-.43-.61,.18,.13,.33,.33,.43,.61Zm36.85,34.94s-.02,0-.03,0c-.21-.51-.14-.32,.03,0Zm.57,.93c.12,.03,.17-.02,.19-.1-.14,.03-.31-.14-.47-.37-.04,.14-.01,.3,.29,.47ZM97.03,113.28l.05,.24c-.42-.25-.24-.24-.05-.24Z" fill="#1d1d1b"/><path d="M136.11,160.93c.02-.1,.07-.18,.13-.25-.12-.01-.19,.05-.13,.25Z" fill="#1d1d1b"/><path d="M111.22,135.55s-.01-.02-.02-.03c-.03,0-.06,.02-.09,.03h.11Z" fill="#1d1d1b"/><path d="M161.13,188.42c-.1-.21-.12-.36-.11-.48-.09,.07-.1,.21,.11,.48Z" fill="#1d1d1b"/><path d="M179.89,201.49l-.56-.42c.24,.23,.25,.39,.3,.56,.07-.09,.1-.29,.25-.14Z" fill="#1d1d1b"/><path d="M181.75,207.9c.11,.03,.15,.15,.26,.18l.15-.17c-.3-.3-.64-.4-.41-.01Z" fill="#1d1d1b"/><path d="M179.14,203.04c-.26,.32,.13,.54,.52,.84-.02-.02-.04-.04-.06-.06,.51-.28,.03-.53-.46-.78Z" fill="#1d1d1b"/><path d="M179.74,203.96c.11,.1,.23,.2,.31,.32,.21-.11-.09-.16-.31-.32Z" fill="#1d1d1b"/><path d="M176.54,198.68c.08,.24,.48-.25,.44-.04,.55-.16-1.49-.69-.44,.04Z" fill="#1d1d1b"/><polygon points="178.42 204.24 178.67 203.77 178.2 203.84 178.42 204.24" fill="#1d1d1b"/><path d="M176.11,201.19l.42,.66c.05-.07,.16-.03,.27,.04-.31-.36-.59-.81-.69-.7Z" fill="#1d1d1b"/><path d="M176.8,201.89c.16,.19,.33,.35,.48,.4-.09-.09-.3-.29-.48-.4Z" fill="#1d1d1b"/><polygon points="177.6 203.56 177.52 203.33 177.18 202.9 177.6 203.56" fill="#1d1d1b"/><path d="M170.57,195.05l-.68-.52c-.18,.05-.11,.29,.16,.48,.22,.07,.48,.25,.52,.04Z" fill="#1d1d1b"/><path d="M171.28,197.84c-.08-.24,0-.32,.03-.53l-.47,.4,.45,.13Z" fill="#1d1d1b"/><path d="M169.51,196.14c-.18,.06-1.19-.56-.44,.2,.18-.05,.86,.47,.44-.2Z" fill="#1d1d1b"/><polygon points="161.5 186.31 161.65 186.46 162.38 185.75 161.5 186.31" fill="#1d1d1b"/><path d="M152.14,179.77c.5,.9,.62-.25,1.01,.61,.34,0-.32-.71,0-.67-.59-.27-.7-.6-1.01,.06Z" fill="#1d1d1b"/><path d="M153.14,179.71c.09,.04,.2,.09,.32,.12-.16-.08-.26-.11-.32-.12Z" fill="#1d1d1b"/><polygon points="70.88 84.22 70.6 83.6 70.63 84.14 70.88 84.22" fill="#1d1d1b"/><path d="M69.49,83.82l.37-.55-.69,.12c.12,.09,.35,.25,.32,.44Z" fill="#1d1d1b"/><path d="M125.05,151.62l.15-.07c.06-.19-.04-.31-.22-.54l.07,.61Z" fill="#1d1d1b"/><polygon points="119.51 144.91 119.61 145.03 119.85 144.42 119.51 144.91" fill="#1d1d1b"/><path d="M114.02,140.06c.18,.24,.52,.4,.7,.64-.52-.4-.22-1.2-.7-.64Z" fill="#1d1d1b"/></g></g><g><path d="M144.92,272.55c-.04,.34,.38,.22,.46,.27-.09-.57-.57-.25-.46-.27Z" fill="#1d1d1b"/><polygon points="143.97 266.97 144.14 267.07 143.72 266.25 143.97 266.97" fill="#1d1d1b"/><path d="M143.98,261.76c-.71,.49,.12,1.89-.14,2.82l-.16,.15,.57,.42c-.09-1.13-.47-2.6-.27-3.39Z" fill="#1d1d1b"/><path d="M145.52,258.97c-.28,.17-.24-.6-.09,.65,.03-.06,.05-.08,.07-.12,0-.11,0-.27,.02-.53Z" fill="#1d1d1b"/><path d="M145.51,259.51c.02,.55,.23-.36,0,0h0Z" fill="#1d1d1b"/><path d="M145.35,256.97l.25,.72c.16-.15,.2-.8,.32-.56-.14-.74-.3-.59-.57-.17Z" fill="#1d1d1b"/><path d="M144.83,256.28l.11,.37c.07-.07,.09-.16-.11-.37Z" fill="#1d1d1b"/><path d="M145.15,257.45l-.22-.8c-.12,.1-.35,.12,.08,.37-.21-.07,0,.09,.14,.43Z" fill="#1d1d1b"/><path d="M145.05,257.9c-.16,.41-.25,.93-.5,.2,.1,1.38,.6,1.18,.5-.2Z" fill="#1d1d1b"/><path d="M143.24,261.49l-.21,.54,.24,.47c-.12-.23,.19-1.05-.03-1.01Z" fill="#1d1d1b"/><path d="M145.72,252.46c-.15-.05-.4,.24-.6,.3l.17,.53c.1-.27,.2-.8,.42-.83Z" fill="#1d1d1b"/><path d="M145.12,252.76l-.26-.8c-.03,.71,.09,.84,.26,.8Z" fill="#1d1d1b"/><polygon points="144.03 256.15 144.58 257.47 144.03 255.9 144.03 256.15" fill="#1d1d1b"/><polygon points="145.74 249.41 146.09 249.86 145.56 249.05 145.74 249.41" fill="#1d1d1b"/><path d="M145.68,247.38c.29,.34,.49-.46,.67-.11-.05-.55-.3-1.02-.53-1.44,.13,.45,.09,.93-.15,1.55Z" fill="#1d1d1b"/><path d="M145.49,245.12c.07,.22,.19,.46,.33,.71-.07-.24-.16-.47-.33-.71Z" fill="#1d1d1b"/><path d="M144.93,250.6c.09-.06,.33-.18,.43-.63l-.43,.31c0,.1,0,.2,0,.31Z" fill="#1d1d1b"/><path d="M144.93,250.29h.01c0-.35,.02-.59,.02-.69,0,.09-.01,.29-.04,.69Z" fill="#1d1d1b"/><path d="M144.93,250.68s0-.05,0-.08c-.04,.03-.06,.05,0,.08Z" fill="#1d1d1b"/><path d="M144.42,254.06c-.24-.47-.5-1.45-.86-.5,.29,.34,.5-.21,.86,.5Z" fill="#1d1d1b"/><path d="M144.4,251.07l-.1,.85c.11-.02,.28-.17,.4,.06l-.3-.91Z" fill="#1d1d1b"/><polygon points="144.26 250.65 144.4 251.07 144.43 250.75 144.26 250.65" fill="#1d1d1b"/><path d="M145.09,246.58c-.19-.37-.2-.77-.23-1.22-.08,.49-.13,.99-.13,1.47,.13,.07,.38,.28,.36-.24Z" fill="#1d1d1b"/><path d="M144.97,248.38s-.01-.06-.02-.08c-.04,.05-.05,.09,.02,.08Z" fill="#1d1d1b"/><path d="M144.86,240.89s-.05,.05-.08,.07c.02,0,.05,0,.07,.02v-.09Z" fill="#1d1d1b"/><path d="M144.65,246.9c-.08,.37,.02,.58,.15,.79-.04-.27-.07-.56-.07-.87-.06-.03-.1-.04-.08,.08Z" fill="#1d1d1b"/><path d="M145.29,243.88c-.09,.19-.16,.41-.23,.63,.14-.19,.35-.57,.23-.63Z" fill="#1d1d1b"/><path d="M145.07,248.18s.01,.03,.02,.05c.09-.12,.05-.1-.02-.05Z" fill="#1d1d1b"/><path d="M145.07,248.18c-.06-.19-.17-.34-.26-.48,.03,.22,.08,.43,.14,.61,.03-.05,.08-.09,.12-.12Z" fill="#1d1d1b"/><path d="M142.12,239.54c.4,.06,.76,1.02,.34,1.85,.3,.82,1.6,.28,2.33-.43-.17-.03-.33-.03-.57-.86-.22,.29-.51,1.86-.86,1.15-.2-1.11,.14-.91,.35-1.45-.49,.46-.72-1.41-1.44-1.17l.26,.97c-.11,.02-.29-.34-.4-.06Z" fill="#1d1d1b"/><path d="M144.75,242.56l.05,.35c.07-.39,.23-.68,.54-1.19-.19-.57-.34-.69-.47-.73l-.06,1.7-.06-.12Z" fill="#1d1d1b"/><path d="M144.8,244.46c-.43-.27-.61-1.1-1.08-.59,.03,1.01,.36,.71,.55,1.32-.11-1.64,.24,.47,.48-.71,.07,.32,.1,.61,.11,.88,.05-.29,.12-.58,.2-.85,0,.01-.02,.03-.03,.04h0c-.05,.08-.09,.1-.06,.02,0,0,0-.03,0-.03-.06-.01-.11-.04-.16-.07,.09-.47,.11-.07,.16,.07,.02,0,.04,.02,.06,.02h0l-.24-1.64c-.06,.35-.05,.78,0,1.55Z" fill="#1d1d1b"/><path d="M142.64,252.68c.04-.05,.07-.05,.1-.05-.05-.11-.09-.15-.1,.05Z" fill="#1d1d1b"/><path d="M142.9,252.01c.06,.12,.23,.22,.19,.61-.13,.34-.21,0-.35,.02,.11,.23,.31,.82,.52,.08l-.06-.12c.15-.66,.69-1.51,.74-1.39-.39,.19-.66,.36-1.04,.8Z" fill="#1d1d1b"/><path d="M143.74,248.19l-.21-1.36-.37,.69,.22-.04c-.09,.78,.19,.61,.36,.7Z" fill="#1d1d1b"/><polygon points="145.08 240.74 145.53 240.92 144.89 240.13 145.08 240.74" fill="#1d1d1b"/><polygon points="145.02 238.96 145.42 239.03 145.18 238.56 145.02 238.96" fill="#1d1d1b"/><path d="M140.11,138.91l-.11-.4c.03,.19,.07,.31,.11,.4Z" fill="#1d1d1b"/><path d="M140.09,141.82l.19,.07c-.11-.13-.19-.19-.19-.07Z" fill="#1d1d1b"/><path d="M144.98,195.42c.37-.58,.94-1.24,.5-1.17l-.43,.18c.08,.41,.03,.72-.06,.99Z" fill="#1d1d1b"/><path d="M142.39,165.6c-.04,.06-.09,.11-.13,.17,.15,.14,.29,.28,.41,.39-.09-.17-.18-.36-.28-.57Z" fill="#1d1d1b"/><path d="M140.59,165.19l.28-.77c-.1,.17-.19,.42-.28,.77Z" fill="#1d1d1b"/><path d="M139.65,123.06l-.44-.47c0,.73,.23,.41,.44,.47Z" fill="#1d1d1b"/><path d="M144.86,220.81c.17-.5,.24-.9,.26-1.26-.25,.61-.62,1.1-.26,1.26Z" fill="#1d1d1b"/><path d="M144.72,140.06c-.08-.25-.17-.35-.26-.34,.07,.25,.16,.4,.26,.34Z" fill="#1d1d1b"/><path d="M145.12,218.09c-.04,.09-.07,.18-.1,.27,.07,.37,.13,.74,.1,1.19,.19-.45,.3-.96,0-1.46Z" fill="#1d1d1b"/><path d="M140.01,65.58s.03-.09,.05-.13c-.06-.01-.06,.05-.05,.13Z" fill="#1d1d1b"/><path d="M144.39,48.83c.03,.16,.03,.43,.03,.69,.03-.12,.03-.33-.03-.69Z" fill="#1d1d1b"/><path d="M145.21,231.83c.03,.38,.05,.06,0,0h0Z" fill="#1d1d1b"/><path d="M143.5,233.66c-.05-.08-.11-.14-.21-.15,.1,.03,.17,.08,.21,.15Z" fill="#1d1d1b"/><path d="M142.42,214.35v-.03c-.08,.11-.07,.09,0,.03Z" fill="#1d1d1b"/><path d="M145.02,232.4c.05-.14,.1-.3,.13-.48-.03,.08-.08,.22-.13,.48Z" fill="#1d1d1b"/><path d="M145.22,232.32c-.02,.13-.03,.23-.04,.33,.07,.05,.12,0,.04-.33Z" fill="#1d1d1b"/><path d="M145.19,231.31c0,.22-.01,.42-.04,.61,.03-.07,.05-.1,.07-.08,0-.11-.02-.27-.02-.52Z" fill="#1d1d1b"/><path d="M141.17,96.38s.02-.05,.04-.08c-.18-.38-.15-.21-.04,.08Z" fill="#1d1d1b"/><path d="M140.47,185.63s.02,.03,.02,.04c0-.02,.01-.04,.02-.06h-.04Z" fill="#1d1d1b"/><path d="M140.15,184.28c.54,.58,.47,.9,.36,1.34l1.25-.45-1.61-.89Z" fill="#1d1d1b"/><path d="M139.99,131.97l-.39,.95c-.64-1.14-.42-1.97-.97-1.08,1.36,.13,.14,3.69,1.5,3.82l-.29,.63c.01-.18-.07-.21-.05-.38-.65,1.22,.98,.9,.79,2.47-.1,.55-.3,.93-.46,.55l.34,1.22c-.03,.35-.26,.27-.24-.08l.11,1.86h-.04c.21,.25,.54,.85,.68,1.14-.19,.47-.14-.24-.31-.12l.33,1.03c-.35,.42-.69-.43-.64-1.14-1.36,.96,.34,.85-.45,2.92l-.17-.97c-.77,.63-.49,1.38-.97,2.48,.25-.26,1.21-2.2,1.55-1.08-.1,.31-.15,.73,.12,1.33-.48,0-.36,.59-.34,1.33l-.64-.05c.18,.79,.51,.73,.8,1.2-.06,.89-.56,1.07-.98,1.28-.1,1.42,.79-.98,.91,.7-.24,1.18,.02,2.01,.4,3.42-.22,.83-.39-.14-.57,.15l.51,.73c-.01,.18-.17,.12-.25,.09,.2,.62,.64,.05,.81,1.02,.7,.26-1.03,1.99-.23,3.19-.18,.3-.39-.14-.64-.05,.52,1.65,.38,1.41,1.09,2.76l-.42,1.15c.48-.85,1.05,.23,1.52,1.18,.23-.3,.43-.56,.53-.73l.34,1.51c-.11,.18-.32,.03-.59-.22,.05,.1,.11,.2,.15,.28-.24,.54-.61,.26-.96-.13,.13-.18,.26-.37,.39-.54-.39-.37-.82-.72-1.19-.64,.07,.1,.14,.29,.17,.5-.11-.1-.2-.16-.26-.11-.07,.05,.07,.21,.24,.46l-.71,.34,.28,.08-.45,1.98c.72,1.41,1.77,2.64,2.07,4.89-.52-.56-.85-.12-1.47-.15,.66-.61-.28-1.74-.15-2.9-.07,.61-.36,.47-.47,.32l.6,2.08c-.51-.05-.38,.44-.59,.98,1-.41,.67,1.55,.97,2.39-.34,.05-.68-.15-.6-1.18-.75,1.14,1.18,1.47,.54,2.58,0-.25,.04-.39-.13-.49,.3,.59,.06,2.02-.23,1.69v-.25c-.13,1.67-.01,5.08,.84,5.33-.11,.02-1.03-.22-1.2-.32l2.86,2.98c-.73-.26-2.47,.75-2.88-.64-.1,.4-.23,.89,.03,1.73,.1-.27,1.06-.68,1.12-.31-.81,1.02-.44,.71-1.13,1.96,.16-.41,1.3,.05,1.27,.69-.17-.1-1.13,.05-1.25-.18l1.12,1.6c-.2-.4-.95-.07-1.27,.29,.22-.17-.02,1.38,.09,1.81l.26-.68c-.17,1.81,1.58,1.78,1.52,3.57-.23-.22-1.43-.54-1.57,.38,.58,.42,2.77,1.85,3.21,3.43l-.33,.3,.38,1.22c-.87-.76-2.69-2.88-3.4-4.04-.26,.68-.39,.19-.36,1.2-.31,.36-.47-.55-.49-.85l-.2,2.36c.67-.1,.67,1.8,1.23,1.71l-.7-2.56c.67-.1,1.91,1.48,1.79,3.15-.27,.42-1.2-.32-1.42-.28,.23,.22,.44,1.58,.28,1.74l-.36-.71c-.25,.93,.89,1.52,.25,2.63-.04,.39-.87,1.15-.47,1.22,.77-.63,3.14-.75,3.72-.33-.05,.14-.73,2.02-1.11,2.46-.6,.63-1.43-.95-1.95-.41,.18,.02,.41,.37,.48,.52-.16,.4-.57-.17-.49,.71,.68,.15-.06,1.79,.58,.42,.19,.86-.14,.91-.11,1.92,.44-.32,1.5,.91,1.69,1.77-.17-.05-.4,.14-.5,.24-.06,1.76-.37,2.71-.38,4.35-.16,.15-.36,.95-.66,.61,.12,.24,.35,.45,.37,.96-.59,.98-.09-1.13-.8-.38,.4,.06,.55,1.31,.79,2.03,.61-.22,.12-1.67-.13-2.39,.84,0,1.73,1.26,2.12,2.98,.21,1.37-.55,.59-.43,.83-.15,2.57,1.47,2.19,.86,4.32-.54,.85-1.07,.04-1.46,.23-.2-1.11,.34-1.71,.32-2.46l-.25,.93c-.18-.35-.31-1.1-.16-1.5-.48,.71-.09,4.34-.54,6.31,.18,.35,.37,.96,.58,.67l-.08-.63c.43-.58,.6,1.18,.8,.39,.3,.84,.78,1.78,.54,2.97l-.61,.22c.18-.03,.37-.77,.18-1.11,.27,.49-.83,1.81-.03,2.35l.42-.83c.31,.84,.96,1.89,.77,2.93,.61-.48-.07-.24,.64-.99-.88,.65,.04-2.68-.89-1.64,.82-.76,.35-1.32,1.05-2.32-.2,.03-.39,.35-.29-.53-.06-.04-.13-.13-.18-.19,0-.03,0-.04,.02-.06,0,.02-.02,.03-.02,.05-.03-.04-.04-.04,0,.02-.09,.21-.19,.38-.31,.45-.46-.44-.45-1.84-.69-2.31,.1-.52,.23,.22,.45-.07l-.36-.71c.45-.07,.75-1.39,1.01-.16l.02-1.11c.25-.65,.35-1.55,.16-2.1,.1-.52-.5-1.32-.15-.86l-.28-1.74,.11-.02c.06-1.71-.74-3.53,.07-5.49-.11-.58-.25-1.17-.12-2.14l.39-.19c-.14-.74,.39-2.22-.02-2.54,1.05-.8,.23-3.59,.41-4.9l-.51-.05c.03-.9-.12-1.76-.32-2.87l-.45,.07c-.37-.96,.32-2.47,.27-3.98,.17,.1,.13,.49,.02,.76,1.01-1.81-.74-3.83,0-5.47-.16-.41-.11-.71,0-.99,0,.04,0,.07,.02,.1,0-.04,0-.1,0-.17,.08-.18,.17-.37,.24-.57-.11,.17-.2,.34-.24,.48,0-.32-.07-.8-.18-1.27l.48-.2s0-.07-.01-.11c.18-.46-.23-.37-.59-.12-.08-.24-.17-.45-.29-.62,.78-.37-.26-1.23,.57-1.74-.4-.32-.3-2.36-1.15-2.61,.11-.02,.16-.15,.17,.1,.1-.52,.19-1.05-.05-1.52l.61-.22-.82-1.14c.37-.69,.59-.98,1.06-.29-.72-1.67-.27-1.35-.99-2.77l.4,.07c-.02-.51-.55-1.32-.22-1.62,.75-1.13,.1-5.61,.8-8.51-1.17,.56,.52-1.35-.38-1.47,.28-.17,.43-.57,.67-.1-.27-1.48,.44-2.23-.32-3.25,.28-.17,.4,.32,.57,.17-.06-.12-.24-.47-.08-.63,.16-.15,.23,.22,.35,.45-.05-1.52-.9-1.67-1.69-1.78,.38-.77,.32-1.15-.2-1.71,.26-.27,.53-.71,.63,.23,.04-.53,.38-3.24-.26-3.29,.16-.17,.05-.74-.03-.88,.04-1.19,.1-1.29,.04-2.46l-.1,.32c-.77-.46-.17-.97-.26-1.91l.08,.03c.56-2.16-.27-.93,.37-3.06l-.48,.12c-1.03-.2,.61-1.89,.21-3.12l-.27,.45c-.35-.67,1.4-1.89,1.53-2.56,.09-.15,.14,.23,.21,.44,.61-1.77-.63-.23-.77-1.55,.34-.24,.86,.31,.92-.58,.27-.44-1.1-2.58-.45-3.8-.26,.27-.52,.53-.72-.08-.09-.94,.99-2.55,.16-3.4,.07-.12,.14-.16,.2-.17-.21-.72-.35-2.34-.8-2.77,1.66-.66-.81-4.47,.72-4.46l-.08-2.21,.16,.06c.1-1.41-.27-1.92-.63-2.41,.1-.33,.25-.09,.33-.06,.31-2.07,.24-2.27-.52-4.01l.5-.18c-.29-.47,.78-2.99,.2-5.02,.06,.02,.15,.06,.22,.22-.58-2.28,1.38-5.46-.43-6.3l-.44-1.51c-.14,1.95-.78-.29-1.08,.51-.11-.77,.54-1.98,.64-1.04l-.09,.15c.94,.35,.33-2.42,.97-2.37-.05-3.83,.47-7.57,.51-11.16l-.73,.41,.04-1.25c.17-.33,.57-.44,.54,.45,.41-.47-.35-1.5-.51-1.52,.3-1.75,.85,.68,.87,.15l-.05-.73-.09,.16c-.3-.59-.62-.64-.58-1.72,.15-.68,.45-.35,.48-.62,.05,0,.08-.09,.02-.41l.06-1.58-.58,.63c-.28-.7,.03-1.48-.62-.76,1.01-1.07,.36-5.89,.68-6.54-.42-.98-.41-1.95-.36-3.14-.12,.3-.77,.48-.69-.56,1.34,.38,.58-1.89,1.55-2.73-.64,.75-.16-2.94-1.07-1.77,.11-.86,.5-.05,.82-.71-.52-2.05,.34-4.52,.16-7.06-.18-.04-.44,.39-.71-.16l.88-1.34c-.09-.5-1.02-.46-.4-1.38-.15,.13-.37,.32-.43-.01,.86-4.97-.7-10.15,.91-15.2-.34,.68-.37,.23-.39-.29-.08,.34-.43,0-.67,.06l.66-2.11c-.66-.38-.04-2.26-.68-2.48l.11,.67c-.75-.89-1.66,1.24-2.62,1.11,.85,1-1.26,2.63-.04,4.26-.2,.36-.31-.31-.53-.11,.41,.41,.5,.91,.31,1.84l-.1-.1c.1,2.6-.3,3.72-.57,6.65l.47-.22c-.06,.63-.21,.76-.33,1.06,.72,.72,.04-1.77,.83-1.11-.96,.83-.01,4.43-1.11,5,0,.97,.55-.28,.54,.68l-.3,.26,.38,.24c-.06,.63-.43,.95-.68,.98,.03-.15-.07-.44-.09-.6-.35,.82,.12,2.32,0,2.6l.18-.93c.28,2.64-.11,5.86,.49,8.41l.22-.19c.41,1.95-.25,1.56-.05,3.7l-.05-.08c.22,.43,.33,1,.31,1.58-.26-.54-.51,1.02-.8,.31,.44,2.11,.35,1.04,1.18,2.44l-.37,.32c.34,.48,.51,.52,.61,1.58-.32-.88-.57,.68-.99-.3-.81,2.24,.82,3.33-.37,4.35,1.03,1.03,.57-1.94,.79-1.36,.34-.48,.77,.85,.66,1.55-.02,.72-1.31,1.22-1.29,3.02,0-.18-.07-.19-.07-.37-.26,.67,.35,1.32-.07,2.15,.62,.46-.04,1.07,.76,1.21l-.18-1.65c.21,.94,1.13,1.81,.68,3.36-.16-.12-.37-.58-.49-.89-.23,.45,.15,.87-.08,1.34-.79-.13-.17-2.01-.78-3.01-.33,.48,.57,1.9-.28,1.39,1.09,.72-.14,1.77,.7,2.99l-.47-.08c.07,.19,.3,.59,.29,.95l-.62-.64c.52,.99-.46,1.9-.17,2.85-.01-1.98,.57-.44,.92-1.28,.64,2.45-1.24,1.41-1.01,4.14-.07-.37,.29-1.39,.5-.81-.1,.52-.28,1.21-.53,1.53,.1,1.81,.49-.28,.78,.49-.58,.62,.24,.89,.42,1.69h-.48c-.31,2.07,1.01,.55,.63,2.41l-.67-.79,.17,.97-.55-.2c.41,1.06,.3,1.38,.15,2.42,.34-.24,.88,.14,.89,1.05-.29,.62-.46-.35-.39,.95-.3-.29-.68-.61-.24-1.18-.16-.06-.3-.29-.46-.35-.33,.67-.08,1.69-.07,2.16,.02-.18,.04-.4,.11-.51l.67,1.88c-.18,.3-.33,.06-.47-.17,.05,.38,.27,.64,.32,1.2-.39-.15-.8-.11-.98-.9l.44,1.79c-.17,.12-.47,.92-.61,.69-.23,.99,.76,2.44,.46,3.75,.08,.07,.15,.21,.21,.49-.09,1.24-.57,2.33-.03,3.8l-.7,.83c.16,1.15,.89-1.13,1.15,.79,.22,1.35-.6,.51-.8,.98,.35,.67,1.08,1.85,.5,3.09-.13-.41-.03-.74-.08-1.12Zm.31,14.17c-.1-.27-.41-.82-.13-1.02,.55,.31,.29,.55,.13,1.02Zm1.16,21.55c-.16-.2-.08-.52,.1-.88,.04,.26,.02,.55-.1,.88Zm3.36,60.02s-.01-.02-.02-.03c.19-.61,.11-.4,.02,.03Zm-.21,1.27c.07,.13,.13,.12,.2,.07-.12-.09-.13-.37-.1-.7-.13,.09-.21,.25-.11,.63Zm-.19-136.62l-.13,.25c-.14-.56-.01-.4,.13-.25Z" fill="#1d1d1b"/><path d="M140.8,165.24c.08-.08,.17-.1,.26-.12-.08-.11-.17-.11-.26,.12Z" fill="#1d1d1b"/><path d="M139.74,123.15s0-.03,0-.04c-.03-.02-.06-.04-.09-.04l.08,.09Z" fill="#1d1d1b"/><path d="M140.52,209.27c.07-.26,.16-.41,.25-.51-.12-.01-.22,.1-.25,.51Z" fill="#1d1d1b"/><path d="M145.43,235.72l-.13-.81c.02,.39-.08,.53-.16,.73,.11-.02,.28-.17,.28,.08Z" fill="#1d1d1b"/><path d="M142.45,242.8c.06,.12,0,.25,.07,.37l.22-.03c-.01-.51-.2-.86-.29-.34Z" fill="#1d1d1b"/><path d="M143.83,236.48c-.41,.06-.27,.58-.19,1.15,0-.03,0-.07,0-.1,.57,.17,.38-.44,.19-1.05Z" fill="#1d1d1b"/><path d="M143.65,237.76c.02,.18,.03,.36,.01,.53,.23,.07,.05-.21-.01-.53Z" fill="#1d1d1b"/><path d="M144.88,230.59c-.1,.27,.52,.17,.35,.32,.52,.3-.62-1.8-.35-.32Z" fill="#1d1d1b"/><polygon points="142.49 236.94 142.99 236.73 142.59 236.41 142.49 236.94" fill="#1d1d1b"/><path d="M142.86,232.43l-.14,.91c.08-.01,.13,.1,.17,.24,.02-.56,.12-1.18-.03-1.16Z" fill="#1d1d1b"/><path d="M142.89,233.59c0,.29,0,.57,.08,.73,0-.16-.02-.5-.08-.73Z" fill="#1d1d1b"/><polygon points="142.34 235.69 142.45 235.42 142.48 234.78 142.34 235.69" fill="#1d1d1b"/><path d="M142.96,222.63l-.14-1c-.17-.1-.28,.17-.21,.54,.12,.24,.19,.61,.35,.45Z" fill="#1d1d1b"/><path d="M141.58,225.64c.1-.27,.22-.29,.38-.44l-.62-.03,.24,.47Z" fill="#1d1d1b"/><path d="M141.44,222.73c-.17-.1-.49-1.44-.46-.18,.17,.1,.31,1.1,.46,.18Z" fill="#1d1d1b"/><polygon points="142.22 207.74 142.23 207.99 143.25 207.95 142.22 207.74" fill="#1d1d1b"/><path d="M139.79,194.52c-.24,1.18,.63,.28,.32,1.35,.24,.28,.25-.87,.46-.59-.25-.71-.11-1.09-.78-.76Z" fill="#1d1d1b"/><path d="M140.57,195.27c.04,.11,.09,.23,.15,.36-.06-.21-.11-.3-.15-.36Z" fill="#1d1d1b"/><polygon points="144.94 46.05 145.15 45.29 144.81 45.78 144.94 46.05" fill="#1d1d1b"/><path d="M144.18,44.59l.65-.18-.59-.46c.03,.17,.08,.5-.06,.63Z" fill="#1d1d1b"/><path d="M138.99,148.25l.16,.06c.17-.12,.18-.29,.21-.65l-.36,.59Z" fill="#1d1d1b"/><polygon points="139.48 137.96 139.47 138.14 140.05 137.81 139.48 137.96" fill="#1d1d1b"/><path d="M138.73,129.32c-.02,.35,.11,.77,.08,1.12-.11-.77,.65-1.22-.08-1.12Z" fill="#1d1d1b"/></g><g><line x1="210.42" y1="88.36" x2="77.35" y2="228.41" fill="#1d1d1b"/><g><path d="M79.27,229.92c-.22,.18,.15,.4,.18,.48,.26-.41-.26-.55-.18-.48Z" fill="#1d1d1b"/><polygon points="81.82 225.86 81.89 226.03 82.06 225.24 81.82 225.86" fill="#1d1d1b"/><path d="M84.86,222.67c-.8-.19-1.02,1.24-1.74,1.63l-.21-.02,.17,.65c.59-.75,1.17-1.91,1.77-2.26Z" fill="#1d1d1b"/><path d="M87.59,222.03c-.3-.09,.18-.53-.44,.34,.06-.02,.08-.02,.12-.02,.06-.07,.15-.17,.32-.31Z" fill="#1d1d1b"/><path d="M87.27,222.35c-.3,.35,.38-.06,0,0h0Z" fill="#1d1d1b"/><path d="M88.63,220.68l-.24,.61c.21,.02,.61-.35,.56-.12,.33-.55,.13-.57-.31-.49Z" fill="#1d1d1b"/><path d="M88.65,219.9l-.14,.3c.09,0,.16-.04,.14-.3Z" fill="#1d1d1b"/><path d="M88.21,220.85l.3-.64c-.14-.02-.32-.17-.15,.28-.12-.19-.06,.05-.15,.36Z" fill="#1d1d1b"/><path d="M87.87,221.05c-.35,.14-.72,.39-.48-.22-.73,.91-.25,1.14,.48,.22Z" fill="#1d1d1b"/><path d="M84.48,222l-.47,.19-.1,.45c.05-.23,.75-.51,.57-.64Z" fill="#1d1d1b"/><path d="M91.52,218.18c-.08-.13-.43-.13-.61-.23l-.18,.45c.24-.1,.61-.35,.79-.22Z" fill="#1d1d1b"/><path d="M90.91,217.95l.28-.67c-.44,.42-.42,.58-.28,.67Z" fill="#1d1d1b"/><polygon points="88.15 219.28 87.79 220.46 88.3 219.12 88.15 219.28" fill="#1d1d1b"/><polygon points="93.31 216.32 93.3 216.84 93.39 215.98 93.31 216.32" fill="#1d1d1b"/><path d="M94.44,215.04c.02,.41,.62,.06,.55,.4,.28-.37,.37-.83,.46-1.25-.17,.36-.47,.63-1.01,.85Z" fill="#1d1d1b"/><path d="M95.63,213.53c-.08,.19-.12,.41-.18,.66,.09-.19,.16-.4,.18-.66Z" fill="#1d1d1b"/><path d="M92.04,216.5c.1,.03,.35,.12,.68-.09l-.49-.1c-.06,.06-.12,.12-.19,.19Z" fill="#1d1d1b"/><path d="M92.21,216.31h.02c.21-.2,.35-.34,.41-.4-.05,.05-.18,.17-.43,.4Z" fill="#1d1d1b"/><path d="M91.99,216.55s.03-.03,.05-.05c-.05-.01-.07,0-.05,.05Z" fill="#1d1d1b"/><path d="M89.65,218.26c.1-.45,.48-1.23-.33-.9,.02,.41,.48,.22,.33,.9Z" fill="#1d1d1b"/><path d="M91.37,216.42l-.56,.45c.09,.07,.3,.09,.25,.31l.31-.76Z" fill="#1d1d1b"/><polygon points="91.52 216.07 91.37 216.42 91.58 216.25 91.52 216.07" fill="#1d1d1b"/><path d="M94.49,214.15c.08-.35,.3-.61,.54-.91-.34,.24-.67,.52-.95,.81,.06,.13,.11,.43,.4,.1Z" fill="#1d1d1b"/><path d="M93.35,215.17s.02-.05,.03-.07c-.06,0-.09,.02-.03,.07Z" fill="#1d1d1b"/><path d="M97.63,210.51s-.07,0-.1,0c.01,.02,.03,.04,.04,.06l.05-.05Z" fill="#1d1d1b"/><path d="M93.98,214.05c-.27,.17-.32,.37-.35,.59,.13-.2,.28-.39,.45-.59-.03-.06-.05-.09-.11,0Z" fill="#1d1d1b"/><path d="M96.2,212.63c-.18,.05-.36,.13-.54,.23,.21-.02,.58-.11,.54-.23Z" fill="#1d1d1b"/><path d="M93.54,215.11s0,.03-.02,.05c.14-.01,.09-.03,.02-.05Z" fill="#1d1d1b"/><path d="M93.54,215.11c.06-.16,.07-.32,.09-.48-.1,.16-.19,.32-.25,.47,.05,0,.11,0,.16,0Z" fill="#1d1d1b"/><path d="M96.43,207.8c.25,.31-.04,1.15-.83,1.37-.26,.7,1,1.27,1.94,1.34-.11-.13-.23-.24,.09-.92-.33,.03-1.45,.79-1.3,.11,.5-.82,.63-.46,1.1-.65-.63-.06,.3-1.36-.37-1.71l-.38,.77c-.09-.07-.02-.41-.25-.31Z" fill="#1d1d1b"/><path d="M96.57,211.45l-.17,.25c.28-.19,.56-.26,1.08-.36,.19-.48,.16-.66,.08-.77l-1.03,1,.03-.11Z" fill="#1d1d1b"/><path d="M95.51,212.65c-.16-.46,.19-1.1-.44-1.11-.57,.64-.15,.68-.37,1.18,.87-1.07-.1,.45,.77-.1-.13,.25-.29,.44-.43,.62,.21-.14,.42-.27,.63-.38-.02,0-.03,0-.04,0h0c-.08,0-.12,0-.05-.03,0,0,0-.02,.01-.03-.04-.05-.06-.1-.07-.16,.34-.23,.12,.03,.07,.16,.01,.02,.02,.04,.03,.06h0l.78-1.17c-.25,.17-.49,.44-.9,.95Z" fill="#1d1d1b"/><path d="M89.16,216.19c.06,0,.08,.02,.1,.04,.02-.1,.02-.15-.1-.04Z" fill="#1d1d1b"/><path d="M89.74,215.96c-.03,.11,.04,.29-.22,.5-.29,.12-.15-.14-.26-.23-.05,.22-.25,.71,.33,.41l.02-.11c.49-.3,1.37-.45,1.35-.34-.39-.15-.69-.24-1.22-.23Z" fill="#1d1d1b"/><path d="M92.57,214.2l.64-.98-.67,.17,.18,.13c-.51,.41-.22,.5-.15,.68Z" fill="#1d1d1b"/><polygon points="97.87 210.56 98.1 210.99 98.09 210.06 97.87 210.56" fill="#1d1d1b"/><polygon points="98.87 209.44 99.12 209.76 99.21 209.3 98.87 209.44" fill="#1d1d1b"/><path d="M153.48,144.84l.15-.32c-.09,.14-.13,.24-.15,.32Z" fill="#1d1d1b"/><path d="M151.77,146.59l.1,.18c0-.16-.03-.24-.1-.18Z" fill="#1d1d1b"/><path d="M124.15,182.77c.61-.1,1.4-.11,1.04-.37l-.42-.19c-.18,.3-.4,.46-.62,.56Z" fill="#1d1d1b"/><path d="M139.61,162.73c-.06,0-.13,0-.19,.01,.03,.19,.05,.37,.07,.53,.03-.17,.08-.35,.12-.54Z" fill="#1d1d1b"/><path d="M138.55,161.24l.65-.28c-.17,.04-.38,.13-.65,.28Z" fill="#1d1d1b"/><path d="M162.36,134.82l-.05-.59c-.42,.45-.08,.41,.05,.59Z" fill="#1d1d1b"/><path d="M109.31,198.22c.42-.19,.7-.39,.92-.59-.53,.2-1.09,.24-.92,.59Z" fill="#1d1d1b"/><path d="M156.15,148.71c.09-.2,.08-.33,0-.39-.09,.21-.12,.35,0,.39Z" fill="#1d1d1b"/><path d="M111.07,196.74c-.08,.02-.15,.06-.23,.09-.16,.28-.33,.54-.62,.8,.4-.15,.78-.38,.85-.89Z" fill="#1d1d1b"/><path d="M196.05,99.89s.07-.04,.11-.04c-.04-.05-.07-.01-.11,.04Z" fill="#1d1d1b"/><path d="M208.96,92.65c-.08,.12-.23,.28-.38,.44,.09-.06,.21-.18,.38-.44Z" fill="#1d1d1b"/><path d="M103.15,205.21c-.2,.25,0,.07,0,0h0Z" fill="#1d1d1b"/><path d="M100.84,205.14c.01-.08,0-.16-.07-.24,.06,.09,.08,.17,.07,.24Z" fill="#1d1d1b"/><path d="M111.3,192.59l.02-.02c-.13,0-.1,0-.02,.02Z" fill="#1d1d1b"/><path d="M102.68,205.42c.12-.05,.25-.12,.37-.21-.07,.02-.18,.08-.37,.21Z" fill="#1d1d1b"/><path d="M102.87,205.51c-.09,.07-.16,.12-.22,.17,.02,.08,.08,.08,.22-.17Z" fill="#1d1d1b"/><path d="M103.44,204.87c-.12,.14-.25,.24-.39,.34,.06-.03,.1-.03,.1,0,.06-.07,.14-.17,.29-.34Z" fill="#1d1d1b"/><path d="M178.98,119.54s.05-.02,.08-.02c.09-.36,.01-.23-.08,.02Z" fill="#1d1d1b"/><path d="M126.58,173.67s0,.03,0,.04c.01,0,.03-.02,.04-.02l-.03-.02Z" fill="#1d1d1b"/><path d="M127.13,172.62c.06,.72-.18,.88-.52,1.07l1.17,.59-.65-1.65Z" fill="#1d1d1b"/><path d="M157.43,140.5l-.83,.31c.2-1.14,.84-1.5-.07-1.33,.91,1.02-2.04,2.35-1.14,3.37l-.57,.19c.11-.1,.07-.17,.19-.27-1.18,.3,.19,1.23-.86,2.05-.39,.26-.76,.36-.66,.02l-.46,.98c-.22,.2-.35-.02-.12-.21l-1,1.21-.02-.04c0,.31-.11,.9-.18,1.18-.42,.15,.03-.24-.16-.29l-.36,.86c-.5,.01-.25-.74,.2-1.14-1.54-.35-.25,.76-2.03,1.48l.44-.71c-.92-.15-1.16,.51-2.15,.85,.33,.01,2.15-.51,1.75,.41-.26,.12-.53,.34-.68,.9-.35-.33-.61,.11-1.02,.58l-.43-.47c-.33,.61-.06,.8-.12,1.28-.56,.5-1.03,.27-1.45,.11-.9,.8,1.15-.05,.26,1.06-.86,.55-1.16,1.24-1.7,2.37-.64,.35-.2-.36-.5-.3l-.06,.8c-.11,.1-.19-.04-.23-.11-.22,.51,.43,.47,0,1.18,.36,.65-1.9,.51-2.02,1.79-.3,.06-.2-.36-.43-.47-.58,1.37-.54,1.13-.82,2.44l-.97,.42c.84-.19,.62,.87,.41,1.77,.34-.02,.64-.04,.81-.08l-.63,1.16c-.18,.04-.25-.21-.3-.54-.02,.1-.04,.2-.05,.28-.49,.17-.59-.26-.62-.74,.2-.03,.4-.04,.6-.06-.06-.5-.17-1.01-.49-1.22,0,.11-.07,.27-.16,.42-.02-.13-.05-.24-.12-.25-.08-.02-.07,.18-.09,.44l-.72-.28,.16,.25-1.47,.9c-.3,1.36-.25,2.84-1.34,4.42-.06-.7-.55-.66-.98-1.11,.83,.08,.81-1.26,1.58-1.88-.4,.32-.54,.04-.52-.13l-.77,1.68c-.34-.38-.53,0-1,.2,.96,.44-.42,1.41-.68,2.13-.27-.2-.41-.56,.25-1.13-1.21,.18,0,1.71-1.11,1.95,.14-.16,.26-.21,.19-.39-.12,.57-1.13,1.28-1.15,.87l.14-.16c-1.06,.94-2.96,3.11-2.49,3.84-.09-.07-.62-.84-.68-1.02l.34,3.79c-.38-.66-2.22-1.25-1.72-2.38-.31,.17-.68,.39-.98,1.08,.23-.09,1.16,.31,.99,.59-1.18,.06-.73,.13-1.96,.42,.35-.14,.92,.92,.52,1.29-.07-.18-.85-.75-.8-.97l-.11,1.75c.09-.38-.65-.7-1.09-.7,.26,.05-.82,.83-.99,1.17l.58-.24c-1.17,.99,.11,2.18-.97,3.24-.04-.29-.73-1.31-1.36-.85,.17,.65,.93,3.04,.33,4.31l-.42-.04-.44,1c-.19-1.06-.27-3.62-.11-4.82-.58,.23-.39-.15-.96,.49-.43,0-.02-.66,.14-.85l-1.51,1.3c.55,.4-.56,1.57-.1,1.9l.98-2.05c.55,.4,.52,2.22-.53,3.16-.44,.08-.68-1.02-.87-1.15,.04,.29-.6,1.27-.81,1.25l.15-.68c-.72,.39-.24,1.54-1.35,1.78-.26,.21-1.3,.11-1.05,.42,.92,.14,2.71,1.7,2.89,2.36-.12,.05-1.71,.73-2.24,.74-.81-.03-.49-1.57-1.17-1.6,.12,.14,.08,.51,.05,.65-.35,.14-.31-.49-.77,.1,.41,.56-1.08,1.06,.18,.65-.36,.66-.63,.46-1.2,1.1,.51,.11,.56,1.59,.2,2.25-.1-.15-.37-.19-.5-.2-1.07,1.04-1.84,1.4-2.81,2.41-.21-.02-.81,.33-.83-.08-.05,.23,0,.52-.29,.84-1,.19,.59-.76-.36-.79,.25,.31-.37,1.18-.61,1.79,.57,.29,1.06-.94,1.3-1.55,.61,.58,.52,1.96-.19,3.28-.64,.98-.74-.01-.79,.21-1.6,1.47-.2,2.35-1.88,3.24-.88,.15-.8-.71-1.19-.87,.5-.82,1.24-.81,1.66-1.29l-.72,.39c.08-.34,.41-.89,.76-1.03-.76,.1-2.59,2.59-4.06,3.49-.07,.34-.29,.84,.03,.81l.31-.44c.65-.05-.25,1.13,.36,.79-.27,.72-.47,1.63-1.33,2.19l-.57-.29c.14,.11,.71-.22,.77-.55-.09,.49-1.66,.54-1.39,1.42l.79-.21c-.27,.73-.4,1.82-1.15,2.32,.72,.13,.09-.2,1.04-.16-1.01-.21,1.59-1.62,.31-1.62,1.04,.1,1.02-.57,2.11-.7-.16-.12-.49-.05,.1-.52-.02-.07-.02-.17-.02-.24,.02-.01,.03-.02,.05-.03-.02,0-.03,0-.05,.01,0-.04,0-.05-.02,0-.19,.07-.36,.1-.48,.06-.08-.59,.74-1.43,.84-1.89,.37-.25,.04,.29,.36,.27l.15-.68c.37,.27,1.35-.34,.82,.6l.66-.66c.56-.23,1.16-.71,1.34-1.17,.37-.25,.41-1.15,.4-.63l.81-1.25,.09,.07c1.04-1.01,1.51-2.67,3.24-3.31,.25-.43,.5-.89,1.15-1.39l.39,.15c.33-.55,1.57-1.09,1.47-1.57,1.22,.23,2.26-2.04,3.15-2.71l-.34-.38c.54-.53,.94-1.15,1.44-1.98l-.36-.27c.29-.84,1.67-1.29,2.51-2.25,.06,.18-.19,.39-.43,.48,1.79-.41,1.69-2.85,3.18-3.35,.12-.36,.33-.51,.58-.6-.02,.02-.04,.05-.04,.08,.03-.02,.07-.06,.1-.1,.16-.06,.33-.11,.5-.18-.18,.03-.34,.07-.45,.13,.18-.2,.42-.53,.61-.9l.47,.21s.04-.05,.05-.08c.4-.16,.05-.38-.36-.48,.08-.2,.14-.4,.15-.58,.78,.31,.53-.93,1.43-.68-.11-.47,1.15-1.65,.68-2.39,.09,.07,.21,.02,.07,.18,.37-.25,.75-.51,.85-.96l.57,.29,.07-1.27c.67-.17,1-.2,.94,.55,.44-1.52,.59-1.02,.89-2.38l.25,.32c.28-.32,.37-1.18,.78-1.14,1.2-.17,3.33-3.36,5.53-4.66-1.17-.46,1.16-.47,.58-1.16,.3,.09,.65-.05,.55,.4,.67-1.09,1.61-1.06,1.66-2.22,.3,.09,.11,.47,.31,.49,.03-.11,.1-.45,.31-.43,.21,.02,.04,.29,0,.52,.85-.96,.32-1.64-.19-2.26,.72-.21,.9-.48,.85-1.18,.34,.02,.8-.07,.32,.57,.34-.3,2.16-1.72,1.73-2.19,.21,.01,.47-.42,.49-.56,.72-.7,.82-.73,1.46-1.48l-.26,.13c-.29-.81,.44-.71,.92-1.35l.04,.07c1.66-.94,.35-.75,2.05-1.62l-.41-.26c-.63-.83,1.54-.74,1.97-1.76l-.46,.08c.14-.66,2.11-.19,2.6-.51,.15-.03-.03,.24-.1,.41,1.47-.67-.32-.57,.34-1.48,.39,.08,.44,.79,1.01,.28,.46-.08,.7-2.34,1.88-2.63-.34-.02-.69-.03-.47-.54,.48-.64,2.2-.88,2.09-1.96,.12-.02,.2,0,.25,.04,.26-.59,1.1-1.67,1.03-2.25,1.59,.73,2.02-3.29,3.12-2.23l1.23-1.41,.08,.14c.9-.8,.92-1.35,.94-1.91,.27-.13,.23,.12,.27,.19,1.43-1.05,1.5-1.22,1.95-2.81l.46,.23c.06-.49,2.3-1.29,3.06-2.93,.03,.05,.07,.14,.03,.29,.9-1.8,4.17-2.4,3.35-4.15l.55-1.23c-1.23,1.1-.4-.72-1.08-.43,.37-.54,1.55-.84,1.07-.2l-.15,.03c.48,.86,1.65-1.25,2.08-.78,2.19-2.38,4.74-4.3,6.86-6.47l-.77-.25,.76-.74c.31-.08,.67,.12,.13,.65,.57,0,.62-1.16,.52-1.28,1.23-.87,.22,1.01,.55,.69l.38-.48-.16,.04c.13-.57-.07-.82,.58-1.45,.5-.31,.53,.1,.71-.05,.04,.04,.11,0,.25-.24l.96-.92h-.79c.2-.64,.88-.9-.01-.9,1.35,.04,3.68-3.35,4.29-3.54,.26-.89,.83-1.48,1.56-2.17-.26,.1-.83-.24-.18-.82,.75,1.15,1.52-.76,2.71-.6-.9,.02,1.59-1.91,.25-1.81,.58-.45,.39,.31,1,.13,.82-1.61,2.87-2.53,4.22-4.21-.1-.15-.55-.07-.42-.58l1.42-.21c.23-.37-.47-.98,.51-1.12-.18-.02-.46-.06-.3-.3,3.51-2.45,5.39-6.7,9.49-8.67-.64,.18-.4-.12-.11-.45-.26,.15-.31-.3-.52-.43l1.71-.84c-.26-.69,1.28-1.42,.95-1.99l-.31,.49c-.02-1.06-1.93-.38-2.55-1.12,.04,1.19-2.44,.74-2.51,2.58-.35,.09-.04-.4-.32-.44,.06,.54-.17,.9-.84,1.34v-.13c-1.45,1.66-2.4,2.07-4.29,3.67l.47,.19c-.41,.34-.6,.32-.85,.42,.1,.94,1.06-1.05,1.25-.1-1.18-.15-2.59,2.7-3.71,2.29-.57,.59,.56,.2,0,.79l-.36-.05,.13,.41c-.41,.34-.87,.29-1.06,.13,.11-.07,.2-.32,.28-.43-.73,.26-1.26,1.5-1.51,1.6l.67-.44c-1.33,1.81-3.49,3.51-4.54,5.49l.27,.04c-.83,1.48-1.08,.79-2.19,2.23v-.08c-.08,.42-.33,.84-.69,1.18,.12-.51-.96,.27-.76-.36-.91,1.6-.35,.88-.56,2.3l-.46-.06c-.03,.52,.07,.67-.48,1.39,.28-.76-.81,.03-.54-.86-1.89,.81-1.34,2.6-2.8,2.41,.15,1.34,1.54-.79,1.36-.29,.52-.06,.06,1.05-.42,1.41-.43,.42-1.66-.16-2.69,.96,.11-.11,.06-.17,.17-.27-.58,.23-.51,1.05-1.3,1.26,.18,.71-.65,.63-.15,1.26l.83-1.14c-.39,.72-.23,1.89-1.46,2.53-.05-.18,.07-.61,.17-.88-.43,.12-.39,.64-.84,.76-.5-.63,1.04-1.35,1.19-2.38-.52,.07-.69,1.56-1.02,.66,.37,1.19-1.13,.99-1.24,2.31l-.3-.38c-.06,.17-.13,.57-.34,.78l-.07-.82c-.19,.97-1.44,.85-1.78,1.62,1.14-1.22,.67,.12,1.41-.15-.96,1.93-1.72,0-3.14,1.84,.17-.27,1.02-.66,.84-.15-.37,.25-.91,.55-1.27,.57-.98,1.18,.52,.17,.28,.84-.78-.02-.35,.71-.68,1.32l-.35-.33c-1.43,1.05,.41,1.03-.94,1.91l-.03-.94-.44,.71-.28-.5c-.32,.93-.59,1.05-1.3,1.58,.39,.09,.56,.69,.03,1.26-.57,.18-.13-.53-.83,.31-.05-.39-.14-.84,.51-.88-.08-.14-.05-.39-.13-.53-.63,.18-1.04,.98-1.31,1.27,.12-.1,.26-.21,.38-.23l-.61,1.61c-.3,.06-.27-.19-.24-.43-.18,.27-.18,.58-.47,.95-.2-.36-.51-.62-.19-1.23l-.73,1.4c-.19-.04-.87,.24-.84,0-.74,.45-.87,2.02-1.85,2.61,.02,.09-.01,.23-.13,.44-.78,.7-1.77,1.04-2.23,2.3l-.99,.03c-.55,.81,1.3-.08,.38,1.27-.63,.98-.73-.1-1.15,.05-.13,.66-.29,1.87-1.43,2.24,.14-.34,.41-.47,.59-.74Zm-8.02,8.89c.09-.24,.18-.79,.5-.71,.22,.57-.11,.54-.5,.71Zm-11.69,13.99c0-.23,.24-.37,.58-.47-.12,.19-.31,.35-.58,.47Zm-32.47,39.04s0-.02,0-.03c.49-.25,.31-.16,0,.03Zm-.89,.63c-.03,.12,.03,.17,.11,.18-.04-.14,.12-.32,.34-.49-.14-.03-.3,0-.45,.32Zm79.3-83.73l-.24,.06c.22-.44,.22-.26,.24-.06Z" fill="#1d1d1b"/><path d="M138.67,161.42c.1,0,.18,.06,.26,.11,0-.12-.06-.19-.26-.11Z" fill="#1d1d1b"/><path d="M162.37,134.93s.02-.02,.03-.02c0-.03-.02-.06-.04-.09v.11Z" fill="#1d1d1b"/><path d="M112.87,188.17c.2-.11,.35-.14,.47-.14-.08-.09-.22-.09-.47,.14Z" fill="#1d1d1b"/><path d="M101.05,207.74l.38-.59c-.21,.26-.37,.27-.54,.34,.09,.07,.3,.08,.16,.25Z" fill="#1d1d1b"/><path d="M94.77,210.01c-.03,.11-.14,.16-.17,.27l.18,.13c.28-.32,.36-.66-.01-.41Z" fill="#1d1d1b"/><path d="M99.45,207.1c-.33-.24-.53,.17-.81,.57,.02-.02,.04-.04,.06-.06,.31,.49,.53,0,.75-.51Z" fill="#1d1d1b"/><path d="M98.57,207.76c-.09,.12-.19,.24-.3,.33,.13,.2,.16-.1,.3-.33Z" fill="#1d1d1b"/><path d="M103.63,204.22c-.23,.09,.28,.46,.07,.44,.2,.54,.6-1.53-.07-.44Z" fill="#1d1d1b"/><polygon points="98.21 206.46 98.69 206.68 98.58 206.2 98.21 206.46" fill="#1d1d1b"/><path d="M101.09,203.95l-.63,.46c.07,.05,.04,.15-.02,.27,.34-.33,.77-.64,.65-.73Z" fill="#1d1d1b"/><path d="M100.45,204.68c-.18,.17-.33,.35-.37,.51,.09-.1,.27-.32,.37-.51Z" fill="#1d1d1b"/><polygon points="98.82 205.59 99.06 205.5 99.46 205.13 98.82 205.59" fill="#1d1d1b"/><path d="M106.87,198.02l.47-.71c-.07-.18-.3-.09-.47,.19-.05,.23-.22,.5,0,.52Z" fill="#1d1d1b"/><path d="M104.12,198.92c.23-.09,.32-.03,.53,0l-.43-.45-.1,.45Z" fill="#1d1d1b"/><path d="M105.7,197.04c-.07-.18,.48-1.22-.22-.43,.07,.18-.41,.89,.22,.43Z" fill="#1d1d1b"/><polygon points="114.99 188.4 114.85 188.56 115.61 189.24 114.99 188.4" fill="#1d1d1b"/><path d="M120.92,178.64c-.86,.55,.29,.6-.55,1.05,.01,.34,.69-.36,.67-.04,.23-.61,.55-.74-.12-1Z" fill="#1d1d1b"/><path d="M121.04,179.64c-.04,.1-.07,.2-.1,.33,.07-.17,.09-.26,.1-.33Z" fill="#1d1d1b"/><polygon points="210.98 91.33 211.57 91.01 211.04 91.08 210.98 91.33" fill="#1d1d1b"/><path d="M211.27,89.92l.57,.34-.16-.68c-.08,.12-.23,.37-.41,.35Z" fill="#1d1d1b"/><path d="M147.24,149.77l.08,.14c.19,.04,.3-.06,.53-.25l-.61,.11Z" fill="#1d1d1b"/><polygon points="153.58 143.81 153.46 143.91 154.08 144.11 153.58 143.81" fill="#1d1d1b"/><path d="M158.05,138.01c-.22,.2-.37,.54-.59,.74,.37-.54,1.18-.3,.59-.74Z" fill="#1d1d1b"/></g></g><g><line x1="228.49" y1="158.72" x2="35.31" y2="158.06" fill="#1d1d1b"/><g><path d="M35.52,160.49c-.29-.04-.18,.38-.23,.46,.48-.09,.22-.57,.23-.46Z" fill="#1d1d1b"/><polygon points="40.23 159.56 40.15 159.73 40.85 159.31 40.23 159.56" fill="#1d1d1b"/><path d="M44.64,159.58c-.41-.72-1.6,.11-2.38-.15l-.13-.16-.36,.57c.95-.09,2.19-.46,2.86-.26Z" fill="#1d1d1b"/><path d="M46.98,161.13c-.14-.28,.51-.24-.55-.09,.05,.03,.07,.05,.1,.07,.09,0,.23,0,.45,.02Z" fill="#1d1d1b"/><path d="M46.53,161.12c-.46,.02,.3,.23,0,0h0Z" fill="#1d1d1b"/><path d="M48.67,160.96l-.61,.25c.13,.16,.67,.2,.47,.32,.63-.13,.5-.3,.14-.57Z" fill="#1d1d1b"/><path d="M49.25,160.44l-.32,.1c.06,.07,.14,.09,.32-.1Z" fill="#1d1d1b"/><path d="M48.26,160.77l.67-.22c-.09-.12-.1-.35-.31,.08,.06-.21-.08,0-.36,.14Z" fill="#1d1d1b"/><path d="M47.89,160.66c-.34-.16-.78-.26-.17-.5-1.17,.09-1,.6,.17,.5Z" fill="#1d1d1b"/><path d="M44.86,158.84l-.46-.21-.4,.24c.2-.12,.88,.2,.85-.03Z" fill="#1d1d1b"/><path d="M52.48,161.35c.04-.15-.2-.41-.25-.6l-.45,.17c.23,.1,.67,.2,.7,.43Z" fill="#1d1d1b"/><path d="M52.23,160.75l.68-.26c-.6-.03-.71,.09-.68,.26Z" fill="#1d1d1b"/><polygon points="49.37 159.65 48.25 160.2 49.58 159.65 49.37 159.65" fill="#1d1d1b"/><polygon points="55.05 161.37 54.67 161.72 55.35 161.2 55.05 161.37" fill="#1d1d1b"/><path d="M56.76,161.32c-.28,.29,.39,.49,.09,.67,.46-.05,.86-.3,1.22-.52-.38,.12-.78,.09-1.31-.15Z" fill="#1d1d1b"/><path d="M58.67,161.14c-.19,.07-.39,.19-.6,.33,.2-.07,.4-.16,.6-.33Z" fill="#1d1d1b"/><path d="M54.05,160.57c.05,.09,.15,.33,.53,.44l-.26-.43c-.08,0-.17,0-.27,0Z" fill="#1d1d1b"/><path d="M54.31,160.56h0c.29,.02,.49,.03,.57,.04-.07,0-.25-.02-.58-.04Z" fill="#1d1d1b"/><path d="M53.99,160.56s.04,0,.07,0c-.03-.04-.04-.06-.07,0Z" fill="#1d1d1b"/><path d="M51.13,160.05c.4-.24,1.23-.49,.43-.86-.29,.29,.17,.5-.43,.86Z" fill="#1d1d1b"/><path d="M53.66,160.03l-.72-.1c.01,.11,.14,.28-.05,.4l.77-.3Z" fill="#1d1d1b"/><polygon points="54.01 159.89 53.66 160.03 53.92 160.07 54.01 159.89" fill="#1d1d1b"/><path d="M57.44,160.74c.31-.18,.65-.2,1.03-.23-.41-.09-.83-.13-1.24-.13-.06,.13-.24,.37,.2,.36Z" fill="#1d1d1b"/><path d="M55.92,160.61s.05-.01,.07-.02c-.04-.04-.08-.05-.07,.02Z" fill="#1d1d1b"/><path d="M62.24,160.53s-.04-.05-.06-.08c0,.02,0,.05-.01,.07h.07Z" fill="#1d1d1b"/><path d="M57.17,160.3c-.31-.08-.49,.02-.67,.15,.23-.04,.48-.07,.74-.07,.03-.06,.03-.1-.07-.08Z" fill="#1d1d1b"/><path d="M59.72,160.95c-.16-.09-.34-.17-.53-.24,.16,.14,.48,.35,.53,.24Z" fill="#1d1d1b"/><path d="M56.09,160.71s-.03,.01-.05,.02c.1,.09,.09,.05,.05-.02Z" fill="#1d1d1b"/><path d="M56.09,160.71c.16-.06,.28-.17,.41-.26-.19,.03-.36,.08-.51,.14,.04,.03,.08,.08,.1,.12Z" fill="#1d1d1b"/><path d="M63.39,157.79c-.06,.4-.87,.76-1.57,.33-.69,.29-.24,1.6,.35,2.33,.02-.17,.02-.33,.73-.56-.25-.22-1.57-.51-.97-.87,.94-.2,.77,.14,1.22,.35-.39-.5,1.2-.71,.99-1.44l-.82,.25c-.02-.11,.28-.29,.06-.4Z" fill="#1d1d1b"/><path d="M60.83,160.4l-.29,.05c.33,.07,.57,.23,1.01,.54,.49-.19,.59-.34,.62-.47l-1.44-.06,.1-.06Z" fill="#1d1d1b"/><path d="M59.23,160.45c.23-.43,.93-.61,.5-1.08-.86,.03-.6,.36-1.11,.54,1.38-.1-.4,.24,.6,.49-.27,.07-.52,.09-.75,.11,.25,.05,.49,.12,.71,.2-.01,0-.02-.02-.03-.03h0c-.06-.06-.08-.09-.01-.06,0,0,.02,0,.03,0,0-.06,.04-.11,.06-.16,.4,.09,.06,.11-.06,.16,0,.02-.02,.04-.02,.06h0l1.38-.23c-.29-.06-.66-.05-1.31,0Z" fill="#1d1d1b"/><path d="M52.3,158.26s.04,.07,.04,.1c.09-.05,.12-.09-.04-.1Z" fill="#1d1d1b"/><path d="M52.87,158.53c-.1,.06-.19,.23-.51,.19-.28-.13,0-.21-.01-.35-.2,.11-.69,.31-.07,.52l.1-.06c.56,.15,1.27,.69,1.17,.75-.16-.39-.3-.67-.67-1.05Z" fill="#1d1d1b"/><path d="M56.09,159.38l1.15-.21-.59-.37,.03,.22c-.65-.09-.51,.19-.6,.36Z" fill="#1d1d1b"/><polygon points="62.38 160.74 62.22 161.2 62.89 160.55 62.38 160.74" fill="#1d1d1b"/><polygon points="63.87 160.69 63.82 161.09 64.21 160.85 63.87 160.69" fill="#1d1d1b"/><path d="M148.34,156.07l.34-.11c-.16,.03-.26,.07-.34,.11Z" fill="#1d1d1b"/><path d="M145.89,156.03l-.06,.19c.11-.11,.16-.19,.06-.19Z" fill="#1d1d1b"/><path d="M100.63,160.77c.49,.37,1.04,.95,.98,.5l-.15-.43c-.34,.08-.61,.03-.83-.07Z" fill="#1d1d1b"/><path d="M125.81,158.27s-.1-.09-.14-.13c-.12,.15-.23,.29-.33,.41,.14-.09,.31-.18,.48-.28Z" fill="#1d1d1b"/><path d="M126.16,156.47l.65,.28c-.15-.1-.35-.19-.65-.28Z" fill="#1d1d1b"/><path d="M161.73,155.65l.4-.44c-.62,0-.35,.22-.4,.44Z" fill="#1d1d1b"/><path d="M79.2,160.58c.42,.17,.76,.24,1.06,.27-.51-.25-.92-.63-1.06-.27Z" fill="#1d1d1b"/><path d="M147.36,160.67c.21-.08,.3-.17,.29-.26-.21,.07-.33,.16-.29,.26Z" fill="#1d1d1b"/><path d="M81.49,160.85c-.07-.04-.15-.07-.22-.1-.31,.07-.62,.13-1,.1,.38,.19,.81,.3,1.23,0Z" fill="#1d1d1b"/><path d="M210.25,156.18s.08,.03,.11,.05c.01-.06-.04-.06-.11-.05Z" fill="#1d1d1b"/><path d="M224.37,160.6c-.14,.03-.37,.03-.58,.03,.1,.03,.28,.03,.58-.03Z" fill="#1d1d1b"/><path d="M69.89,160.9c-.32,.03-.05,.05,0,0h0Z" fill="#1d1d1b"/><path d="M68.36,159.18c.07-.05,.12-.11,.13-.21-.03,.1-.07,.17-.13,.21Z" fill="#1d1d1b"/><path d="M84.66,158.16h.03c-.09-.08-.08-.07-.03,0Z" fill="#1d1d1b"/><path d="M69.42,160.7c.12,.05,.26,.1,.41,.13-.07-.03-.19-.08-.41-.13Z" fill="#1d1d1b"/><path d="M69.48,160.91c-.11-.02-.2-.03-.28-.04-.04,.07,0,.12,.28,.04Z" fill="#1d1d1b"/><path d="M70.34,160.88c-.18,0-.35-.01-.51-.05,.06,.03,.09,.05,.07,.07,.09,0,.22-.01,.44-.02Z" fill="#1d1d1b"/><path d="M184.25,157.25s.05,.02,.07,.04c.32-.18,.18-.15-.07-.04Z" fill="#1d1d1b"/><path d="M108.91,156.29s-.02,.02-.04,.02c.01,0,.03,.01,.05,.02v-.04Z" fill="#1d1d1b"/><path d="M110.05,155.98c-.49,.54-.76,.47-1.13,.36l.37,1.25,.76-1.61Z" fill="#1d1d1b"/><path d="M154.21,155.96l-.8-.39c.97-.64,1.67-.41,.92-.97-.12,1.36-3.11,.13-3.23,1.49l-.53-.29c.15,.01,.18-.07,.33-.05-1.02-.65-.77,.98-2.09,.78-.46-.11-.78-.3-.47-.46l-1.03,.33c-.3-.03-.22-.26,.07-.24l-1.57,.1v-.04c-.21,.21-.72,.54-.97,.68-.4-.2,.2-.14,.1-.31l-.87,.33c-.35-.35,.37-.69,.97-.64-.81-1.36-.72,.34-2.47-.46l.82-.17c-.53-.77-1.17-.5-2.09-.98,.22,.25,1.85,1.22,.91,1.55-.26-.1-.61-.15-1.12,.12,0-.48-.5-.37-1.12-.34l.04-.64c-.67,.18-.62,.51-1.02,.79-.75-.07-.9-.56-1.08-.98-1.2-.11,.82,.8-.59,.91-.99-.25-1.69,.01-2.89,.39-.7-.22,.12-.39-.13-.57l-.62,.51c-.15-.01-.1-.17-.08-.25-.52,.2-.05,.64-.86,.81-.22,.7-1.68-1.04-2.69-.24-.25-.18,.12-.39,.05-.64-1.39,.52-1.19,.38-2.34,1.08l-.97-.42c.71,.48-.2,1.05-1,1.51,.25,.23,.47,.44,.61,.53l-1.28,.34c-.15-.11-.02-.32,.19-.59-.09,.05-.17,.1-.23,.15-.46-.24-.22-.61,.11-.96,.15,.13,.31,.26,.46,.4,.32-.39,.61-.82,.55-1.19-.08,.07-.24,.14-.42,.17,.08-.11,.14-.2,.1-.26-.04-.07-.18,.07-.39,.24l-.29-.71-.07,.28-1.67-.45c-1.2,.71-2.24,1.77-4.13,2.05,.47-.52,.1-.85,.13-1.47,.51,.66,1.47-.27,2.45-.14-.51-.07-.4-.37-.27-.47l-1.75,.59c.04-.51-.37-.38-.83-.59,.34,1-1.31,.66-2.02,.97-.04-.34,.13-.68,1-.6-.96-.76-1.24,1.17-2.18,.53,.21,0,.33,.04,.41-.13-.5,.3-1.71,.06-1.42-.24h.21c-1.41-.13-4.29-.03-4.5,.82-.01-.11,.19-1.02,.27-1.2l-2.52,2.85c.22-.73-.62-2.47,.55-2.88-.34-.11-.75-.23-1.46,.03,.23,.1,.57,1.06,.25,1.12-.86-.82-.59-.44-1.65-1.13,.34,.16-.04,1.3-.58,1.26,.09-.17-.04-1.13,.16-1.25l-1.35,1.12c.34-.2,.06-.95-.24-1.27,.14,.22-1.17-.02-1.53,.09l.57,.26c-1.52-.18-1.51,1.58-3.02,1.51,.18-.23,.46-1.43-.31-1.57-.35,.57-1.57,2.77-2.91,3.2l-.26-.33-1.03,.37c.64-.86,2.44-2.68,3.42-3.39-.57-.26-.16-.39-1.01-.36-.3-.31,.47-.47,.72-.48l-1.99-.21c.09,.67-1.52,.67-1.45,1.23l2.16-.69c.09,.67-1.26,1.9-2.66,1.78-.36-.27,.27-1.2,.24-1.42-.18,.23-1.34,.44-1.47,.27l.6-.36c-.78-.26-1.28,.89-2.22,.24-.33-.04-.97-.87-1.03-.47,.53,.77,.62,3.14,.27,3.72-.11-.05-1.71-.74-2.08-1.12-.53-.6,.81-1.43,.35-1.95-.02,.18-.32,.41-.44,.48-.34-.16,.14-.57-.6-.49-.13,.68-1.51-.06-.35,.57-.73,.19-.77-.14-1.62-.12,.27,.44-.77,1.5-1.5,1.69,.04-.17-.12-.4-.2-.5-1.49-.07-2.29-.38-3.67-.39-.13-.17-.8-.37-.51-.66-.2,.12-.38,.35-.81,.37-.83-.59,.96-.09,.33-.8-.06,.4-1.11,.54-1.72,.79,.19,.61,1.41,.12,2.02-.12,0,.84-1.07,1.72-2.52,2.11-1.15,.21-.5-.55-.7-.43-2.17-.15-1.85,1.47-3.65,.85-.71-.54-.03-1.07-.19-1.46,.94-.2,1.44,.35,2.08,.33l-.78-.26c.3-.18,.93-.31,1.27-.15-.6-.49-3.66-.11-5.33-.56-.3,.18-.81,.36-.57,.58l.53-.07c.48,.44-1,.6-.33,.8-.71,.3-1.51,.78-2.5,.53l-.19-.61c.02,.18,.65,.37,.93,.18-.42,.27-1.53-.84-1.99-.03l.7,.43c-.71,.31-1.6,.95-2.48,.76,.4,.61,.2-.07,.83,.64-.54-.88,2.26,.04,1.39-.88,.64,.82,1.12,.35,1.96,1.06-.03-.2-.3-.39,.45-.29,.03-.06,.11-.13,.16-.18,.02,0,.03,0,.05,.02-.01,0-.03-.02-.04-.02,.03-.03,.04-.04-.02,0-.18-.09-.32-.2-.38-.31,.37-.46,1.55-.44,1.95-.68,.44,.1-.19,.23,.05,.45l.6-.36c.06,.45,1.17,.75,.13,1.01l.93,.02c.55,.25,1.31,.36,1.77,.17,.44,.1,1.12-.49,.73-.14l1.47-.27v.11c1.46,.06,2.99-.73,4.64,.08,.49-.11,.99-.25,1.81-.12l.16,.39c.63-.13,1.88,.4,2.15,0,.67,1.05,3.03,.24,4.13,.43l.04-.51c.76,.03,1.48-.11,2.42-.31l-.06-.45c.81-.37,2.08,.33,3.36,.28-.09,.17-.41,.13-.64,.02,1.53,1.02,3.23-.73,4.62,.02,.35-.16,.6-.11,.84,0-.03,0-.06,0-.09,.02,.04,0,.09,0,.14,0,.15,.08,.31,.17,.48,.24-.14-.11-.28-.2-.4-.24,.27,0,.67-.06,1.07-.17l.17,.48s.06,0,.09-.01c.39,.18,.31-.23,.11-.59,.2-.08,.38-.17,.53-.29,.31,.78,1.04-.26,1.47,.57,.27-.4,1.99-.3,2.21-1.15,.01,.11,.13,.16-.08,.17,.44,.1,.88,.2,1.28-.04l.19,.61,.97-.82c.59,.38,.83,.59,.24,1.06,1.41-.72,1.14-.27,2.34-.98l-.06,.4c.43-.01,1.11-.54,1.37-.21,.95,.76,4.73,.12,7.18,.83-.47-1.17,1.14,.53,1.24-.38,.14,.28,.48,.43,.09,.67,1.25-.27,1.88,.44,2.75-.32,.14,.28-.27,.4-.14,.57,.1-.06,.4-.24,.53-.07,.13,.16-.18,.23-.38,.35,1.28-.04,1.41-.89,1.51-1.69,.65,.38,.97,.33,1.44-.19,.22,.26,.6,.54-.19,.63,.45,.04,2.73,.39,2.78-.25,.14,.16,.63,.05,.74-.02,1,.04,1.09,.1,2.08,.04l-.27-.11c.39-.77,.82-.17,1.61-.26l-.02,.08c1.82,.56,.79-.26,2.58,.38l-.1-.48c.17-1.03,1.59,.61,2.63,.22l-.38-.28c.57-.35,1.59,1.41,2.16,1.54,.12,.09-.2,.14-.37,.21,1.5,.61,.2-.63,1.31-.77,.2,.34-.27,.86,.48,.93,.37,.28,2.18-1.09,3.21-.44-.23-.26-.45-.52,.07-.72,.8-.09,2.15,.99,2.87,.17,.1,.07,.14,.14,.14,.21,.61-.21,1.98-.35,2.34-.79,.56,1.66,3.78-.79,3.76,.73l1.87-.08-.05,.16c1.19,.11,1.62-.26,2.04-.62,.28,.1,.07,.25,.05,.33,1.74,.31,1.92,.25,3.38-.51l.15,.5c.4-.29,2.52,.79,4.23,.21-.02,.06-.05,.15-.19,.22,1.93-.58,4.61,1.39,5.32-.41l1.27-.44c-1.64-.15,.25-.78-.43-1.08,.65-.1,1.67,.55,.87,.64l-.12-.09c-.3,.94,2.04,.34,2,.98,3.24-.04,6.39,.5,9.42,.55l-.35-.73,1.06,.05c.28,.17,.37,.57-.38,.54,.4,.42,1.27-.34,1.29-.5,1.48,.3-.58,.85-.13,.87l.62-.05-.14-.09c.5-.3,.54-.61,1.45-.57,.57,.15,.29,.45,.52,.48,0,.05,.07,.08,.35,.02l1.33,.07-.53-.58c.59-.28,1.25,.03,.64-.62,.9,1.01,4.97,.38,5.52,.69,.83-.42,1.64-.41,2.66-.35-.25-.12-.4-.77,.47-.69-.32,1.34,1.59,.59,2.3,1.55-.63-.64,2.48-.15,1.49-1.06,.73,.11,.04,.5,.59,.82,1.73-.51,3.82,.35,5.96,.18,.03-.18-.32-.45,.14-.71l1.13,.88c.42-.08,.39-1.01,1.16-.4-.11-.15-.27-.37,.01-.43,4.19,.87,8.57-.67,12.82,.95-.58-.34-.19-.38,.25-.39-.29-.08,0-.43-.05-.67l1.78,.67c.33-.66,1.91-.04,2.1-.67l-.56,.11c.75-.74-1.04-1.66-.93-2.62-.84,.85-2.21-1.26-3.6-.05-.3-.2,.26-.31,.1-.53-.35,.41-.77,.49-1.56,.31l.09-.1c-2.2,.09-3.14-.32-5.61-.59l.18,.47c-.53-.07-.64-.21-.89-.33-.61,.72,1.49,.05,.93,.84-.7-.97-3.74-.03-4.21-1.12-.82,0,.24,.55-.58,.54l-.22-.3-.21,.38c-.54-.06-.8-.44-.82-.69,.13,.03,.37-.07,.51-.09-.69-.35-1.96,.11-2.2,0l.78,.19c-2.23,.27-4.95-.13-7.1,.47l.16,.22c-1.65,.41-1.32-.25-3.12-.06l.07-.05c-.36,.22-.84,.33-1.34,.31,.46-.26-.86-.51-.26-.8-1.78,.44-.88,.35-2.06,1.17l-.27-.37c-.4,.33-.44,.51-1.34,.6,.74-.32-.57-.57,.26-.99-1.89-.82-2.81,.81-3.67-.38-.87,1.02,1.63,.58,1.15,.79,.41,.34-.72,.76-1.31,.66-.6-.02-1.02-1.32-2.54-1.3,.15,0,.16-.07,.31-.07-.57-.26-1.12,.35-1.81-.08-.39,.62-.91-.04-1.02,.75l1.39-.18c-.79,.2-1.54,1.13-2.84,.67,.1-.16,.49-.37,.76-.48-.38-.23-.73,.15-1.13-.09,.12-.79,1.69-.17,2.54-.77-.41-.34-1.6,.57-1.18-.29-.62,1.09-1.5-.14-2.53,.69l.07-.47c-.16,.07-.5,.3-.8,.28l.54-.61c-.84,.52-1.6-.46-2.41-.18,1.67,0,.37,.57,1.08,.92-2.07,.63-1.18-1.25-3.49-1.03,.31-.07,1.17,.29,.68,.51-.44-.1-1.02-.28-1.29-.53-1.53,.09,.23,.49-.42,.78-.52-.58-.75,.23-1.42,.42v-.48c-1.75-.32-.47,1-2.04,.62l.67-.67-.82,.17,.17-.55c-.89,.4-1.17,.3-2.04,.14,.2,.34-.12,.88-.89,.89-.53-.29,.3-.46-.8-.39,.25-.3,.52-.68,1-.23,.05-.16,.24-.3,.3-.46-.57-.33-1.43-.08-1.82-.08,.15,.02,.34,.05,.43,.11l-1.59,.66c-.25-.18-.05-.33,.15-.47-.32,.05-.55,.27-1.02,.31,.12-.39,.1-.8,.77-.98l-1.51,.43c-.1-.17-.77-.47-.58-.61-.84-.23-2.06,.75-3.17,.45-.06,.08-.17,.15-.41,.2-1.04-.09-1.97-.58-3.21-.04l-.7-.71c-.97,.16,.95,.89-.67,1.15-1.14,.22-.42-.6-.83-.8-.57,.35-1.56,1.07-2.61,.49,.35-.13,.62-.03,.95-.08Zm-11.97,.27c.23-.1,.7-.41,.86-.13-.27,.55-.47,.29-.86,.13Zm-18.19,1.1c.17-.16,.44-.08,.74,.1-.22,.04-.47,.02-.74-.1Zm-50.68,3.19s.02-.01,.02-.02c.52,.19,.33,.11-.02,.02Zm-1.07-.21c-.11,.07-.1,.13-.06,.2,.08-.12,.32-.13,.59-.09-.08-.13-.21-.21-.54-.11Zm115.33,.2l-.21-.13c.47-.14,.34-.01,.21,.13Z" fill="#1d1d1b"/><path d="M126.12,156.68c.07,.08,.08,.17,.1,.26,.09-.08,.09-.17-.1-.26Z" fill="#1d1d1b"/><path d="M161.65,155.74s.02,0,.04,0c.02-.03,.03-.06,.04-.09l-.07,.08Z" fill="#1d1d1b"/><path d="M88.95,156.27c.22,.07,.34,.16,.43,.25,.01-.12-.09-.22-.43-.25Z" fill="#1d1d1b"/><path d="M66.61,161.11l.69-.12c-.33,.02-.45-.08-.62-.16,.01,.11,.15,.28-.07,.28Z" fill="#1d1d1b"/><path d="M60.65,158.1c-.1,.06-.21,0-.31,.07l.03,.22c.43-.01,.73-.19,.29-.29Z" fill="#1d1d1b"/><path d="M65.98,159.5c-.05-.41-.49-.27-.97-.2,.03,0,.06,0,.09,0-.14,.57,.37,.38,.88,.2Z" fill="#1d1d1b"/><path d="M64.9,159.32c-.15,.02-.3,.03-.45,0-.06,.23,.18,.05,.45,0Z" fill="#1d1d1b"/><path d="M70.94,160.57c-.23-.11-.15,.52-.27,.35-.26,.52,1.53-.62,.27-.35Z" fill="#1d1d1b"/><polygon points="65.59 158.16 65.76 158.67 66.03 158.26 65.59 158.16" fill="#1d1d1b"/><path d="M69.39,158.54l-.77-.14c.01,.08-.09,.13-.21,.17,.47,.02,.99,.12,.98-.03Z" fill="#1d1d1b"/><path d="M68.42,158.57c-.25-.01-.48,0-.62,.08,.13,0,.42-.02,.62-.08Z" fill="#1d1d1b"/><polygon points="66.64 158.02 66.87 158.12 67.41 158.16 66.64 158.02" fill="#1d1d1b"/><path d="M77.67,158.67l.84-.14c.09-.17-.14-.28-.46-.21-.2,.12-.51,.18-.39,.35Z" fill="#1d1d1b"/><path d="M75.13,157.29c.23,.1,.24,.22,.37,.38l.03-.62-.4,.24Z" fill="#1d1d1b"/><path d="M77.58,157.15c.08-.17,1.22-.49,.16-.46-.09,.17-.93,.31-.16,.46Z" fill="#1d1d1b"/><polygon points="90.24 157.98 90.03 157.99 90.06 159.01 90.24 157.98" fill="#1d1d1b"/><path d="M101.41,155.58c-.99-.25-.24,.63-1.14,.32-.23,.24,.73,.25,.49,.46,.6-.25,.92-.11,.64-.78Z" fill="#1d1d1b"/><path d="M100.77,156.36c-.1,.04-.2,.09-.31,.15,.17-.06,.26-.11,.31-.15Z" fill="#1d1d1b"/><polygon points="226.72 161.16 227.36 161.37 226.95 161.03 226.72 161.16" fill="#1d1d1b"/><path d="M227.95,160.41l.15,.65,.39-.59c-.14,.03-.43,.08-.54-.06Z" fill="#1d1d1b"/><path d="M140.47,154.92l-.05,.16c.1,.17,.25,.18,.55,.21l-.5-.37Z" fill="#1d1d1b"/><polygon points="149.15 155.44 149 155.42 149.28 156.01 149.15 155.44" fill="#1d1d1b"/><path d="M156.44,154.71c-.3-.03-.65,.1-.95,.08,.65-.1,1.02,.65,.95-.08Z" fill="#1d1d1b"/></g></g><ellipse cx="141.82" cy="158.39" rx="32.24" ry="46.78" fill="#fff"/><path d="M138.64,174.2l-.17-2.23c-.51-4.62,1.03-9.67,5.31-14.81,3.85-4.54,5.99-7.88,5.99-11.73,0-4.37-2.74-7.28-8.13-7.36-3.08,0-6.51,1.03-8.65,2.65l-2.05-5.39c2.82-2.05,7.7-3.42,12.24-3.42,9.84,0,14.3,6.08,14.3,12.58,0,5.82-3.25,10.02-7.36,14.89-3.77,4.45-5.14,8.22-4.88,12.58l.09,2.23h-6.68Zm-1.88,11.98c0-3.17,2.14-5.39,5.14-5.39s5.05,2.23,5.05,5.39c0,3-1.97,5.31-5.14,5.31-3,0-5.05-2.31-5.05-5.31Z" fill="#1d1d1b"/></svg>